<?xml version="1.0" encoding="UTF-8" standalone="no"?>
<!DOCTYPE svg PUBLIC "-//W3C//DTD SVG 1.1//EN"
 "http://www.w3.org/Graphics/SVG/1.1/DTD/svg11.dtd">
<!-- Generated by graphviz version 2.26.3 (20100126.1600)
 -->
<!-- Title: _anonymous_628 Pages: 1 -->
<svg width="298pt" height="906pt"
 viewBox="0.00 0.00 298.00 906.00" xmlns="http://www.w3.org/2000/svg" xmlns:xlink="http://www.w3.org/1999/xlink">
<g id="graph1" class="graph" transform="scale(1 1) rotate(0) translate(4 902)">
<title>_anonymous_628</title>
<polygon fill="white" stroke="white" points="-4,5 -4,-902 295,-902 295,5 -4,5"/>
<!-- 0 -->
<g id="node1" class="node"><title>0</title>
<polygon fill="grey" stroke="grey" points="183,-580 107,-580 107,-536 183,-536 183,-580"/>
<text text-anchor="middle" x="145" y="-567" font-family="Courier,monospace" font-size="10.00">0</text>
<text text-anchor="start" x="114.5" y="-555" font-family="Courier,monospace" font-size="10.00">##prologue</text>
<text text-anchor="start" x="114.5" y="-543" font-family="Courier,monospace" font-size="10.00">##branch</text>
</g>
<!-- 1 -->
<g id="node2" class="node"><title>1</title>
<polygon fill="none" stroke="black" points="243,-500 47,-500 47,-408 243,-408 243,-500"/>
<text text-anchor="middle" x="145" y="-487" font-family="Courier,monospace" font-size="10.00">1</text>
<text text-anchor="start" x="54.5" y="-475" font-family="Courier,monospace" font-size="10.00">##peek 17 D 0</text>
<text text-anchor="start" x="54.5" y="-463" font-family="Courier,monospace" font-size="10.00">##load&#45;integer 18 10</text>
<text text-anchor="start" x="54.5" y="-451" font-family="Courier,monospace" font-size="10.00">##copy 19 17 any&#45;rep</text>
<text text-anchor="start" x="54.5" y="-439" font-family="Courier,monospace" font-size="10.00">##copy 20 17 any&#45;rep</text>
<text text-anchor="start" x="54.5" y="-427" font-family="Courier,monospace" font-size="10.00">##copy 21 18 any&#45;rep</text>
<text text-anchor="start" x="54.5" y="-415" font-family="Courier,monospace" font-size="10.00">##compare&#45;imm&#45;branch 19 f cc/=</text>
</g>
<!-- 0&#45;&gt;1 -->
<g id="edge1" class="edge"><title>0&#45;&gt;1</title>
<path fill="none" stroke="black" d="M145,-535.944C145,-528.406 145,-519.595 145,-510.598"/>
<polygon fill="black" stroke="black" points="148.5,-510.42 145,-500.42 141.5,-510.42 148.5,-510.42"/>
</g>
<!-- 2 -->
<g id="node3" class="node"><title>2</title>
<polygon fill="none" stroke="black" points="136,-372 2.76029e-14,-372 1.34961e-14,-304 136,-304 136,-372"/>
<text text-anchor="middle" x="68" y="-359" font-family="Courier,monospace" font-size="10.00">2</text>
<text text-anchor="start" x="7.5" y="-347" font-family="Courier,monospace" font-size="10.00">##inc&#45;d 1</text>
<text text-anchor="start" x="7.5" y="-335" font-family="Courier,monospace" font-size="10.00">##load&#45;integer 22 10</text>
<text text-anchor="start" x="7.5" y="-323" font-family="Courier,monospace" font-size="10.00">##copy 23 22 any&#45;rep</text>
<text text-anchor="start" x="7.5" y="-311" font-family="Courier,monospace" font-size="10.00">##branch</text>
</g>
<!-- 1&#45;&gt;2 -->
<g id="edge2" class="edge"><title>1&#45;&gt;2</title>
<path fill="none" stroke="black" d="M114.346,-407.82C108.433,-398.912 102.262,-389.615 96.4229,-380.819"/>
<polygon fill="black" stroke="black" points="99.1634,-378.619 90.7169,-372.223 93.3313,-382.49 99.1634,-378.619"/>
</g>
<!-- 3 -->
<g id="node4" class="node"><title>3</title>
<polygon fill="none" stroke="black" points="290,-372 154,-372 154,-304 290,-304 290,-372"/>
<text text-anchor="middle" x="222" y="-359" font-family="Courier,monospace" font-size="10.00">3</text>
<text text-anchor="start" x="161.5" y="-347" font-family="Courier,monospace" font-size="10.00">##inc&#45;d 1</text>
<text text-anchor="start" x="161.5" y="-335" font-family="Courier,monospace" font-size="10.00">##load&#45;integer 24 20</text>
<text text-anchor="start" x="161.5" y="-323" font-family="Courier,monospace" font-size="10.00">##copy 25 24 any&#45;rep</text>
<text text-anchor="start" x="161.5" y="-311" font-family="Courier,monospace" font-size="10.00">##branch</text>
</g>
<!-- 1&#45;&gt;3 -->
<g id="edge3" class="edge"><title>1&#45;&gt;3</title>
<path fill="none" stroke="black" d="M175.654,-407.82C181.567,-398.912 187.738,-389.615 193.577,-380.819"/>
<polygon fill="black" stroke="black" points="196.669,-382.49 199.283,-372.223 190.837,-378.619 196.669,-382.49"/>
</g>
<!-- 4 -->
<g id="node5" class="node"><title>4</title>
<polygon fill="none" stroke="black" stroke-width="2" points="246,-268 44,-268 44,-80 246,-80 246,-268"/>
<text text-anchor="middle" x="145" y="-255" font-family="Courier,monospace" font-size="10.00">4</text>
<text text-anchor="start" x="51.5" y="-243" font-family="Courier,monospace" font-size="10.00">##phi 26 H{ { 2 23 } { 3 25 } }</text>
<text text-anchor="start" x="51.5" y="-231" font-family="Courier,monospace" font-size="10.00">##inc&#45;d 3</text>
<text text-anchor="start" x="51.5" y="-219" font-family="Courier,monospace" font-size="10.00">##load&#45;integer 27 10</text>
<text text-anchor="start" x="51.5" y="-207" font-family="Courier,monospace" font-size="10.00">##load&#45;integer 28 20</text>
<text text-anchor="start" x="51.5" y="-195" font-family="Courier,monospace" font-size="10.00">##load&#45;integer 29 30</text>
<text text-anchor="start" x="51.5" y="-183" font-family="Courier,monospace" font-size="10.00">##copy 30 28 any&#45;rep</text>
<text text-anchor="start" x="51.5" y="-171" font-family="Courier,monospace" font-size="10.00">##copy 31 27 any&#45;rep</text>
<text text-anchor="start" x="51.5" y="-159" font-family="Courier,monospace" font-size="10.00">##copy 32 29 any&#45;rep</text>
<text text-anchor="start" x="51.5" y="-147" font-family="Courier,monospace" font-size="10.00">##replace 26 D 3</text>
<text text-anchor="start" x="51.5" y="-135" font-family="Courier,monospace" font-size="10.00">##replace 21 D 4</text>
<text text-anchor="start" x="51.5" y="-123" font-family="Courier,monospace" font-size="10.00">##replace 30 D 1</text>
<text text-anchor="start" x="51.5" y="-111" font-family="Courier,monospace" font-size="10.00">##replace 31 D 2</text>
<text text-anchor="start" x="51.5" y="-99" font-family="Courier,monospace" font-size="10.00">##replace 32 D 0</text>
<text text-anchor="start" x="51.5" y="-87" font-family="Courier,monospace" font-size="10.00">##branch</text>
</g>
<!-- 2&#45;&gt;4 -->
<g id="edge4" class="edge"><title>2&#45;&gt;4</title>
<path fill="none" stroke="black" d="M84.1417,-303.62C87.9181,-295.577 92.1336,-286.599 96.5358,-277.222"/>
<polygon fill="black" stroke="black" points="99.7235,-278.668 100.805,-268.129 93.3872,-275.693 99.7235,-278.668"/>
</g>
<!-- 3&#45;&gt;4 -->
<g id="edge5" class="edge"><title>3&#45;&gt;4</title>
<path fill="none" stroke="black" d="M205.858,-303.62C202.082,-295.577 197.866,-286.599 193.464,-277.222"/>
<polygon fill="black" stroke="black" points="196.613,-275.693 189.195,-268.129 190.276,-278.668 196.613,-275.693"/>
</g>
<!-- 5 -->
<g id="node6" class="node"><title>5</title>
<polygon fill="grey" stroke="grey" points="183,-44 107,-44 107,-1.42109e-14 183,-0 183,-44"/>
<text text-anchor="middle" x="145" y="-31" font-family="Courier,monospace" font-size="10.00">5</text>
<text text-anchor="start" x="114.5" y="-19" font-family="Courier,monospace" font-size="10.00">##epilogue</text>
<text text-anchor="start" x="114.5" y="-7" font-family="Courier,monospace" font-size="10.00">##return</text>
</g>
<!-- 4&#45;&gt;5 -->
<g id="edge6" class="edge"><title>4&#45;&gt;5</title>
<path fill="none" stroke="black" d="M145,-79.8983C145,-70.7959 145,-62.0613 145,-54.2592"/>
<polygon fill="black" stroke="black" points="148.5,-54.2508 145,-44.2509 141.5,-54.2509 148.5,-54.2508"/>
</g>
<!-- gvns -->
<g id="node7" class="node"><title>gvns</title>
<text text-anchor="start" x="51.5" y="-885" font-family="Courier,monospace" font-size="10.00">17 &#45;&gt; &lt;17&gt; (&#45;594)</text>
<text text-anchor="start" x="51.5" y="-873" font-family="Courier,monospace" font-size="10.00">18 &#45;&gt; &lt;18&gt; (10)</text>
<text text-anchor="start" x="51.5" y="-861" font-family="Courier,monospace" font-size="10.00">19 &#45;&gt; &lt;17&gt;</text>
<text text-anchor="start" x="51.5" y="-849" font-family="Courier,monospace" font-size="10.00">20 &#45;&gt; &lt;17&gt;</text>
<text text-anchor="start" x="51.5" y="-837" font-family="Courier,monospace" font-size="10.00">21 &#45;&gt; &lt;18&gt;</text>
<text text-anchor="start" x="51.5" y="-825" font-family="Courier,monospace" font-size="10.00">22 &#45;&gt; &lt;18&gt;</text>
<text text-anchor="start" x="51.5" y="-813" font-family="Courier,monospace" font-size="10.00">23 &#45;&gt; &lt;18&gt;</text>
<text text-anchor="start" x="51.5" y="-801" font-family="Courier,monospace" font-size="10.00">24 &#45;&gt; &lt;24&gt; (20)</text>
<text text-anchor="start" x="51.5" y="-789" font-family="Courier,monospace" font-size="10.00">25 &#45;&gt; &lt;24&gt;</text>
<text text-anchor="start" x="51.5" y="-777" font-family="Courier,monospace" font-size="10.00">26 &#45;&gt; &lt;26&gt; (##phi 4 18 24)</text>
<text text-anchor="start" x="51.5" y="-765" font-family="Courier,monospace" font-size="10.00">27 &#45;&gt; &lt;18&gt;</text>
<text text-anchor="start" x="51.5" y="-753" font-family="Courier,monospace" font-size="10.00">28 &#45;&gt; &lt;24&gt;</text>
<text text-anchor="start" x="51.5" y="-741" font-family="Courier,monospace" font-size="10.00">29 &#45;&gt; &lt;29&gt; (30)</text>
<text text-anchor="start" x="51.5" y="-729" font-family="Courier,monospace" font-size="10.00">30 &#45;&gt; &lt;24&gt;</text>
<text text-anchor="start" x="51.5" y="-717" font-family="Courier,monospace" font-size="10.00">31 &#45;&gt; &lt;18&gt;</text>
<text text-anchor="start" x="51.5" y="-705" font-family="Courier,monospace" font-size="10.00">32 &#45;&gt; &lt;29&gt;</text>
<text text-anchor="start" x="51.5" y="-671" font-family="Courier,monospace" font-size="10.00">&lt;17&gt; : {17, 19, 20}</text>
<text text-anchor="start" x="51.5" y="-659" font-family="Courier,monospace" font-size="10.00">&lt;18&gt; : {18, 21, 22, 23, 27, 31}</text>
<text text-anchor="start" x="51.5" y="-647" font-family="Courier,monospace" font-size="10.00">&lt;24&gt; : {24, 25, 28, 30}</text>
<text text-anchor="start" x="51.5" y="-635" font-family="Courier,monospace" font-size="10.00">&lt;26&gt; : {26}</text>
<text text-anchor="start" x="51.5" y="-623" font-family="Courier,monospace" font-size="10.00">&lt;29&gt; : {29, 32}</text>
</g>
<!-- gvns&#45;&gt;0 -->
</g>
</svg>
