<?xml version="1.0" encoding="UTF-8" standalone="no"?>
<!DOCTYPE svg PUBLIC "-//W3C//DTD SVG 1.1//EN"
 "http://www.w3.org/Graphics/SVG/1.1/DTD/svg11.dtd">
<!-- Generated by graphviz version 2.26.3 (20100126.1600)
 -->
<!-- Title: _anonymous_23 Pages: 1 -->
<svg width="322pt" height="422pt"
 viewBox="0.00 0.00 322.00 422.00" xmlns="http://www.w3.org/2000/svg" xmlns:xlink="http://www.w3.org/1999/xlink">
<g id="graph1" class="graph" transform="scale(1 1) rotate(0) translate(4 418)">
<title>_anonymous_23</title>
<polygon fill="white" stroke="white" points="-4,5 -4,-418 319,-418 319,5 -4,5"/>
<text text-anchor="middle" x="157" y="-397.4" font-family="Times Roman,serif" font-size="14.00">After eliminate&#45;dead&#45;code</text>
<!-- 0 -->
<g id="node1" class="node"><title>0</title>
<polygon fill="grey" stroke="grey" points="163,-388 87,-388 87,-344 163,-344 163,-388"/>
<text text-anchor="middle" x="125" y="-375" font-family="Courier,monospace" font-size="10.00">0</text>
<text text-anchor="start" x="94.5" y="-363" font-family="Courier,monospace" font-size="10.00">##prologue</text>
<text text-anchor="start" x="94.5" y="-351" font-family="Courier,monospace" font-size="10.00">##branch</text>
</g>
<!-- 1 -->
<g id="node2" class="node"><title>1</title>
<polygon fill="none" stroke="black" points="190,-308 60,-308 60,-252 190,-252 190,-308"/>
<text text-anchor="middle" x="125" y="-295" font-family="Courier,monospace" font-size="10.00">1</text>
<text text-anchor="start" x="67.5" y="-283" font-family="Courier,monospace" font-size="10.00">##inc&#45;d 3</text>
<text text-anchor="start" x="67.5" y="-271" font-family="Courier,monospace" font-size="10.00">##load&#45;integer 21 0</text>
<text text-anchor="start" x="67.5" y="-259" font-family="Courier,monospace" font-size="10.00">##branch</text>
</g>
<!-- 0&#45;&gt;1 -->
<g id="edge1" class="edge"><title>0&#45;&gt;1</title>
<path fill="none" stroke="black" d="M125,-343.853C125,-336.055 125,-327.05 125,-318.306"/>
<polygon fill="black" stroke="black" points="128.5,-318.251 125,-308.251 121.5,-318.251 128.5,-318.251"/>
</g>
<!-- 2 -->
<g id="node3" class="node"><title>2</title>
<polygon fill="none" stroke="black" points="250,-216 8.4481e-14,-216 1.37113e-14,-172 250,-172 250,-216"/>
<text text-anchor="middle" x="125" y="-203" font-family="Courier,monospace" font-size="10.00">2</text>
<text text-anchor="start" x="7.5" y="-191" font-family="Courier,monospace" font-size="10.00">##phi 29 H{ { 1 21 } { 3 36 } }</text>
<text text-anchor="start" x="7.5" y="-179" font-family="Courier,monospace" font-size="10.00">##compare&#45;integer&#45;imm&#45;branch 29 100 cc&lt;</text>
</g>
<!-- 1&#45;&gt;2 -->
<g id="edge2" class="edge"><title>1&#45;&gt;2</title>
<path fill="none" stroke="black" d="M125,-251.84C125,-243.712 125,-234.776 125,-226.411"/>
<polygon fill="black" stroke="black" points="128.5,-226.224 125,-216.224 121.5,-226.224 128.5,-226.224"/>
</g>
<!-- 3 -->
<g id="node4" class="node"><title>3</title>
<polygon fill="none" stroke="black" points="184,-130 66,-130 66,-86 184,-86 184,-130"/>
<text text-anchor="middle" x="125" y="-117" font-family="Courier,monospace" font-size="10.00">3</text>
<text text-anchor="start" x="73.5" y="-105" font-family="Courier,monospace" font-size="10.00">##add&#45;imm 36 29 1</text>
<text text-anchor="start" x="73.5" y="-93" font-family="Courier,monospace" font-size="10.00">##branch</text>
</g>
<!-- 2&#45;&gt;3 -->
<g id="edge3" class="edge"><title>2&#45;&gt;3</title>
<path fill="none" stroke="black" d="M119.012,-171.853C118.249,-162.223 118.059,-150.752 118.443,-140.206"/>
<polygon fill="black" stroke="black" points="121.945,-140.254 119.018,-130.072 114.957,-139.858 121.945,-140.254"/>
</g>
<!-- 4 -->
<g id="node5" class="node"><title>4</title>
<polygon fill="none" stroke="black" points="314,-136 202,-136 202,-80 314,-80 314,-136"/>
<text text-anchor="middle" x="258" y="-123" font-family="Courier,monospace" font-size="10.00">4</text>
<text text-anchor="start" x="209.5" y="-111" font-family="Courier,monospace" font-size="10.00">##inc&#45;d &#45;2</text>
<text text-anchor="start" x="209.5" y="-99" font-family="Courier,monospace" font-size="10.00">##replace 29 D 0</text>
<text text-anchor="start" x="209.5" y="-87" font-family="Courier,monospace" font-size="10.00">##branch</text>
</g>
<!-- 2&#45;&gt;4 -->
<g id="edge4" class="edge"><title>2&#45;&gt;4</title>
<path fill="none" stroke="black" d="M159.251,-171.853C173.408,-162.699 190.138,-151.881 205.765,-141.776"/>
<polygon fill="black" stroke="black" points="207.813,-144.62 214.31,-136.251 204.012,-138.742 207.813,-144.62"/>
</g>
<!-- 3&#45;&gt;2 -->
<g id="edge5" class="edge"><title>3&#45;&gt;2</title>
<path fill="none" stroke="black" d="M130.982,-130.072C131.749,-139.693 131.941,-151.161 131.56,-161.712"/>
<polygon fill="black" stroke="black" points="128.057,-161.672 130.988,-171.853 135.046,-162.066 128.057,-161.672"/>
</g>
<!-- 5 -->
<g id="node6" class="node"><title>5</title>
<polygon fill="grey" stroke="grey" points="296,-44 220,-44 220,-1.42109e-14 296,-0 296,-44"/>
<text text-anchor="middle" x="258" y="-31" font-family="Courier,monospace" font-size="10.00">5</text>
<text text-anchor="start" x="227.5" y="-19" font-family="Courier,monospace" font-size="10.00">##epilogue</text>
<text text-anchor="start" x="227.5" y="-7" font-family="Courier,monospace" font-size="10.00">##return</text>
</g>
<!-- 4&#45;&gt;5 -->
<g id="edge6" class="edge"><title>4&#45;&gt;5</title>
<path fill="none" stroke="black" d="M258,-79.8404C258,-71.7116 258,-62.7764 258,-54.4113"/>
<polygon fill="black" stroke="black" points="261.5,-54.224 258,-44.224 254.5,-54.224 261.5,-54.224"/>
</g>
</g>
</svg>
