<?xml version="1.0" encoding="UTF-8" standalone="no"?>
<!DOCTYPE svg PUBLIC "-//W3C//DTD SVG 1.1//EN"
 "http://www.w3.org/Graphics/SVG/1.1/DTD/svg11.dtd">
<!-- Generated by graphviz version 2.26.3 (20100126.1600)
 -->
<!-- Title: _anonymous_24 Pages: 1 -->
<svg width="349pt" height="426pt"
 viewBox="0.00 0.00 349.00 426.00" xmlns="http://www.w3.org/2000/svg" xmlns:xlink="http://www.w3.org/1999/xlink">
<g id="graph1" class="graph" transform="scale(1 1) rotate(0) translate(4 422)">
<title>_anonymous_24</title>
<polygon fill="white" stroke="white" points="-4,5 -4,-422 346,-422 346,5 -4,5"/>
<text text-anchor="middle" x="170.5" y="-401.4" font-family="Times Roman,serif" font-size="14.00">After finalize&#45;cfg</text>
<!-- 0 -->
<g id="node1" class="node"><title>0</title>
<polygon fill="grey" stroke="grey" points="166,-392 90,-392 90,-348 166,-348 166,-392"/>
<text text-anchor="middle" x="128" y="-379" font-family="Courier,monospace" font-size="10.00">0</text>
<text text-anchor="start" x="97.5" y="-367" font-family="Courier,monospace" font-size="10.00">##prologue</text>
<text text-anchor="start" x="97.5" y="-355" font-family="Courier,monospace" font-size="10.00">##branch</text>
</g>
<!-- 1 -->
<g id="node2" class="node"><title>1</title>
<polygon fill="none" stroke="black" points="196,-312 60,-312 60,-256 196,-256 196,-312"/>
<text text-anchor="middle" x="128" y="-299" font-family="Courier,monospace" font-size="10.00">1</text>
<text text-anchor="start" x="67.5" y="-287" font-family="Courier,monospace" font-size="10.00">##inc&#45;d 3</text>
<text text-anchor="start" x="67.5" y="-275" font-family="Courier,monospace" font-size="10.00">##load&#45;integer EAX 0</text>
<text text-anchor="start" x="67.5" y="-263" font-family="Courier,monospace" font-size="10.00">##branch</text>
</g>
<!-- 0&#45;&gt;1 -->
<g id="edge1" class="edge"><title>0&#45;&gt;1</title>
<path fill="none" stroke="black" d="M128,-341.84C128,-335.604 128,-328.892 128,-322.328"/>
<polygon fill="black" stroke="black" points="131.5,-322.223 128,-312.223 124.5,-322.223 131.5,-322.223"/>
</g>
<!-- 2 -->
<g id="node3" class="node"><title>2</title>
<polygon fill="none" stroke="black" points="256,-220 8.31557e-14,-220 2.65343e-14,-184 256,-184 256,-220"/>
<text text-anchor="middle" x="128" y="-205" font-family="Courier,monospace" font-size="10.00">2</text>
<text text-anchor="start" x="7.5" y="-193" font-family="Courier,monospace" font-size="10.00">##compare&#45;integer&#45;imm&#45;branch EAX 100 cc&lt;</text>
</g>
<!-- 1&#45;&gt;2 -->
<g id="edge2" class="edge"><title>1&#45;&gt;2</title>
<path fill="none" stroke="black" d="M128,-255.78C128,-247.663 128,-238.803 128,-230.659"/>
<polygon fill="black" stroke="black" points="131.5,-230.489 128,-220.489 124.5,-230.489 131.5,-230.489"/>
</g>
<!-- 3 -->
<g id="node4" class="node"><title>3</title>
<polygon fill="none" stroke="black" points="193,-136 63,-136 63,-92 193,-92 193,-136"/>
<text text-anchor="middle" x="128" y="-123" font-family="Courier,monospace" font-size="10.00">3</text>
<text text-anchor="start" x="70.5" y="-111" font-family="Courier,monospace" font-size="10.00">##add&#45;imm EAX EAX 1</text>
<text text-anchor="start" x="70.5" y="-99" font-family="Courier,monospace" font-size="10.00">##branch</text>
</g>
<!-- 2&#45;&gt;3 -->
<g id="edge3" class="edge"><title>2&#45;&gt;3</title>
<path fill="none" stroke="black" d="M122.407,-183.766C121.306,-172.99 120.991,-159.029 121.462,-146.431"/>
<polygon fill="black" stroke="black" points="124.966,-146.452 122.043,-136.268 117.978,-146.052 124.966,-146.452"/>
</g>
<!-- 4 -->
<g id="node5" class="node"><title>4</title>
<polygon fill="none" stroke="black" points="341,-148 211,-148 211,-80 341,-80 341,-148"/>
<text text-anchor="middle" x="276" y="-135" font-family="Courier,monospace" font-size="10.00">4</text>
<text text-anchor="start" x="218.5" y="-123" font-family="Courier,monospace" font-size="10.00">##inc&#45;d &#45;2</text>
<text text-anchor="start" x="218.5" y="-111" font-family="Courier,monospace" font-size="10.00">##shl&#45;imm EAX EAX 4</text>
<text text-anchor="start" x="218.5" y="-99" font-family="Courier,monospace" font-size="10.00">##replace EAX D 0</text>
<text text-anchor="start" x="218.5" y="-87" font-family="Courier,monospace" font-size="10.00">##branch</text>
</g>
<!-- 2&#45;&gt;4 -->
<g id="edge4" class="edge"><title>2&#45;&gt;4</title>
<path fill="none" stroke="black" d="M158.307,-183.98C173.279,-175.078 191.967,-163.965 210.013,-153.236"/>
<polygon fill="black" stroke="black" points="211.994,-156.129 218.801,-148.01 208.417,-150.113 211.994,-156.129"/>
</g>
<!-- 3&#45;&gt;2 -->
<g id="edge5" class="edge"><title>3&#45;&gt;2</title>
<path fill="none" stroke="black" d="M133.957,-136.268C134.86,-147.633 134.992,-161.58 134.353,-173.698"/>
<polygon fill="black" stroke="black" points="130.855,-173.531 133.593,-183.766 137.836,-174.058 130.855,-173.531"/>
</g>
<!-- 5 -->
<g id="node6" class="node"><title>5</title>
<polygon fill="grey" stroke="grey" points="314,-44 238,-44 238,-1.42109e-14 314,-0 314,-44"/>
<text text-anchor="middle" x="276" y="-31" font-family="Courier,monospace" font-size="10.00">5</text>
<text text-anchor="start" x="245.5" y="-19" font-family="Courier,monospace" font-size="10.00">##epilogue</text>
<text text-anchor="start" x="245.5" y="-7" font-family="Courier,monospace" font-size="10.00">##return</text>
</g>
<!-- 4&#45;&gt;5 -->
<g id="edge6" class="edge"><title>4&#45;&gt;5</title>
<path fill="none" stroke="black" d="M276,-79.7426C276,-71.3371 276,-62.3709 276,-54.0725"/>
<polygon fill="black" stroke="black" points="279.5,-54.0107 276,-44.0107 272.5,-54.0107 279.5,-54.0107"/>
</g>
</g>
</svg>
