<?xml version="1.0" encoding="UTF-8" standalone="no"?>
<!DOCTYPE svg PUBLIC "-//W3C//DTD SVG 1.1//EN"
 "http://www.w3.org/Graphics/SVG/1.1/DTD/svg11.dtd">
<!-- Generated by graphviz version 2.26.3 (20100126.1600)
 -->
<!-- Title: _anonymous_5 Pages: 1 -->
<svg width="295pt" height="576pt"
 viewBox="0.00 0.00 295.00 576.00" xmlns="http://www.w3.org/2000/svg" xmlns:xlink="http://www.w3.org/1999/xlink">
<g id="graph1" class="graph" transform="scale(1 1) rotate(0) translate(4 572)">
<title>_anonymous_5</title>
<polygon fill="white" stroke="white" points="-4,5 -4,-572 292,-572 292,5 -4,5"/>
<!-- 0 -->
<g id="node1" class="node"><title>0</title>
<polygon fill="grey" stroke="grey" points="136,-568 60,-568 60,-524 136,-524 136,-568"/>
<text text-anchor="middle" x="98" y="-555" font-family="Courier,monospace" font-size="10.00">0</text>
<text text-anchor="start" x="67.5" y="-543" font-family="Courier,monospace" font-size="10.00">##prologue</text>
<text text-anchor="start" x="67.5" y="-531" font-family="Courier,monospace" font-size="10.00">##branch</text>
</g>
<!-- 1 -->
<g id="node2" class="node"><title>1</title>
<polygon fill="none" stroke="black" points="166,-488 30,-488 30,-360 166,-360 166,-488"/>
<text text-anchor="middle" x="98" y="-475" font-family="Courier,monospace" font-size="10.00">1</text>
<text text-anchor="start" x="37.5" y="-463" font-family="Courier,monospace" font-size="10.00">##load&#45;integer 1 0</text>
<text text-anchor="start" x="37.5" y="-451" font-family="Courier,monospace" font-size="10.00">##load&#45;integer 2 100</text>
<text text-anchor="start" x="37.5" y="-439" font-family="Courier,monospace" font-size="10.00">##load&#45;integer 3 0</text>
<text text-anchor="start" x="37.5" y="-427" font-family="Courier,monospace" font-size="10.00">##copy 4 2 any&#45;rep</text>
<text text-anchor="start" x="37.5" y="-415" font-family="Courier,monospace" font-size="10.00">##copy 5 1 any&#45;rep</text>
<text text-anchor="start" x="37.5" y="-403" font-family="Courier,monospace" font-size="10.00">##copy 6 4 any&#45;rep</text>
<text text-anchor="start" x="37.5" y="-391" font-family="Courier,monospace" font-size="10.00">##copy 7 3 any&#45;rep</text>
<text text-anchor="start" x="37.5" y="-379" font-family="Courier,monospace" font-size="10.00">##inc&#45;d 3</text>
<text text-anchor="start" x="37.5" y="-367" font-family="Courier,monospace" font-size="10.00">##branch</text>
</g>
<!-- 0&#45;&gt;1 -->
<g id="edge1" class="edge"><title>0&#45;&gt;1</title>
<path fill="none" stroke="black" d="M98,-523.907C98,-516.393 98,-507.528 98,-498.232"/>
<polygon fill="black" stroke="black" points="101.5,-498.02 98,-488.02 94.5001,-498.02 101.5,-498.02"/>
</g>
<!-- 2 -->
<g id="node3" class="node"><title>2</title>
<polygon fill="none" stroke="black" points="196,-324 5.80508e-14,-324 4.39163e-14,-244 196,-244 196,-324"/>
<text text-anchor="middle" x="98" y="-311" font-family="Courier,monospace" font-size="10.00">2</text>
<text text-anchor="start" x="7.5" y="-299" font-family="Courier,monospace" font-size="10.00">##compare&#45;integer 10 7 6 cc&lt; 9</text>
<text text-anchor="start" x="7.5" y="-287" font-family="Courier,monospace" font-size="10.00">##copy 11 10 any&#45;rep</text>
<text text-anchor="start" x="7.5" y="-275" font-family="Courier,monospace" font-size="10.00">##copy 18 6 any&#45;rep</text>
<text text-anchor="start" x="7.5" y="-263" font-family="Courier,monospace" font-size="10.00">##copy 19 10 any&#45;rep</text>
<text text-anchor="start" x="7.5" y="-251" font-family="Courier,monospace" font-size="10.00">##compare&#45;imm&#45;branch 11 f cc/=</text>
</g>
<!-- 1&#45;&gt;2 -->
<g id="edge2" class="edge"><title>1&#45;&gt;2</title>
<path fill="none" stroke="black" d="M98,-359.736C98,-351.245 98,-342.641 98,-334.427"/>
<polygon fill="black" stroke="black" points="101.5,-334.271 98,-324.271 94.5001,-334.271 101.5,-334.271"/>
</g>
<!-- 3 -->
<g id="node4" class="node"><title>3</title>
<polygon fill="none" stroke="black" points="163,-208 33,-208 33,-80 163,-80 163,-208"/>
<text text-anchor="middle" x="98" y="-195" font-family="Courier,monospace" font-size="10.00">3</text>
<text text-anchor="start" x="40.5" y="-183" font-family="Courier,monospace" font-size="10.00">##load&#45;integer 12 1</text>
<text text-anchor="start" x="40.5" y="-171" font-family="Courier,monospace" font-size="10.00">##add 13 5 12</text>
<text text-anchor="start" x="40.5" y="-159" font-family="Courier,monospace" font-size="10.00">##load&#45;integer 14 1</text>
<text text-anchor="start" x="40.5" y="-147" font-family="Courier,monospace" font-size="10.00">##add 15 7 14</text>
<text text-anchor="start" x="40.5" y="-135" font-family="Courier,monospace" font-size="10.00">##copy 16 7 any&#45;rep</text>
<text text-anchor="start" x="40.5" y="-123" font-family="Courier,monospace" font-size="10.00">##copy 4 6 any&#45;rep</text>
<text text-anchor="start" x="40.5" y="-111" font-family="Courier,monospace" font-size="10.00">##copy 5 13 any&#45;rep</text>
<text text-anchor="start" x="40.5" y="-99" font-family="Courier,monospace" font-size="10.00">##copy 7 15 any&#45;rep</text>
<text text-anchor="start" x="40.5" y="-87" font-family="Courier,monospace" font-size="10.00">##branch</text>
</g>
<!-- 2&#45;&gt;3 -->
<g id="edge3" class="edge"><title>2&#45;&gt;3</title>
<path fill="none" stroke="black" d="M91.8294,-243.882C91.4991,-235.867 91.3101,-227.21 91.2622,-218.459"/>
<polygon fill="black" stroke="black" points="94.7623,-218.179 91.2708,-208.176 87.7623,-218.173 94.7623,-218.179"/>
</g>
<!-- 4 -->
<g id="node5" class="node"><title>4</title>
<polygon fill="none" stroke="black" points="287,-172 181,-172 181,-116 287,-116 287,-172"/>
<text text-anchor="middle" x="234" y="-159" font-family="Courier,monospace" font-size="10.00">4</text>
<text text-anchor="start" x="188.5" y="-147" font-family="Courier,monospace" font-size="10.00">##inc&#45;d &#45;2</text>
<text text-anchor="start" x="188.5" y="-135" font-family="Courier,monospace" font-size="10.00">##replace 5 D 0</text>
<text text-anchor="start" x="188.5" y="-123" font-family="Courier,monospace" font-size="10.00">##branch</text>
</g>
<!-- 2&#45;&gt;4 -->
<g id="edge4" class="edge"><title>2&#45;&gt;4</title>
<path fill="none" stroke="black" d="M137.192,-243.787C148.437,-232.239 160.709,-219.625 172,-208 181.015,-198.718 190.757,-188.67 199.79,-179.346"/>
<polygon fill="black" stroke="black" points="202.41,-181.671 206.854,-172.053 197.382,-176.801 202.41,-181.671"/>
</g>
<!-- 3&#45;&gt;2 -->
<g id="edge5" class="edge"><title>3&#45;&gt;2</title>
<path fill="none" stroke="black" d="M104.729,-208.176C104.79,-216.725 104.717,-225.392 104.508,-233.66"/>
<polygon fill="black" stroke="black" points="101.002,-233.772 104.171,-243.882 107.998,-234.002 101.002,-233.772"/>
</g>
<!-- 5 -->
<g id="node6" class="node"><title>5</title>
<polygon fill="grey" stroke="grey" points="272,-44 196,-44 196,-1.42109e-14 272,-0 272,-44"/>
<text text-anchor="middle" x="234" y="-31" font-family="Courier,monospace" font-size="10.00">5</text>
<text text-anchor="start" x="203.5" y="-19" font-family="Courier,monospace" font-size="10.00">##epilogue</text>
<text text-anchor="start" x="203.5" y="-7" font-family="Courier,monospace" font-size="10.00">##return</text>
</g>
<!-- 4&#45;&gt;5 -->
<g id="edge6" class="edge"><title>4&#45;&gt;5</title>
<path fill="none" stroke="black" d="M234,-115.704C234,-97.2925 234,-73.2375 234,-54.1101"/>
<polygon fill="black" stroke="black" points="237.5,-54.0579 234,-44.0579 230.5,-54.058 237.5,-54.0579"/>
</g>
</g>
</svg>
