<?xml version="1.0" encoding="UTF-8" standalone="no"?>
<!DOCTYPE svg PUBLIC "-//W3C//DTD SVG 1.1//EN"
 "http://www.w3.org/Graphics/SVG/1.1/DTD/svg11.dtd">
<!-- Generated by graphviz version 2.26.3 (20100126.1600)
 -->
<!-- Title: _anonymous_21 Pages: 1 -->
<svg width="331pt" height="600pt"
 viewBox="0.00 0.00 331.00 600.00" xmlns="http://www.w3.org/2000/svg" xmlns:xlink="http://www.w3.org/1999/xlink">
<g id="graph1" class="graph" transform="scale(1 1) rotate(0) translate(4 596)">
<title>_anonymous_21</title>
<polygon fill="white" stroke="white" points="-4,5 -4,-596 328,-596 328,5 -4,5"/>
<!-- 0 -->
<g id="node1" class="node"><title>0</title>
<polygon fill="none" stroke="black" points="163,-592 87,-592 87,-548 163,-548 163,-592"/>
<text text-anchor="middle" x="125" y="-579" font-family="Courier,monospace" font-size="10.00">0</text>
<text text-anchor="start" x="94.5" y="-567" font-family="Courier,monospace" font-size="10.00">##prologue</text>
<text text-anchor="start" x="94.5" y="-555" font-family="Courier,monospace" font-size="10.00">##branch</text>
</g>
<!-- 1 -->
<g id="node2" class="node"><title>1</title>
<polygon fill="none" stroke="black" points="196,-512 54,-512 54,-384 196,-384 196,-512"/>
<text text-anchor="middle" x="125" y="-499" font-family="Courier,monospace" font-size="10.00">1</text>
<text text-anchor="start" x="61.5" y="-487" font-family="Courier,monospace" font-size="10.00">##inc&#45;d 3</text>
<text text-anchor="start" x="61.5" y="-475" font-family="Courier,monospace" font-size="10.00">##load&#45;integer 21 0</text>
<text text-anchor="start" x="61.5" y="-463" font-family="Courier,monospace" font-size="10.00">##load&#45;integer 22 100</text>
<text text-anchor="start" x="61.5" y="-451" font-family="Courier,monospace" font-size="10.00">##copy 23 21 any&#45;rep</text>
<text text-anchor="start" x="61.5" y="-439" font-family="Courier,monospace" font-size="10.00">##copy 24 22 any&#45;rep</text>
<text text-anchor="start" x="61.5" y="-427" font-family="Courier,monospace" font-size="10.00">##copy 25 21 any&#45;rep</text>
<text text-anchor="start" x="61.5" y="-415" font-family="Courier,monospace" font-size="10.00">##copy 26 24 any&#45;rep</text>
<text text-anchor="start" x="61.5" y="-403" font-family="Courier,monospace" font-size="10.00">##copy 27 23 any&#45;rep</text>
<text text-anchor="start" x="61.5" y="-391" font-family="Courier,monospace" font-size="10.00">##branch</text>
</g>
<!-- 0&#45;&gt;1 -->
<g id="edge1" class="edge"><title>0&#45;&gt;1</title>
<path fill="none" stroke="black" d="M125,-547.907C125,-540.393 125,-531.528 125,-522.232"/>
<polygon fill="black" stroke="black" points="128.5,-522.02 125,-512.02 121.5,-522.02 128.5,-522.02"/>
</g>
<!-- 2 -->
<g id="node3" class="node"><title>2</title>
<polygon fill="none" stroke="black" points="250,-348 8.4481e-14,-348 1.37113e-14,-244 250,-244 250,-348"/>
<text text-anchor="middle" x="125" y="-335" font-family="Courier,monospace" font-size="10.00">2</text>
<text text-anchor="start" x="7.5" y="-323" font-family="Courier,monospace" font-size="10.00">##phi 29 H{ { 1 25 } { 3 41 } }</text>
<text text-anchor="start" x="7.5" y="-311" font-family="Courier,monospace" font-size="10.00">##copy 30 29 any&#45;rep</text>
<text text-anchor="start" x="7.5" y="-299" font-family="Courier,monospace" font-size="10.00">##compare&#45;integer&#45;imm 31 30 100 cc&lt; 46</text>
<text text-anchor="start" x="7.5" y="-287" font-family="Courier,monospace" font-size="10.00">##copy 32 31 any&#45;rep</text>
<text text-anchor="start" x="7.5" y="-275" font-family="Courier,monospace" font-size="10.00">##copy 33 26 any&#45;rep</text>
<text text-anchor="start" x="7.5" y="-263" font-family="Courier,monospace" font-size="10.00">##copy 34 31 any&#45;rep</text>
<text text-anchor="start" x="7.5" y="-251" font-family="Courier,monospace" font-size="10.00">##compare&#45;integer&#45;imm&#45;branch 30 100 cc&lt;</text>
</g>
<!-- 1&#45;&gt;2 -->
<g id="edge2" class="edge"><title>1&#45;&gt;2</title>
<path fill="none" stroke="black" d="M125,-383.979C125,-375.557 125,-366.935 125,-358.538"/>
<polygon fill="black" stroke="black" points="128.5,-358.438 125,-348.438 121.5,-358.438 128.5,-358.438"/>
</g>
<!-- 3 -->
<g id="node4" class="node"><title>3</title>
<polygon fill="none" stroke="black" points="193,-208 57,-208 57,-80 193,-80 193,-208"/>
<text text-anchor="middle" x="125" y="-195" font-family="Courier,monospace" font-size="10.00">3</text>
<text text-anchor="start" x="64.5" y="-183" font-family="Courier,monospace" font-size="10.00">##load&#45;integer 35 1</text>
<text text-anchor="start" x="64.5" y="-171" font-family="Courier,monospace" font-size="10.00">##add&#45;imm 36 29 1</text>
<text text-anchor="start" x="64.5" y="-159" font-family="Courier,monospace" font-size="10.00">##copy 37 35 any&#45;rep</text>
<text text-anchor="start" x="64.5" y="-147" font-family="Courier,monospace" font-size="10.00">##copy 38 36 any&#45;rep</text>
<text text-anchor="start" x="64.5" y="-135" font-family="Courier,monospace" font-size="10.00">##copy 39 30 any&#45;rep</text>
<text text-anchor="start" x="64.5" y="-123" font-family="Courier,monospace" font-size="10.00">##copy 40 26 any&#45;rep</text>
<text text-anchor="start" x="64.5" y="-111" font-family="Courier,monospace" font-size="10.00">##copy 41 36 any&#45;rep</text>
<text text-anchor="start" x="64.5" y="-99" font-family="Courier,monospace" font-size="10.00">##copy 42 38 any&#45;rep</text>
<text text-anchor="start" x="64.5" y="-87" font-family="Courier,monospace" font-size="10.00">##branch</text>
</g>
<!-- 2&#45;&gt;3 -->
<g id="edge3" class="edge"><title>2&#45;&gt;3</title>
<path fill="none" stroke="black" d="M118.55,-243.69C118.336,-235.481 118.236,-226.862 118.252,-218.273"/>
<polygon fill="black" stroke="black" points="121.752,-218.254 118.322,-208.229 114.752,-218.204 121.752,-218.254"/>
</g>
<!-- 4 -->
<g id="node5" class="node"><title>4</title>
<polygon fill="none" stroke="black" points="323,-172 211,-172 211,-116 323,-116 323,-172"/>
<text text-anchor="middle" x="267" y="-159" font-family="Courier,monospace" font-size="10.00">4</text>
<text text-anchor="start" x="218.5" y="-147" font-family="Courier,monospace" font-size="10.00">##inc&#45;d &#45;2</text>
<text text-anchor="start" x="218.5" y="-135" font-family="Courier,monospace" font-size="10.00">##replace 29 D 0</text>
<text text-anchor="start" x="218.5" y="-123" font-family="Courier,monospace" font-size="10.00">##branch</text>
</g>
<!-- 2&#45;&gt;4 -->
<g id="edge4" class="edge"><title>2&#45;&gt;4</title>
<path fill="none" stroke="black" d="M173.868,-243.69C193.699,-222.463 216.089,-198.496 233.945,-179.382"/>
<polygon fill="black" stroke="black" points="236.531,-181.742 240.8,-172.045 231.416,-176.963 236.531,-181.742"/>
</g>
<!-- 3&#45;&gt;2 -->
<g id="edge5" class="edge"><title>3&#45;&gt;2</title>
<path fill="none" stroke="black" d="M131.678,-208.229C131.782,-216.636 131.774,-225.24 131.653,-233.615"/>
<polygon fill="black" stroke="black" points="128.152,-233.622 131.45,-243.69 135.151,-233.763 128.152,-233.622"/>
</g>
<!-- 5 -->
<g id="node6" class="node"><title>5</title>
<polygon fill="none" stroke="black" points="305,-44 229,-44 229,-1.42109e-14 305,-0 305,-44"/>
<text text-anchor="middle" x="267" y="-31" font-family="Courier,monospace" font-size="10.00">5</text>
<text text-anchor="start" x="236.5" y="-19" font-family="Courier,monospace" font-size="10.00">##epilogue</text>
<text text-anchor="start" x="236.5" y="-7" font-family="Courier,monospace" font-size="10.00">##return</text>
</g>
<!-- 4&#45;&gt;5 -->
<g id="edge6" class="edge"><title>4&#45;&gt;5</title>
<path fill="none" stroke="black" d="M267,-115.704C267,-97.2925 267,-73.2375 267,-54.1101"/>
<polygon fill="black" stroke="black" points="270.5,-54.0579 267,-44.0579 263.5,-54.058 270.5,-54.0579"/>
</g>
</g>
</svg>
