<?xml version="1.0" encoding="UTF-8" standalone="no"?>
<!DOCTYPE svg PUBLIC "-//W3C//DTD SVG 1.1//EN"
 "http://www.w3.org/Graphics/SVG/1.1/DTD/svg11.dtd">
<!-- Generated by graphviz version 2.26.3 (20100126.1600)
 -->
<!-- Title: _anonymous_22 Pages: 1 -->
<svg width="328pt" height="420pt"
 viewBox="0.00 0.00 328.00 420.00" xmlns="http://www.w3.org/2000/svg" xmlns:xlink="http://www.w3.org/1999/xlink">
<g id="graph1" class="graph" transform="scale(1 1) rotate(0) translate(4 416)">
<title>_anonymous_22</title>
<polygon fill="white" stroke="white" points="-4,5 -4,-416 325,-416 325,5 -4,5"/>
<!-- 0 -->
<g id="node1" class="node"><title>0</title>
<polygon fill="none" stroke="black" points="163,-412 87,-412 87,-368 163,-368 163,-412"/>
<text text-anchor="middle" x="125" y="-399" font-family="Courier,monospace" font-size="10.00">0</text>
<text text-anchor="start" x="94.5" y="-387" font-family="Courier,monospace" font-size="10.00">##prologue</text>
<text text-anchor="start" x="94.5" y="-375" font-family="Courier,monospace" font-size="10.00">##branch</text>
</g>
<!-- 1 -->
<g id="node2" class="node"><title>1</title>
<polygon fill="none" stroke="black" points="196,-332 54,-332 54,-264 196,-264 196,-332"/>
<text text-anchor="middle" x="125" y="-319" font-family="Courier,monospace" font-size="10.00">1</text>
<text text-anchor="start" x="61.5" y="-307" font-family="Courier,monospace" font-size="10.00">##inc&#45;d 3</text>
<text text-anchor="start" x="61.5" y="-295" font-family="Courier,monospace" font-size="10.00">##load&#45;integer 21 0</text>
<text text-anchor="start" x="61.5" y="-283" font-family="Courier,monospace" font-size="10.00">##load&#45;integer 22 100</text>
<text text-anchor="start" x="61.5" y="-271" font-family="Courier,monospace" font-size="10.00">##branch</text>
</g>
<!-- 0&#45;&gt;1 -->
<g id="edge1" class="edge"><title>0&#45;&gt;1</title>
<path fill="none" stroke="black" d="M125,-367.729C125,-360.085 125,-351.236 125,-342.463"/>
<polygon fill="black" stroke="black" points="128.5,-342.274 125,-332.274 121.5,-342.274 128.5,-342.274"/>
</g>
<!-- 2 -->
<g id="node3" class="node"><title>2</title>
<polygon fill="none" stroke="black" points="250,-228 8.4481e-14,-228 1.37113e-14,-172 250,-172 250,-228"/>
<text text-anchor="middle" x="125" y="-215" font-family="Courier,monospace" font-size="10.00">2</text>
<text text-anchor="start" x="7.5" y="-203" font-family="Courier,monospace" font-size="10.00">##phi 29 H{ { 1 21 } { 3 36 } }</text>
<text text-anchor="start" x="7.5" y="-191" font-family="Courier,monospace" font-size="10.00">##compare&#45;integer&#45;imm 31 29 100 cc&lt; 46</text>
<text text-anchor="start" x="7.5" y="-179" font-family="Courier,monospace" font-size="10.00">##compare&#45;integer&#45;imm&#45;branch 29 100 cc&lt;</text>
</g>
<!-- 1&#45;&gt;2 -->
<g id="edge2" class="edge"><title>1&#45;&gt;2</title>
<path fill="none" stroke="black" d="M125,-263.999C125,-255.667 125,-246.695 125,-238.181"/>
<polygon fill="black" stroke="black" points="128.5,-238.097 125,-228.097 121.5,-238.097 128.5,-238.097"/>
</g>
<!-- 3 -->
<g id="node4" class="node"><title>3</title>
<polygon fill="none" stroke="black" points="190,-136 60,-136 60,-80 190,-80 190,-136"/>
<text text-anchor="middle" x="125" y="-123" font-family="Courier,monospace" font-size="10.00">3</text>
<text text-anchor="start" x="67.5" y="-111" font-family="Courier,monospace" font-size="10.00">##load&#45;integer 35 1</text>
<text text-anchor="start" x="67.5" y="-99" font-family="Courier,monospace" font-size="10.00">##add&#45;imm 36 29 1</text>
<text text-anchor="start" x="67.5" y="-87" font-family="Courier,monospace" font-size="10.00">##branch</text>
</g>
<!-- 2&#45;&gt;3 -->
<g id="edge3" class="edge"><title>2&#45;&gt;3</title>
<path fill="none" stroke="black" d="M118.726,-171.897C118.277,-163.858 118.145,-154.954 118.332,-146.41"/>
<polygon fill="black" stroke="black" points="121.836,-146.373 118.718,-136.248 114.841,-146.108 121.836,-146.373"/>
</g>
<!-- 4 -->
<g id="node5" class="node"><title>4</title>
<polygon fill="none" stroke="black" points="320,-136 208,-136 208,-80 320,-80 320,-136"/>
<text text-anchor="middle" x="264" y="-123" font-family="Courier,monospace" font-size="10.00">4</text>
<text text-anchor="start" x="215.5" y="-111" font-family="Courier,monospace" font-size="10.00">##inc&#45;d &#45;2</text>
<text text-anchor="start" x="215.5" y="-99" font-family="Courier,monospace" font-size="10.00">##replace 29 D 0</text>
<text text-anchor="start" x="215.5" y="-87" font-family="Courier,monospace" font-size="10.00">##branch</text>
</g>
<!-- 2&#45;&gt;4 -->
<g id="edge4" class="edge"><title>2&#45;&gt;4</title>
<path fill="none" stroke="black" d="M167.46,-171.897C181.742,-162.444 197.83,-151.796 212.717,-141.943"/>
<polygon fill="black" stroke="black" points="214.914,-144.686 221.321,-136.248 211.05,-138.849 214.914,-144.686"/>
</g>
<!-- 3&#45;&gt;2 -->
<g id="edge5" class="edge"><title>3&#45;&gt;2</title>
<path fill="none" stroke="black" d="M131.282,-136.248C131.728,-144.298 131.855,-153.204 131.664,-161.744"/>
<polygon fill="black" stroke="black" points="128.161,-161.77 131.274,-171.897 135.156,-162.039 128.161,-161.77"/>
</g>
<!-- 5 -->
<g id="node6" class="node"><title>5</title>
<polygon fill="none" stroke="black" points="302,-44 226,-44 226,-1.42109e-14 302,-0 302,-44"/>
<text text-anchor="middle" x="264" y="-31" font-family="Courier,monospace" font-size="10.00">5</text>
<text text-anchor="start" x="233.5" y="-19" font-family="Courier,monospace" font-size="10.00">##epilogue</text>
<text text-anchor="start" x="233.5" y="-7" font-family="Courier,monospace" font-size="10.00">##return</text>
</g>
<!-- 4&#45;&gt;5 -->
<g id="edge6" class="edge"><title>4&#45;&gt;5</title>
<path fill="none" stroke="black" d="M264,-79.8404C264,-71.7116 264,-62.7764 264,-54.4113"/>
<polygon fill="black" stroke="black" points="267.5,-54.224 264,-44.224 260.5,-54.224 267.5,-54.224"/>
</g>
</g>
</svg>
