<?xml version="1.0" encoding="UTF-8" standalone="no"?>
<!DOCTYPE svg PUBLIC "-//W3C//DTD SVG 1.1//EN"
 "http://www.w3.org/Graphics/SVG/1.1/DTD/svg11.dtd">
<!-- Generated by graphviz version 2.26.3 (20100126.1600)
 -->
<!-- Title: _anonymous_9 Pages: 1 -->
<svg width="310pt" height="774pt"
 viewBox="0.00 0.00 310.00 774.00" xmlns="http://www.w3.org/2000/svg" xmlns:xlink="http://www.w3.org/1999/xlink">
<g id="graph1" class="graph" transform="scale(1 1) rotate(0) translate(4 770)">
<title>_anonymous_9</title>
<polygon fill="white" stroke="white" points="-4,5 -4,-770 307,-770 307,5 -4,5"/>
<!-- 0 -->
<g id="node1" class="node"><title>0</title>
<polygon fill="grey" stroke="grey" points="142,-592 66,-592 66,-548 142,-548 142,-592"/>
<text text-anchor="middle" x="104" y="-579" font-family="Courier,monospace" font-size="10.00">0</text>
<text text-anchor="start" x="73.5" y="-567" font-family="Courier,monospace" font-size="10.00">##prologue</text>
<text text-anchor="start" x="73.5" y="-555" font-family="Courier,monospace" font-size="10.00">##branch</text>
</g>
<!-- 1 -->
<g id="node2" class="node"><title>1</title>
<polygon fill="none" stroke="black" stroke-width="2" points="175,-512 33,-512 33,-384 175,-384 175,-512"/>
<text text-anchor="middle" x="104" y="-499" font-family="Courier,monospace" font-size="10.00">1</text>
<text text-anchor="start" x="40.5" y="-487" font-family="Courier,monospace" font-size="10.00">##inc&#45;d 3</text>
<text text-anchor="start" x="40.5" y="-475" font-family="Courier,monospace" font-size="10.00">##load&#45;integer 21 0</text>
<text text-anchor="start" x="40.5" y="-463" font-family="Courier,monospace" font-size="10.00">##load&#45;integer 22 100</text>
<text text-anchor="start" x="40.5" y="-451" font-family="Courier,monospace" font-size="10.00">##load&#45;integer 23 0</text>
<text text-anchor="start" x="40.5" y="-439" font-family="Courier,monospace" font-size="10.00">##copy 24 22 any&#45;rep</text>
<text text-anchor="start" x="40.5" y="-427" font-family="Courier,monospace" font-size="10.00">##copy 25 21 any&#45;rep</text>
<text text-anchor="start" x="40.5" y="-415" font-family="Courier,monospace" font-size="10.00">##copy 26 24 any&#45;rep</text>
<text text-anchor="start" x="40.5" y="-403" font-family="Courier,monospace" font-size="10.00">##copy 27 23 any&#45;rep</text>
<text text-anchor="start" x="40.5" y="-391" font-family="Courier,monospace" font-size="10.00">##branch</text>
</g>
<!-- 0&#45;&gt;1 -->
<g id="edge1" class="edge"><title>0&#45;&gt;1</title>
<path fill="none" stroke="black" d="M104,-547.907C104,-540.393 104,-531.528 104,-522.232"/>
<polygon fill="black" stroke="black" points="107.5,-522.02 104,-512.02 100.5,-522.02 107.5,-522.02"/>
</g>
<!-- 2 -->
<g id="node3" class="node"><title>2</title>
<polygon fill="none" stroke="black" points="208,-348 5.91818e-14,-348 1.67505e-14,-244 208,-244 208,-348"/>
<text text-anchor="middle" x="104" y="-335" font-family="Courier,monospace" font-size="10.00">2</text>
<text text-anchor="start" x="7.5" y="-323" font-family="Courier,monospace" font-size="10.00">##phi 29 H{ { 1 25 } { 3 41 } }</text>
<text text-anchor="start" x="7.5" y="-311" font-family="Courier,monospace" font-size="10.00">##phi 30 H{ { 1 27 } { 3 42 } }</text>
<text text-anchor="start" x="7.5" y="-299" font-family="Courier,monospace" font-size="10.00">##compare&#45;integer 31 30 26 cc&lt; 9</text>
<text text-anchor="start" x="7.5" y="-287" font-family="Courier,monospace" font-size="10.00">##copy 32 31 any&#45;rep</text>
<text text-anchor="start" x="7.5" y="-275" font-family="Courier,monospace" font-size="10.00">##copy 33 26 any&#45;rep</text>
<text text-anchor="start" x="7.5" y="-263" font-family="Courier,monospace" font-size="10.00">##copy 34 31 any&#45;rep</text>
<text text-anchor="start" x="7.5" y="-251" font-family="Courier,monospace" font-size="10.00">##compare&#45;imm&#45;branch 32 f cc/=</text>
</g>
<!-- 1&#45;&gt;2 -->
<g id="edge2" class="edge"><title>1&#45;&gt;2</title>
<path fill="none" stroke="black" d="M104,-383.979C104,-375.557 104,-366.935 104,-358.538"/>
<polygon fill="black" stroke="black" points="107.5,-358.438 104,-348.438 100.5,-358.438 107.5,-358.438"/>
</g>
<!-- 3 -->
<g id="node4" class="node"><title>3</title>
<polygon fill="none" stroke="black" points="172,-208 36,-208 36,-80 172,-80 172,-208"/>
<text text-anchor="middle" x="104" y="-195" font-family="Courier,monospace" font-size="10.00">3</text>
<text text-anchor="start" x="43.5" y="-183" font-family="Courier,monospace" font-size="10.00">##load&#45;integer 35 1</text>
<text text-anchor="start" x="43.5" y="-171" font-family="Courier,monospace" font-size="10.00">##add 36 29 35</text>
<text text-anchor="start" x="43.5" y="-159" font-family="Courier,monospace" font-size="10.00">##load&#45;integer 37 1</text>
<text text-anchor="start" x="43.5" y="-147" font-family="Courier,monospace" font-size="10.00">##add 38 30 37</text>
<text text-anchor="start" x="43.5" y="-135" font-family="Courier,monospace" font-size="10.00">##copy 39 30 any&#45;rep</text>
<text text-anchor="start" x="43.5" y="-123" font-family="Courier,monospace" font-size="10.00">##copy 40 26 any&#45;rep</text>
<text text-anchor="start" x="43.5" y="-111" font-family="Courier,monospace" font-size="10.00">##copy 41 36 any&#45;rep</text>
<text text-anchor="start" x="43.5" y="-99" font-family="Courier,monospace" font-size="10.00">##copy 42 38 any&#45;rep</text>
<text text-anchor="start" x="43.5" y="-87" font-family="Courier,monospace" font-size="10.00">##branch</text>
</g>
<!-- 2&#45;&gt;3 -->
<g id="edge3" class="edge"><title>2&#45;&gt;3</title>
<path fill="none" stroke="black" d="M97.5503,-243.69C97.3357,-235.481 97.2361,-226.862 97.2515,-218.273"/>
<polygon fill="black" stroke="black" points="100.752,-218.254 97.3225,-208.229 93.7518,-218.204 100.752,-218.254"/>
</g>
<!-- 4 -->
<g id="node5" class="node"><title>4</title>
<polygon fill="none" stroke="black" points="302,-172 190,-172 190,-116 302,-116 302,-172"/>
<text text-anchor="middle" x="246" y="-159" font-family="Courier,monospace" font-size="10.00">4</text>
<text text-anchor="start" x="197.5" y="-147" font-family="Courier,monospace" font-size="10.00">##inc&#45;d &#45;2</text>
<text text-anchor="start" x="197.5" y="-135" font-family="Courier,monospace" font-size="10.00">##replace 29 D 0</text>
<text text-anchor="start" x="197.5" y="-123" font-family="Courier,monospace" font-size="10.00">##branch</text>
</g>
<!-- 2&#45;&gt;4 -->
<g id="edge4" class="edge"><title>2&#45;&gt;4</title>
<path fill="none" stroke="black" d="M152.868,-243.69C172.699,-222.463 195.089,-198.496 212.945,-179.382"/>
<polygon fill="black" stroke="black" points="215.531,-181.742 219.8,-172.045 210.416,-176.963 215.531,-181.742"/>
</g>
<!-- 3&#45;&gt;2 -->
<g id="edge5" class="edge"><title>3&#45;&gt;2</title>
<path fill="none" stroke="black" d="M110.678,-208.229C110.782,-216.636 110.774,-225.24 110.653,-233.615"/>
<polygon fill="black" stroke="black" points="107.152,-233.622 110.45,-243.69 114.151,-233.763 107.152,-233.622"/>
</g>
<!-- 5 -->
<g id="node6" class="node"><title>5</title>
<polygon fill="grey" stroke="grey" points="284,-44 208,-44 208,-1.42109e-14 284,-0 284,-44"/>
<text text-anchor="middle" x="246" y="-31" font-family="Courier,monospace" font-size="10.00">5</text>
<text text-anchor="start" x="215.5" y="-19" font-family="Courier,monospace" font-size="10.00">##epilogue</text>
<text text-anchor="start" x="215.5" y="-7" font-family="Courier,monospace" font-size="10.00">##return</text>
</g>
<!-- 4&#45;&gt;5 -->
<g id="edge6" class="edge"><title>4&#45;&gt;5</title>
<path fill="none" stroke="black" d="M246,-115.704C246,-97.2925 246,-73.2375 246,-54.1101"/>
<polygon fill="black" stroke="black" points="249.5,-54.0579 246,-44.0579 242.5,-54.058 249.5,-54.0579"/>
</g>
<!-- gvns -->
<g id="node7" class="node"><title>gvns</title>
<text text-anchor="start" x="34.5" y="-753" font-family="Courier,monospace" font-size="10.00">21 &#45;&gt; &lt;21&gt; (0)</text>
<text text-anchor="start" x="34.5" y="-741" font-family="Courier,monospace" font-size="10.00">22 &#45;&gt; &lt;22&gt; (100)</text>
<text text-anchor="start" x="34.5" y="-729" font-family="Courier,monospace" font-size="10.00">23 &#45;&gt; &lt;21&gt;</text>
<text text-anchor="start" x="34.5" y="-717" font-family="Courier,monospace" font-size="10.00">24 &#45;&gt; &lt;22&gt;</text>
<text text-anchor="start" x="34.5" y="-705" font-family="Courier,monospace" font-size="10.00">25 &#45;&gt; &lt;21&gt;</text>
<text text-anchor="start" x="34.5" y="-693" font-family="Courier,monospace" font-size="10.00">26 &#45;&gt; &lt;22&gt;</text>
<text text-anchor="start" x="34.5" y="-681" font-family="Courier,monospace" font-size="10.00">27 &#45;&gt; &lt;21&gt;</text>
<text text-anchor="start" x="34.5" y="-647" font-family="Courier,monospace" font-size="10.00">&lt;21&gt; : {21, 23, 25, 27}</text>
<text text-anchor="start" x="34.5" y="-635" font-family="Courier,monospace" font-size="10.00">&lt;22&gt; : {22, 24, 26}</text>
</g>
<!-- gvns&#45;&gt;0 -->
</g>
</svg>
