<?xml version="1.0" encoding="UTF-8" standalone="no"?>
<!DOCTYPE svg PUBLIC "-//W3C//DTD SVG 1.1//EN"
 "http://www.w3.org/Graphics/SVG/1.1/DTD/svg11.dtd">
<!-- Generated by graphviz version 2.26.3 (20100126.1600)
 -->
<!-- Title: _anonymous_12 Pages: 1 -->
<svg width="319pt" height="966pt"
 viewBox="0.00 0.00 319.00 966.00" xmlns="http://www.w3.org/2000/svg" xmlns:xlink="http://www.w3.org/1999/xlink">
<g id="graph1" class="graph" transform="scale(1 1) rotate(0) translate(4 962)">
<title>_anonymous_12</title>
<polygon fill="white" stroke="white" points="-4,5 -4,-962 316,-962 316,5 -4,5"/>
<!-- 0 -->
<g id="node1" class="node"><title>0</title>
<polygon fill="grey" stroke="grey" points="151,-592 75,-592 75,-548 151,-548 151,-592"/>
<text text-anchor="middle" x="113" y="-579" font-family="Courier,monospace" font-size="10.00">0</text>
<text text-anchor="start" x="82.5" y="-567" font-family="Courier,monospace" font-size="10.00">##prologue</text>
<text text-anchor="start" x="82.5" y="-555" font-family="Courier,monospace" font-size="10.00">##branch</text>
</g>
<!-- 1 -->
<g id="node2" class="node"><title>1</title>
<polygon fill="none" stroke="black" points="184,-512 42,-512 42,-384 184,-384 184,-512"/>
<text text-anchor="middle" x="113" y="-499" font-family="Courier,monospace" font-size="10.00">1</text>
<text text-anchor="start" x="49.5" y="-487" font-family="Courier,monospace" font-size="10.00">##inc&#45;d 3</text>
<text text-anchor="start" x="49.5" y="-475" font-family="Courier,monospace" font-size="10.00">##load&#45;integer 21 0</text>
<text text-anchor="start" x="49.5" y="-463" font-family="Courier,monospace" font-size="10.00">##load&#45;integer 22 100</text>
<text text-anchor="start" x="49.5" y="-451" font-family="Courier,monospace" font-size="10.00">##load&#45;integer 23 0</text>
<text text-anchor="start" x="49.5" y="-439" font-family="Courier,monospace" font-size="10.00">##copy 24 22 any&#45;rep</text>
<text text-anchor="start" x="49.5" y="-427" font-family="Courier,monospace" font-size="10.00">##copy 25 21 any&#45;rep</text>
<text text-anchor="start" x="49.5" y="-415" font-family="Courier,monospace" font-size="10.00">##copy 26 24 any&#45;rep</text>
<text text-anchor="start" x="49.5" y="-403" font-family="Courier,monospace" font-size="10.00">##copy 27 23 any&#45;rep</text>
<text text-anchor="start" x="49.5" y="-391" font-family="Courier,monospace" font-size="10.00">##branch</text>
</g>
<!-- 0&#45;&gt;1 -->
<g id="edge1" class="edge"><title>0&#45;&gt;1</title>
<path fill="none" stroke="black" d="M113,-547.907C113,-540.393 113,-531.528 113,-522.232"/>
<polygon fill="black" stroke="black" points="116.5,-522.02 113,-512.02 109.5,-522.02 116.5,-522.02"/>
</g>
<!-- 2 -->
<g id="node3" class="node"><title>2</title>
<polygon fill="none" stroke="black" points="217,-348 9,-348 9,-244 217,-244 217,-348"/>
<text text-anchor="middle" x="113" y="-335" font-family="Courier,monospace" font-size="10.00">2</text>
<text text-anchor="start" x="16.5" y="-323" font-family="Courier,monospace" font-size="10.00">##phi 29 H{ { 1 25 } { 3 41 } }</text>
<text text-anchor="start" x="16.5" y="-311" font-family="Courier,monospace" font-size="10.00">##phi 30 H{ { 1 27 } { 3 42 } }</text>
<text text-anchor="start" x="16.5" y="-299" font-family="Courier,monospace" font-size="10.00">##compare&#45;integer 31 30 26 cc&lt; 9</text>
<text text-anchor="start" x="16.5" y="-287" font-family="Courier,monospace" font-size="10.00">##copy 32 31 any&#45;rep</text>
<text text-anchor="start" x="16.5" y="-275" font-family="Courier,monospace" font-size="10.00">##copy 33 26 any&#45;rep</text>
<text text-anchor="start" x="16.5" y="-263" font-family="Courier,monospace" font-size="10.00">##copy 34 31 any&#45;rep</text>
<text text-anchor="start" x="16.5" y="-251" font-family="Courier,monospace" font-size="10.00">##compare&#45;imm&#45;branch 32 f cc/=</text>
</g>
<!-- 1&#45;&gt;2 -->
<g id="edge2" class="edge"><title>1&#45;&gt;2</title>
<path fill="none" stroke="black" d="M113,-383.979C113,-375.557 113,-366.935 113,-358.538"/>
<polygon fill="black" stroke="black" points="116.5,-358.438 113,-348.438 109.5,-358.438 116.5,-358.438"/>
</g>
<!-- 3 -->
<g id="node4" class="node"><title>3</title>
<polygon fill="none" stroke="black" points="181,-208 45,-208 45,-80 181,-80 181,-208"/>
<text text-anchor="middle" x="113" y="-195" font-family="Courier,monospace" font-size="10.00">3</text>
<text text-anchor="start" x="52.5" y="-183" font-family="Courier,monospace" font-size="10.00">##load&#45;integer 35 1</text>
<text text-anchor="start" x="52.5" y="-171" font-family="Courier,monospace" font-size="10.00">##add 36 29 35</text>
<text text-anchor="start" x="52.5" y="-159" font-family="Courier,monospace" font-size="10.00">##load&#45;integer 37 1</text>
<text text-anchor="start" x="52.5" y="-147" font-family="Courier,monospace" font-size="10.00">##add 38 30 37</text>
<text text-anchor="start" x="52.5" y="-135" font-family="Courier,monospace" font-size="10.00">##copy 39 30 any&#45;rep</text>
<text text-anchor="start" x="52.5" y="-123" font-family="Courier,monospace" font-size="10.00">##copy 40 26 any&#45;rep</text>
<text text-anchor="start" x="52.5" y="-111" font-family="Courier,monospace" font-size="10.00">##copy 41 36 any&#45;rep</text>
<text text-anchor="start" x="52.5" y="-99" font-family="Courier,monospace" font-size="10.00">##copy 42 38 any&#45;rep</text>
<text text-anchor="start" x="52.5" y="-87" font-family="Courier,monospace" font-size="10.00">##branch</text>
</g>
<!-- 2&#45;&gt;3 -->
<g id="edge3" class="edge"><title>2&#45;&gt;3</title>
<path fill="none" stroke="black" d="M106.55,-243.69C106.336,-235.481 106.236,-226.862 106.252,-218.273"/>
<polygon fill="black" stroke="black" points="109.752,-218.254 106.322,-208.229 102.752,-218.204 109.752,-218.254"/>
</g>
<!-- 4 -->
<g id="node5" class="node"><title>4</title>
<polygon fill="none" stroke="black" stroke-width="2" points="311,-172 199,-172 199,-116 311,-116 311,-172"/>
<text text-anchor="middle" x="255" y="-159" font-family="Courier,monospace" font-size="10.00">4</text>
<text text-anchor="start" x="206.5" y="-147" font-family="Courier,monospace" font-size="10.00">##inc&#45;d &#45;2</text>
<text text-anchor="start" x="206.5" y="-135" font-family="Courier,monospace" font-size="10.00">##replace 29 D 0</text>
<text text-anchor="start" x="206.5" y="-123" font-family="Courier,monospace" font-size="10.00">##branch</text>
</g>
<!-- 2&#45;&gt;4 -->
<g id="edge4" class="edge"><title>2&#45;&gt;4</title>
<path fill="none" stroke="black" d="M161.868,-243.69C181.699,-222.463 204.089,-198.496 221.945,-179.382"/>
<polygon fill="black" stroke="black" points="224.531,-181.742 228.8,-172.045 219.416,-176.963 224.531,-181.742"/>
</g>
<!-- 3&#45;&gt;2 -->
<g id="edge5" class="edge"><title>3&#45;&gt;2</title>
<path fill="none" stroke="black" d="M119.678,-208.229C119.782,-216.636 119.774,-225.24 119.653,-233.615"/>
<polygon fill="black" stroke="black" points="116.152,-233.622 119.45,-243.69 123.151,-233.763 116.152,-233.622"/>
</g>
<!-- 5 -->
<g id="node6" class="node"><title>5</title>
<polygon fill="grey" stroke="grey" points="293,-44 217,-44 217,-1.42109e-14 293,-0 293,-44"/>
<text text-anchor="middle" x="255" y="-31" font-family="Courier,monospace" font-size="10.00">5</text>
<text text-anchor="start" x="224.5" y="-19" font-family="Courier,monospace" font-size="10.00">##epilogue</text>
<text text-anchor="start" x="224.5" y="-7" font-family="Courier,monospace" font-size="10.00">##return</text>
</g>
<!-- 4&#45;&gt;5 -->
<g id="edge6" class="edge"><title>4&#45;&gt;5</title>
<path fill="none" stroke="black" d="M255,-115.704C255,-97.2925 255,-73.2375 255,-54.1101"/>
<polygon fill="black" stroke="black" points="258.5,-54.0579 255,-44.0579 251.5,-54.058 258.5,-54.0579"/>
</g>
<!-- gvns -->
<g id="node7" class="node"><title>gvns</title>
<text text-anchor="start" x="7.5" y="-945" font-family="Courier,monospace" font-size="10.00">21 &#45;&gt; &lt;21&gt; (0)</text>
<text text-anchor="start" x="7.5" y="-933" font-family="Courier,monospace" font-size="10.00">22 &#45;&gt; &lt;22&gt; (100)</text>
<text text-anchor="start" x="7.5" y="-921" font-family="Courier,monospace" font-size="10.00">23 &#45;&gt; &lt;21&gt;</text>
<text text-anchor="start" x="7.5" y="-909" font-family="Courier,monospace" font-size="10.00">24 &#45;&gt; &lt;22&gt;</text>
<text text-anchor="start" x="7.5" y="-897" font-family="Courier,monospace" font-size="10.00">25 &#45;&gt; &lt;21&gt;</text>
<text text-anchor="start" x="7.5" y="-885" font-family="Courier,monospace" font-size="10.00">26 &#45;&gt; &lt;22&gt;</text>
<text text-anchor="start" x="7.5" y="-873" font-family="Courier,monospace" font-size="10.00">27 &#45;&gt; &lt;21&gt;</text>
<text text-anchor="start" x="7.5" y="-861" font-family="Courier,monospace" font-size="10.00">29 &#45;&gt; &lt;21&gt;</text>
<text text-anchor="start" x="7.5" y="-849" font-family="Courier,monospace" font-size="10.00">30 &#45;&gt; &lt;21&gt;</text>
<text text-anchor="start" x="7.5" y="-837" font-family="Courier,monospace" font-size="10.00">31 &#45;&gt; &lt;31&gt; (t)</text>
<text text-anchor="start" x="7.5" y="-825" font-family="Courier,monospace" font-size="10.00">32 &#45;&gt; &lt;31&gt;</text>
<text text-anchor="start" x="7.5" y="-813" font-family="Courier,monospace" font-size="10.00">33 &#45;&gt; &lt;22&gt;</text>
<text text-anchor="start" x="7.5" y="-801" font-family="Courier,monospace" font-size="10.00">34 &#45;&gt; &lt;31&gt;</text>
<text text-anchor="start" x="7.5" y="-789" font-family="Courier,monospace" font-size="10.00">35 &#45;&gt; &lt;35&gt; (1)</text>
<text text-anchor="start" x="7.5" y="-777" font-family="Courier,monospace" font-size="10.00">36 &#45;&gt; &lt;35&gt;</text>
<text text-anchor="start" x="7.5" y="-765" font-family="Courier,monospace" font-size="10.00">37 &#45;&gt; &lt;35&gt;</text>
<text text-anchor="start" x="7.5" y="-753" font-family="Courier,monospace" font-size="10.00">38 &#45;&gt; &lt;35&gt;</text>
<text text-anchor="start" x="7.5" y="-741" font-family="Courier,monospace" font-size="10.00">39 &#45;&gt; &lt;21&gt;</text>
<text text-anchor="start" x="7.5" y="-729" font-family="Courier,monospace" font-size="10.00">40 &#45;&gt; &lt;22&gt;</text>
<text text-anchor="start" x="7.5" y="-717" font-family="Courier,monospace" font-size="10.00">41 &#45;&gt; &lt;35&gt;</text>
<text text-anchor="start" x="7.5" y="-705" font-family="Courier,monospace" font-size="10.00">42 &#45;&gt; &lt;35&gt;</text>
<text text-anchor="start" x="7.5" y="-671" font-family="Courier,monospace" font-size="10.00">&lt;21&gt; : {21, 23, 25, 27, 29, 30, 39}</text>
<text text-anchor="start" x="7.5" y="-659" font-family="Courier,monospace" font-size="10.00">&lt;22&gt; : {22, 24, 26, 33, 40}</text>
<text text-anchor="start" x="7.5" y="-647" font-family="Courier,monospace" font-size="10.00">&lt;31&gt; : {31, 32, 34}</text>
<text text-anchor="start" x="7.5" y="-635" font-family="Courier,monospace" font-size="10.00">&lt;35&gt; : {35, 36, 37, 38, 41, 42}</text>
</g>
<!-- gvns&#45;&gt;0 -->
</g>
</svg>
