<?xml version="1.0" encoding="UTF-8" standalone="no"?>
<!DOCTYPE svg PUBLIC "-//W3C//DTD SVG 1.1//EN"
 "http://www.w3.org/Graphics/SVG/1.1/DTD/svg11.dtd">
<!-- Generated by graphviz version 2.26.3 (20100126.1600)
 -->
<!-- Title: _anonymous_17 Pages: 1 -->
<svg width="313pt" height="716pt"
 viewBox="0.00 0.00 313.00 716.00" xmlns="http://www.w3.org/2000/svg" xmlns:xlink="http://www.w3.org/1999/xlink">
<g id="graph1" class="graph" transform="scale(1 1) rotate(0) translate(4 712)">
<title>_anonymous_17</title>
<polygon fill="white" stroke="white" points="-4,5 -4,-712 310,-712 310,5 -4,5"/>
<!-- 0 -->
<g id="node1" class="node"><title>0</title>
<polygon fill="none" stroke="black" points="145,-592 69,-592 69,-548 145,-548 145,-592"/>
<text text-anchor="middle" x="107" y="-579" font-family="Courier,monospace" font-size="10.00">0</text>
<text text-anchor="start" x="76.5" y="-567" font-family="Courier,monospace" font-size="10.00">##prologue</text>
<text text-anchor="start" x="76.5" y="-555" font-family="Courier,monospace" font-size="10.00">##branch</text>
</g>
<!-- 1 -->
<g id="node2" class="node"><title>1</title>
<polygon fill="none" stroke="black" stroke-width="2" points="178,-512 36,-512 36,-384 178,-384 178,-512"/>
<text text-anchor="middle" x="107" y="-499" font-family="Courier,monospace" font-size="10.00">1</text>
<text text-anchor="start" x="43.5" y="-487" font-family="Courier,monospace" font-size="10.00">##inc&#45;d 3</text>
<text text-anchor="start" x="43.5" y="-475" font-family="Courier,monospace" font-size="10.00">##load&#45;integer 21 0</text>
<text text-anchor="start" x="43.5" y="-463" font-family="Courier,monospace" font-size="10.00">##load&#45;integer 22 100</text>
<text text-anchor="start" x="43.5" y="-451" font-family="Courier,monospace" font-size="10.00">##load&#45;integer 23 0</text>
<text text-anchor="start" x="43.5" y="-439" font-family="Courier,monospace" font-size="10.00">##copy 24 22 any&#45;rep</text>
<text text-anchor="start" x="43.5" y="-427" font-family="Courier,monospace" font-size="10.00">##copy 25 21 any&#45;rep</text>
<text text-anchor="start" x="43.5" y="-415" font-family="Courier,monospace" font-size="10.00">##copy 26 24 any&#45;rep</text>
<text text-anchor="start" x="43.5" y="-403" font-family="Courier,monospace" font-size="10.00">##copy 27 23 any&#45;rep</text>
<text text-anchor="start" x="43.5" y="-391" font-family="Courier,monospace" font-size="10.00">##branch</text>
</g>
<!-- 0&#45;&gt;1 -->
<g id="edge1" class="edge"><title>0&#45;&gt;1</title>
<path fill="none" stroke="black" d="M107,-547.907C107,-540.393 107,-531.528 107,-522.232"/>
<polygon fill="black" stroke="black" points="110.5,-522.02 107,-512.02 103.5,-522.02 110.5,-522.02"/>
</g>
<!-- 2 -->
<g id="node3" class="node"><title>2</title>
<polygon fill="none" stroke="black" points="211,-348 3,-348 3,-244 211,-244 211,-348"/>
<text text-anchor="middle" x="107" y="-335" font-family="Courier,monospace" font-size="10.00">2</text>
<text text-anchor="start" x="10.5" y="-323" font-family="Courier,monospace" font-size="10.00">##phi 29 H{ { 1 25 } { 3 41 } }</text>
<text text-anchor="start" x="10.5" y="-311" font-family="Courier,monospace" font-size="10.00">##phi 30 H{ { 1 27 } { 3 42 } }</text>
<text text-anchor="start" x="10.5" y="-299" font-family="Courier,monospace" font-size="10.00">##compare&#45;integer 31 30 26 cc&lt; 9</text>
<text text-anchor="start" x="10.5" y="-287" font-family="Courier,monospace" font-size="10.00">##copy 32 31 any&#45;rep</text>
<text text-anchor="start" x="10.5" y="-275" font-family="Courier,monospace" font-size="10.00">##copy 33 26 any&#45;rep</text>
<text text-anchor="start" x="10.5" y="-263" font-family="Courier,monospace" font-size="10.00">##copy 34 31 any&#45;rep</text>
<text text-anchor="start" x="10.5" y="-251" font-family="Courier,monospace" font-size="10.00">##compare&#45;imm&#45;branch 32 f cc/=</text>
</g>
<!-- 1&#45;&gt;2 -->
<g id="edge2" class="edge"><title>1&#45;&gt;2</title>
<path fill="none" stroke="black" d="M107,-383.979C107,-375.557 107,-366.935 107,-358.538"/>
<polygon fill="black" stroke="black" points="110.5,-358.438 107,-348.438 103.5,-358.438 110.5,-358.438"/>
</g>
<!-- 3 -->
<g id="node4" class="node"><title>3</title>
<polygon fill="none" stroke="black" points="175,-208 39,-208 39,-80 175,-80 175,-208"/>
<text text-anchor="middle" x="107" y="-195" font-family="Courier,monospace" font-size="10.00">3</text>
<text text-anchor="start" x="46.5" y="-183" font-family="Courier,monospace" font-size="10.00">##load&#45;integer 35 1</text>
<text text-anchor="start" x="46.5" y="-171" font-family="Courier,monospace" font-size="10.00">##add 36 29 35</text>
<text text-anchor="start" x="46.5" y="-159" font-family="Courier,monospace" font-size="10.00">##load&#45;integer 37 1</text>
<text text-anchor="start" x="46.5" y="-147" font-family="Courier,monospace" font-size="10.00">##add 38 30 37</text>
<text text-anchor="start" x="46.5" y="-135" font-family="Courier,monospace" font-size="10.00">##copy 39 30 any&#45;rep</text>
<text text-anchor="start" x="46.5" y="-123" font-family="Courier,monospace" font-size="10.00">##copy 40 26 any&#45;rep</text>
<text text-anchor="start" x="46.5" y="-111" font-family="Courier,monospace" font-size="10.00">##copy 41 36 any&#45;rep</text>
<text text-anchor="start" x="46.5" y="-99" font-family="Courier,monospace" font-size="10.00">##copy 42 38 any&#45;rep</text>
<text text-anchor="start" x="46.5" y="-87" font-family="Courier,monospace" font-size="10.00">##branch</text>
</g>
<!-- 2&#45;&gt;3 -->
<g id="edge3" class="edge"><title>2&#45;&gt;3</title>
<path fill="none" stroke="black" d="M100.55,-243.69C100.336,-235.481 100.236,-226.862 100.252,-218.273"/>
<polygon fill="black" stroke="black" points="103.752,-218.254 100.322,-208.229 96.7518,-218.204 103.752,-218.254"/>
</g>
<!-- 4 -->
<g id="node5" class="node"><title>4</title>
<polygon fill="none" stroke="black" points="305,-172 193,-172 193,-116 305,-116 305,-172"/>
<text text-anchor="middle" x="249" y="-159" font-family="Courier,monospace" font-size="10.00">4</text>
<text text-anchor="start" x="200.5" y="-147" font-family="Courier,monospace" font-size="10.00">##inc&#45;d &#45;2</text>
<text text-anchor="start" x="200.5" y="-135" font-family="Courier,monospace" font-size="10.00">##replace 29 D 0</text>
<text text-anchor="start" x="200.5" y="-123" font-family="Courier,monospace" font-size="10.00">##branch</text>
</g>
<!-- 2&#45;&gt;4 -->
<g id="edge4" class="edge"><title>2&#45;&gt;4</title>
<path fill="none" stroke="black" d="M155.868,-243.69C175.699,-222.463 198.089,-198.496 215.945,-179.382"/>
<polygon fill="black" stroke="black" points="218.531,-181.742 222.8,-172.045 213.416,-176.963 218.531,-181.742"/>
</g>
<!-- 3&#45;&gt;2 -->
<g id="edge5" class="edge"><title>3&#45;&gt;2</title>
<path fill="none" stroke="black" d="M113.678,-208.229C113.782,-216.636 113.774,-225.24 113.653,-233.615"/>
<polygon fill="black" stroke="black" points="110.152,-233.622 113.45,-243.69 117.151,-233.763 110.152,-233.622"/>
</g>
<!-- 5 -->
<g id="node6" class="node"><title>5</title>
<polygon fill="none" stroke="black" points="287,-44 211,-44 211,-1.42109e-14 287,-0 287,-44"/>
<text text-anchor="middle" x="249" y="-31" font-family="Courier,monospace" font-size="10.00">5</text>
<text text-anchor="start" x="218.5" y="-19" font-family="Courier,monospace" font-size="10.00">##epilogue</text>
<text text-anchor="start" x="218.5" y="-7" font-family="Courier,monospace" font-size="10.00">##return</text>
</g>
<!-- 4&#45;&gt;5 -->
<g id="edge6" class="edge"><title>4&#45;&gt;5</title>
<path fill="none" stroke="black" d="M249,-115.704C249,-97.2925 249,-73.2375 249,-54.1101"/>
<polygon fill="black" stroke="black" points="252.5,-54.0579 249,-44.0579 245.5,-54.058 252.5,-54.0579"/>
</g>
<!-- gvns -->
<g id="node7" class="node"><title>gvns</title>
<text text-anchor="start" x="7.5" y="-695" font-family="Courier,monospace" font-size="10.00">&lt;21&gt; : {21, 23, 25, 27} (0)</text>
<text text-anchor="start" x="7.5" y="-683" font-family="Courier,monospace" font-size="10.00">&lt;22&gt; : {22, 24, 26, 33, 40} (100)</text>
<text text-anchor="start" x="7.5" y="-671" font-family="Courier,monospace" font-size="10.00">&lt;29&gt; : {29, 30, 39} ()</text>
<text text-anchor="start" x="7.5" y="-659" font-family="Courier,monospace" font-size="10.00">&lt;31&gt; : {31, 32, 34} ()</text>
<text text-anchor="start" x="7.5" y="-647" font-family="Courier,monospace" font-size="10.00">&lt;35&gt; : {35, 37} ()</text>
<text text-anchor="start" x="7.5" y="-635" font-family="Courier,monospace" font-size="10.00">&lt;36&gt; : {36, 38, 41, 42} ()</text>
</g>
<!-- gvns&#45;&gt;0 -->
</g>
</svg>
