<?xml version="1.0" encoding="UTF-8" standalone="no"?>
<!DOCTYPE svg PUBLIC "-//W3C//DTD SVG 1.1//EN"
 "http://www.w3.org/Graphics/SVG/1.1/DTD/svg11.dtd">
<!-- Generated by graphviz version 2.26.3 (20100126.1600)
 -->
<!-- Title: _anonymous_20 Pages: 1 -->
<svg width="376pt" height="716pt"
 viewBox="0.00 0.00 376.00 716.00" xmlns="http://www.w3.org/2000/svg" xmlns:xlink="http://www.w3.org/1999/xlink">
<g id="graph1" class="graph" transform="scale(1 1) rotate(0) translate(4 712)">
<title>_anonymous_20</title>
<polygon fill="white" stroke="white" points="-4,5 -4,-712 373,-712 373,5 -4,5"/>
<!-- 0 -->
<g id="node1" class="node"><title>0</title>
<polygon fill="none" stroke="black" points="208,-592 132,-592 132,-548 208,-548 208,-592"/>
<text text-anchor="middle" x="170" y="-579" font-family="Courier,monospace" font-size="10.00">0</text>
<text text-anchor="start" x="139.5" y="-567" font-family="Courier,monospace" font-size="10.00">##prologue</text>
<text text-anchor="start" x="139.5" y="-555" font-family="Courier,monospace" font-size="10.00">##branch</text>
</g>
<!-- 1 -->
<g id="node2" class="node"><title>1</title>
<polygon fill="none" stroke="black" points="241,-512 99,-512 99,-384 241,-384 241,-512"/>
<text text-anchor="middle" x="170" y="-499" font-family="Courier,monospace" font-size="10.00">1</text>
<text text-anchor="start" x="106.5" y="-487" font-family="Courier,monospace" font-size="10.00">##inc&#45;d 3</text>
<text text-anchor="start" x="106.5" y="-475" font-family="Courier,monospace" font-size="10.00">##load&#45;integer 21 0</text>
<text text-anchor="start" x="106.5" y="-463" font-family="Courier,monospace" font-size="10.00">##load&#45;integer 22 100</text>
<text text-anchor="start" x="106.5" y="-451" font-family="Courier,monospace" font-size="10.00">##load&#45;integer 23 0</text>
<text text-anchor="start" x="106.5" y="-439" font-family="Courier,monospace" font-size="10.00">##copy 24 22 any&#45;rep</text>
<text text-anchor="start" x="106.5" y="-427" font-family="Courier,monospace" font-size="10.00">##copy 25 21 any&#45;rep</text>
<text text-anchor="start" x="106.5" y="-415" font-family="Courier,monospace" font-size="10.00">##copy 26 24 any&#45;rep</text>
<text text-anchor="start" x="106.5" y="-403" font-family="Courier,monospace" font-size="10.00">##copy 27 23 any&#45;rep</text>
<text text-anchor="start" x="106.5" y="-391" font-family="Courier,monospace" font-size="10.00">##branch</text>
</g>
<!-- 0&#45;&gt;1 -->
<g id="edge1" class="edge"><title>0&#45;&gt;1</title>
<path fill="none" stroke="black" d="M170,-547.907C170,-540.393 170,-531.528 170,-522.232"/>
<polygon fill="black" stroke="black" points="173.5,-522.02 170,-512.02 166.5,-522.02 173.5,-522.02"/>
</g>
<!-- 2 -->
<g id="node3" class="node"><title>2</title>
<polygon fill="none" stroke="black" points="274,-348 66,-348 66,-244 274,-244 274,-348"/>
<text text-anchor="middle" x="170" y="-335" font-family="Courier,monospace" font-size="10.00">2</text>
<text text-anchor="start" x="73.5" y="-323" font-family="Courier,monospace" font-size="10.00">##phi 29 H{ { 1 25 } { 3 41 } }</text>
<text text-anchor="start" x="73.5" y="-311" font-family="Courier,monospace" font-size="10.00">##phi 30 H{ { 1 27 } { 3 42 } }</text>
<text text-anchor="start" x="73.5" y="-299" font-family="Courier,monospace" font-size="10.00">##compare&#45;integer 31 30 26 cc&lt; 9</text>
<text text-anchor="start" x="73.5" y="-287" font-family="Courier,monospace" font-size="10.00">##copy 32 31 any&#45;rep</text>
<text text-anchor="start" x="73.5" y="-275" font-family="Courier,monospace" font-size="10.00">##copy 33 26 any&#45;rep</text>
<text text-anchor="start" x="73.5" y="-263" font-family="Courier,monospace" font-size="10.00">##copy 34 31 any&#45;rep</text>
<text text-anchor="start" x="73.5" y="-251" font-family="Courier,monospace" font-size="10.00">##compare&#45;imm&#45;branch 32 f cc/=</text>
</g>
<!-- 1&#45;&gt;2 -->
<g id="edge2" class="edge"><title>1&#45;&gt;2</title>
<path fill="none" stroke="black" d="M170,-383.979C170,-375.557 170,-366.935 170,-358.538"/>
<polygon fill="black" stroke="black" points="173.5,-358.438 170,-348.438 166.5,-358.438 173.5,-358.438"/>
</g>
<!-- 3 -->
<g id="node4" class="node"><title>3</title>
<polygon fill="none" stroke="black" points="238,-208 102,-208 102,-80 238,-80 238,-208"/>
<text text-anchor="middle" x="170" y="-195" font-family="Courier,monospace" font-size="10.00">3</text>
<text text-anchor="start" x="109.5" y="-183" font-family="Courier,monospace" font-size="10.00">##load&#45;integer 35 1</text>
<text text-anchor="start" x="109.5" y="-171" font-family="Courier,monospace" font-size="10.00">##add 36 29 35</text>
<text text-anchor="start" x="109.5" y="-159" font-family="Courier,monospace" font-size="10.00">##load&#45;integer 37 1</text>
<text text-anchor="start" x="109.5" y="-147" font-family="Courier,monospace" font-size="10.00">##add 38 30 37</text>
<text text-anchor="start" x="109.5" y="-135" font-family="Courier,monospace" font-size="10.00">##copy 39 30 any&#45;rep</text>
<text text-anchor="start" x="109.5" y="-123" font-family="Courier,monospace" font-size="10.00">##copy 40 26 any&#45;rep</text>
<text text-anchor="start" x="109.5" y="-111" font-family="Courier,monospace" font-size="10.00">##copy 41 36 any&#45;rep</text>
<text text-anchor="start" x="109.5" y="-99" font-family="Courier,monospace" font-size="10.00">##copy 42 38 any&#45;rep</text>
<text text-anchor="start" x="109.5" y="-87" font-family="Courier,monospace" font-size="10.00">##branch</text>
</g>
<!-- 2&#45;&gt;3 -->
<g id="edge3" class="edge"><title>2&#45;&gt;3</title>
<path fill="none" stroke="black" d="M163.55,-243.69C163.336,-235.481 163.236,-226.862 163.252,-218.273"/>
<polygon fill="black" stroke="black" points="166.752,-218.254 163.322,-208.229 159.752,-218.204 166.752,-218.254"/>
</g>
<!-- 4 -->
<g id="node5" class="node"><title>4</title>
<polygon fill="none" stroke="black" stroke-width="2" points="368,-172 256,-172 256,-116 368,-116 368,-172"/>
<text text-anchor="middle" x="312" y="-159" font-family="Courier,monospace" font-size="10.00">4</text>
<text text-anchor="start" x="263.5" y="-147" font-family="Courier,monospace" font-size="10.00">##inc&#45;d &#45;2</text>
<text text-anchor="start" x="263.5" y="-135" font-family="Courier,monospace" font-size="10.00">##replace 29 D 0</text>
<text text-anchor="start" x="263.5" y="-123" font-family="Courier,monospace" font-size="10.00">##branch</text>
</g>
<!-- 2&#45;&gt;4 -->
<g id="edge4" class="edge"><title>2&#45;&gt;4</title>
<path fill="none" stroke="black" d="M218.868,-243.69C238.699,-222.463 261.089,-198.496 278.945,-179.382"/>
<polygon fill="black" stroke="black" points="281.531,-181.742 285.8,-172.045 276.416,-176.963 281.531,-181.742"/>
</g>
<!-- 3&#45;&gt;2 -->
<g id="edge5" class="edge"><title>3&#45;&gt;2</title>
<path fill="none" stroke="black" d="M176.678,-208.229C176.782,-216.636 176.774,-225.24 176.653,-233.615"/>
<polygon fill="black" stroke="black" points="173.152,-233.622 176.45,-243.69 180.151,-233.763 173.152,-233.622"/>
</g>
<!-- 5 -->
<g id="node6" class="node"><title>5</title>
<polygon fill="none" stroke="black" points="350,-44 274,-44 274,-1.42109e-14 350,-0 350,-44"/>
<text text-anchor="middle" x="312" y="-31" font-family="Courier,monospace" font-size="10.00">5</text>
<text text-anchor="start" x="281.5" y="-19" font-family="Courier,monospace" font-size="10.00">##epilogue</text>
<text text-anchor="start" x="281.5" y="-7" font-family="Courier,monospace" font-size="10.00">##return</text>
</g>
<!-- 4&#45;&gt;5 -->
<g id="edge6" class="edge"><title>4&#45;&gt;5</title>
<path fill="none" stroke="black" d="M312,-115.704C312,-97.2925 312,-73.2375 312,-54.1101"/>
<polygon fill="black" stroke="black" points="315.5,-54.0579 312,-44.0579 308.5,-54.058 315.5,-54.0579"/>
</g>
<!-- gvns -->
<g id="node7" class="node"><title>gvns</title>
<text text-anchor="start" x="7.5" y="-695" font-family="Courier,monospace" font-size="10.00">&lt;21&gt; : {21, 23, 25, 27} (0)</text>
<text text-anchor="start" x="7.5" y="-683" font-family="Courier,monospace" font-size="10.00">&lt;22&gt; : {22, 24, 26, 33, 40} (100)</text>
<text text-anchor="start" x="7.5" y="-671" font-family="Courier,monospace" font-size="10.00">&lt;29&gt; : {29, 30, 39} (##phi 2 21 36)</text>
<text text-anchor="start" x="7.5" y="-659" font-family="Courier,monospace" font-size="10.00">&lt;31&gt; : {31, 32, 34} (##compare&#45;integer&#45;imm 29 100 cc&lt;)</text>
<text text-anchor="start" x="7.5" y="-647" font-family="Courier,monospace" font-size="10.00">&lt;35&gt; : {35, 37} (1)</text>
<text text-anchor="start" x="7.5" y="-635" font-family="Courier,monospace" font-size="10.00">&lt;36&gt; : {36, 38, 41, 42} (##add&#45;imm 29 1)</text>
</g>
<!-- gvns&#45;&gt;0 -->
</g>
</svg>
