<?xml version="1.0" encoding="UTF-8" standalone="no"?>
<!DOCTYPE svg PUBLIC "-//W3C//DTD SVG 1.1//EN"
 "http://www.w3.org/Graphics/SVG/1.1/DTD/svg11.dtd">
<!-- Generated by graphviz version 2.26.3 (20100126.1600)
 -->
<!-- Title: _anonymous_27 Pages: 1 -->
<svg width="274pt" height="704pt"
 viewBox="0.00 0.00 274.00 704.00" xmlns="http://www.w3.org/2000/svg" xmlns:xlink="http://www.w3.org/1999/xlink">
<g id="graph1" class="graph" transform="scale(1 1) rotate(0) translate(4 700)">
<title>_anonymous_27</title>
<polygon fill="white" stroke="white" points="-4,5 -4,-700 271,-700 271,5 -4,5"/>
<!-- 0 -->
<g id="node1" class="node"><title>0</title>
<polygon fill="none" stroke="black" points="171,-696 95,-696 95,-652 171,-652 171,-696"/>
<text text-anchor="middle" x="133" y="-683" font-family="Courier,monospace" font-size="10.00">0</text>
<text text-anchor="start" x="102.5" y="-671" font-family="Courier,monospace" font-size="10.00">##prologue</text>
<text text-anchor="start" x="102.5" y="-659" font-family="Courier,monospace" font-size="10.00">##branch</text>
</g>
<!-- 1 -->
<g id="node2" class="node"><title>1</title>
<polygon fill="none" stroke="black" points="177,-616 89,-616 89,-572 177,-572 177,-616"/>
<text text-anchor="middle" x="133" y="-603" font-family="Courier,monospace" font-size="10.00">1</text>
<text text-anchor="start" x="96.5" y="-591" font-family="Courier,monospace" font-size="10.00">##peek 1 D 0</text>
<text text-anchor="start" x="96.5" y="-579" font-family="Courier,monospace" font-size="10.00">##branch</text>
</g>
<!-- 0&#45;&gt;1 -->
<g id="edge1" class="edge"><title>0&#45;&gt;1</title>
<path fill="none" stroke="black" d="M133,-651.716C133,-643.827 133,-634.787 133,-626.238"/>
<polygon fill="black" stroke="black" points="136.5,-626.165 133,-616.165 129.5,-626.165 136.5,-626.165"/>
</g>
<!-- 2 -->
<g id="node3" class="node"><title>2</title>
<polygon fill="none" stroke="black" points="228,-536 38,-536 38,-480 228,-480 228,-536"/>
<text text-anchor="middle" x="133" y="-523" font-family="Courier,monospace" font-size="10.00">2</text>
<text text-anchor="start" x="45.5" y="-511" font-family="Courier,monospace" font-size="10.00">##copy 2 1 any&#45;rep</text>
<text text-anchor="start" x="45.5" y="-499" font-family="Courier,monospace" font-size="10.00">##inc&#45;d &#45;1</text>
<text text-anchor="start" x="45.5" y="-487" font-family="Courier,monospace" font-size="10.00">##compare&#45;imm&#45;branch 2 f cc/=</text>
</g>
<!-- 1&#45;&gt;2 -->
<g id="edge2" class="edge"><title>1&#45;&gt;2</title>
<path fill="none" stroke="black" d="M133,-571.853C133,-564.055 133,-555.05 133,-546.306"/>
<polygon fill="black" stroke="black" points="136.5,-546.251 133,-536.251 129.5,-546.251 136.5,-546.251"/>
</g>
<!-- 3 -->
<g id="node4" class="node"><title>3</title>
<polygon fill="none" stroke="black" points="109,-444 45,-444 45,-408 109,-408 109,-444"/>
<text text-anchor="middle" x="77" y="-429" font-family="Courier,monospace" font-size="10.00">3</text>
<text text-anchor="start" x="52.5" y="-417" font-family="Courier,monospace" font-size="10.00">##branch</text>
</g>
<!-- 2&#45;&gt;3 -->
<g id="edge3" class="edge"><title>2&#45;&gt;3</title>
<path fill="none" stroke="black" d="M113.728,-479.78C107.748,-471.024 101.179,-461.404 95.2693,-452.751"/>
<polygon fill="black" stroke="black" points="98.1564,-450.773 89.6264,-444.489 92.3758,-454.721 98.1564,-450.773"/>
</g>
<!-- 6 -->
<g id="node5" class="node"><title>6</title>
<polygon fill="none" stroke="black" points="221,-444 157,-444 157,-408 221,-408 221,-444"/>
<text text-anchor="middle" x="189" y="-429" font-family="Courier,monospace" font-size="10.00">6</text>
<text text-anchor="start" x="164.5" y="-417" font-family="Courier,monospace" font-size="10.00">##branch</text>
</g>
<!-- 2&#45;&gt;6 -->
<g id="edge4" class="edge"><title>2&#45;&gt;6</title>
<path fill="none" stroke="black" d="M152.272,-479.78C158.252,-471.024 164.821,-461.404 170.731,-452.751"/>
<polygon fill="black" stroke="black" points="173.624,-454.721 176.374,-444.489 167.844,-450.773 173.624,-454.721"/>
</g>
<!-- 4 -->
<g id="node6" class="node"><title>4</title>
<polygon fill="none" stroke="black" points="124,-372 2.86368e-14,-372 7.49401e-15,-304 124,-304 124,-372"/>
<text text-anchor="middle" x="62" y="-359" font-family="Courier,monospace" font-size="10.00">4</text>
<text text-anchor="start" x="7.5" y="-347" font-family="Courier,monospace" font-size="10.00">##load&#45;integer 3 1</text>
<text text-anchor="start" x="7.5" y="-335" font-family="Courier,monospace" font-size="10.00">##copy 1 3 any&#45;rep</text>
<text text-anchor="start" x="7.5" y="-323" font-family="Courier,monospace" font-size="10.00">##inc&#45;d 1</text>
<text text-anchor="start" x="7.5" y="-311" font-family="Courier,monospace" font-size="10.00">##branch</text>
</g>
<!-- 3&#45;&gt;4 -->
<g id="edge5" class="edge"><title>3&#45;&gt;4</title>
<path fill="none" stroke="black" d="M73.892,-407.766C72.6201,-400.305 71.088,-391.316 69.5529,-382.311"/>
<polygon fill="black" stroke="black" points="72.9629,-381.486 67.8323,-372.216 66.0624,-382.662 72.9629,-381.486"/>
</g>
<!-- 7 -->
<g id="node9" class="node"><title>7</title>
<polygon fill="none" stroke="black" points="266,-372 142,-372 142,-304 266,-304 266,-372"/>
<text text-anchor="middle" x="204" y="-359" font-family="Courier,monospace" font-size="10.00">7</text>
<text text-anchor="start" x="149.5" y="-347" font-family="Courier,monospace" font-size="10.00">##load&#45;integer 5 2</text>
<text text-anchor="start" x="149.5" y="-335" font-family="Courier,monospace" font-size="10.00">##copy 1 5 any&#45;rep</text>
<text text-anchor="start" x="149.5" y="-323" font-family="Courier,monospace" font-size="10.00">##inc&#45;d 1</text>
<text text-anchor="start" x="149.5" y="-311" font-family="Courier,monospace" font-size="10.00">##branch</text>
</g>
<!-- 6&#45;&gt;7 -->
<g id="edge8" class="edge"><title>6&#45;&gt;7</title>
<path fill="none" stroke="black" d="M192.108,-407.766C193.38,-400.305 194.912,-391.316 196.447,-382.311"/>
<polygon fill="black" stroke="black" points="199.938,-382.662 198.168,-372.216 193.037,-381.486 199.938,-382.662"/>
</g>
<!-- 5 -->
<g id="node7" class="node"><title>5</title>
<polygon fill="none" stroke="black" points="124,-268 60,-268 60,-232 124,-232 124,-268"/>
<text text-anchor="middle" x="92" y="-253" font-family="Courier,monospace" font-size="10.00">5</text>
<text text-anchor="start" x="67.5" y="-241" font-family="Courier,monospace" font-size="10.00">##branch</text>
</g>
<!-- 4&#45;&gt;5 -->
<g id="edge6" class="edge"><title>4&#45;&gt;5</title>
<path fill="none" stroke="black" d="M73.5988,-303.977C76.5528,-295.312 79.6925,-286.102 82.5263,-277.789"/>
<polygon fill="black" stroke="black" points="85.8842,-278.786 85.7982,-268.192 79.2586,-276.528 85.8842,-278.786"/>
</g>
<!-- 9 -->
<g id="node8" class="node"><title>9</title>
<polygon fill="none" stroke="black" points="172,-196 108,-196 108,-160 172,-160 172,-196"/>
<text text-anchor="middle" x="140" y="-181" font-family="Courier,monospace" font-size="10.00">9</text>
<text text-anchor="start" x="115.5" y="-169" font-family="Courier,monospace" font-size="10.00">##branch</text>
</g>
<!-- 5&#45;&gt;9 -->
<g id="edge7" class="edge"><title>5&#45;&gt;9</title>
<path fill="none" stroke="black" d="M104.112,-231.831C109.528,-223.708 116.024,-213.964 121.992,-205.012"/>
<polygon fill="black" stroke="black" points="125.09,-206.675 127.724,-196.413 119.265,-202.792 125.09,-206.675"/>
</g>
<!-- 10 -->
<g id="node11" class="node"><title>10</title>
<polygon fill="none" stroke="black" points="193,-124 87,-124 87,-80 193,-80 193,-124"/>
<text text-anchor="middle" x="140" y="-111" font-family="Courier,monospace" font-size="10.00">10</text>
<text text-anchor="start" x="94.5" y="-99" font-family="Courier,monospace" font-size="10.00">##replace 1 D 0</text>
<text text-anchor="start" x="94.5" y="-87" font-family="Courier,monospace" font-size="10.00">##branch</text>
</g>
<!-- 9&#45;&gt;10 -->
<g id="edge11" class="edge"><title>9&#45;&gt;10</title>
<path fill="none" stroke="black" d="M140,-159.989C140,-152.291 140,-143.063 140,-134.256"/>
<polygon fill="black" stroke="black" points="143.5,-134.228 140,-124.228 136.5,-134.228 143.5,-134.228"/>
</g>
<!-- 8 -->
<g id="node10" class="node"><title>8</title>
<polygon fill="none" stroke="black" points="221,-268 157,-268 157,-232 221,-232 221,-268"/>
<text text-anchor="middle" x="189" y="-253" font-family="Courier,monospace" font-size="10.00">8</text>
<text text-anchor="start" x="164.5" y="-241" font-family="Courier,monospace" font-size="10.00">##branch</text>
</g>
<!-- 7&#45;&gt;8 -->
<g id="edge9" class="edge"><title>7&#45;&gt;8</title>
<path fill="none" stroke="black" d="M198.201,-303.977C196.74,-295.407 195.188,-286.304 193.784,-278.064"/>
<polygon fill="black" stroke="black" points="197.232,-277.462 192.101,-268.192 190.331,-278.638 197.232,-277.462"/>
</g>
<!-- 8&#45;&gt;9 -->
<g id="edge10" class="edge"><title>8&#45;&gt;9</title>
<path fill="none" stroke="black" d="M176.635,-231.831C171.049,-223.623 164.337,-213.761 158.193,-204.732"/>
<polygon fill="black" stroke="black" points="161.051,-202.711 152.531,-196.413 155.264,-206.65 161.051,-202.711"/>
</g>
<!-- 11 -->
<g id="node12" class="node"><title>11</title>
<polygon fill="none" stroke="black" points="178,-44 102,-44 102,-1.42109e-14 178,-0 178,-44"/>
<text text-anchor="middle" x="140" y="-31" font-family="Courier,monospace" font-size="10.00">11</text>
<text text-anchor="start" x="109.5" y="-19" font-family="Courier,monospace" font-size="10.00">##epilogue</text>
<text text-anchor="start" x="109.5" y="-7" font-family="Courier,monospace" font-size="10.00">##return</text>
</g>
<!-- 10&#45;&gt;11 -->
<g id="edge12" class="edge"><title>10&#45;&gt;11</title>
<path fill="none" stroke="black" d="M140,-79.7155C140,-71.827 140,-62.7865 140,-54.2379"/>
<polygon fill="black" stroke="black" points="143.5,-54.1649 140,-44.165 136.5,-54.165 143.5,-54.1649"/>
</g>
</g>
</svg>
