<?xml version="1.0" encoding="UTF-8" standalone="no"?>
<!DOCTYPE svg PUBLIC "-//W3C//DTD SVG 1.1//EN"
 "http://www.w3.org/Graphics/SVG/1.1/DTD/svg11.dtd">
<!-- Generated by graphviz version 2.26.3 (20100126.1600)
 -->
<!-- Title: _anonymous_97 Pages: 1 -->
<svg width="274pt" height="736pt"
 viewBox="0.00 0.00 274.00 736.00" xmlns="http://www.w3.org/2000/svg" xmlns:xlink="http://www.w3.org/1999/xlink">
<g id="graph1" class="graph" transform="scale(1 1) rotate(0) translate(4 732)">
<title>_anonymous_97</title>
<polygon fill="white" stroke="white" points="-4,5 -4,-732 271,-732 271,5 -4,5"/>
<!-- 0 -->
<g id="node1" class="node"><title>0</title>
<polygon fill="grey" stroke="grey" points="171,-728 95,-728 95,-684 171,-684 171,-728"/>
<text text-anchor="middle" x="133" y="-715" font-family="Courier,monospace" font-size="10.00">0</text>
<text text-anchor="start" x="102.5" y="-703" font-family="Courier,monospace" font-size="10.00">##prologue</text>
<text text-anchor="start" x="102.5" y="-691" font-family="Courier,monospace" font-size="10.00">##branch</text>
</g>
<!-- 1 -->
<g id="node2" class="node"><title>1</title>
<polygon fill="none" stroke="black" points="177,-648 89,-648 89,-604 177,-604 177,-648"/>
<text text-anchor="middle" x="133" y="-635" font-family="Courier,monospace" font-size="10.00">1</text>
<text text-anchor="start" x="96.5" y="-623" font-family="Courier,monospace" font-size="10.00">##peek 1 D 0</text>
<text text-anchor="start" x="96.5" y="-611" font-family="Courier,monospace" font-size="10.00">##branch</text>
</g>
<!-- 0&#45;&gt;1 -->
<g id="edge1" class="edge"><title>0&#45;&gt;1</title>
<path fill="none" stroke="black" d="M133,-683.716C133,-675.827 133,-666.787 133,-658.238"/>
<polygon fill="black" stroke="black" points="136.5,-658.165 133,-648.165 129.5,-658.165 136.5,-658.165"/>
</g>
<!-- 2 -->
<g id="node3" class="node"><title>2</title>
<polygon fill="none" stroke="black" points="228,-568 38,-568 38,-512 228,-512 228,-568"/>
<text text-anchor="middle" x="133" y="-555" font-family="Courier,monospace" font-size="10.00">2</text>
<text text-anchor="start" x="45.5" y="-543" font-family="Courier,monospace" font-size="10.00">##copy 2 1 any&#45;rep</text>
<text text-anchor="start" x="45.5" y="-531" font-family="Courier,monospace" font-size="10.00">##inc&#45;d &#45;1</text>
<text text-anchor="start" x="45.5" y="-519" font-family="Courier,monospace" font-size="10.00">##compare&#45;imm&#45;branch 2 f cc/=</text>
</g>
<!-- 1&#45;&gt;2 -->
<g id="edge2" class="edge"><title>1&#45;&gt;2</title>
<path fill="none" stroke="black" d="M133,-603.853C133,-596.055 133,-587.05 133,-578.306"/>
<polygon fill="black" stroke="black" points="136.5,-578.251 133,-568.251 129.5,-578.251 136.5,-578.251"/>
</g>
<!-- 3 -->
<g id="node4" class="node"><title>3</title>
<polygon fill="none" stroke="black" points="109,-476 45,-476 45,-440 109,-440 109,-476"/>
<text text-anchor="middle" x="77" y="-461" font-family="Courier,monospace" font-size="10.00">3</text>
<text text-anchor="start" x="52.5" y="-449" font-family="Courier,monospace" font-size="10.00">##branch</text>
</g>
<!-- 2&#45;&gt;3 -->
<g id="edge3" class="edge"><title>2&#45;&gt;3</title>
<path fill="none" stroke="black" d="M113.728,-511.78C107.748,-503.024 101.179,-493.404 95.2693,-484.751"/>
<polygon fill="black" stroke="black" points="98.1564,-482.773 89.6264,-476.489 92.3758,-486.721 98.1564,-482.773"/>
</g>
<!-- 6 -->
<g id="node5" class="node"><title>6</title>
<polygon fill="none" stroke="black" points="221,-476 157,-476 157,-440 221,-440 221,-476"/>
<text text-anchor="middle" x="189" y="-461" font-family="Courier,monospace" font-size="10.00">6</text>
<text text-anchor="start" x="164.5" y="-449" font-family="Courier,monospace" font-size="10.00">##branch</text>
</g>
<!-- 2&#45;&gt;6 -->
<g id="edge4" class="edge"><title>2&#45;&gt;6</title>
<path fill="none" stroke="black" d="M152.272,-511.78C158.252,-503.024 164.821,-493.404 170.731,-484.751"/>
<polygon fill="black" stroke="black" points="173.624,-486.721 176.374,-476.489 167.844,-482.773 173.624,-486.721"/>
</g>
<!-- 4 -->
<g id="node6" class="node"><title>4</title>
<polygon fill="none" stroke="black" points="124,-404 2.86368e-14,-404 7.49401e-15,-336 124,-336 124,-404"/>
<text text-anchor="middle" x="62" y="-391" font-family="Courier,monospace" font-size="10.00">4</text>
<text text-anchor="start" x="7.5" y="-379" font-family="Courier,monospace" font-size="10.00">##load&#45;integer 3 1</text>
<text text-anchor="start" x="7.5" y="-367" font-family="Courier,monospace" font-size="10.00">##copy 1 3 any&#45;rep</text>
<text text-anchor="start" x="7.5" y="-355" font-family="Courier,monospace" font-size="10.00">##inc&#45;d 1</text>
<text text-anchor="start" x="7.5" y="-343" font-family="Courier,monospace" font-size="10.00">##branch</text>
</g>
<!-- 3&#45;&gt;4 -->
<g id="edge5" class="edge"><title>3&#45;&gt;4</title>
<path fill="none" stroke="black" d="M73.892,-439.766C72.6201,-432.305 71.088,-423.316 69.5529,-414.311"/>
<polygon fill="black" stroke="black" points="72.9629,-413.486 67.8323,-404.216 66.0624,-414.662 72.9629,-413.486"/>
</g>
<!-- 7 -->
<g id="node9" class="node"><title>7</title>
<polygon fill="none" stroke="black" points="266,-404 142,-404 142,-336 266,-336 266,-404"/>
<text text-anchor="middle" x="204" y="-391" font-family="Courier,monospace" font-size="10.00">7</text>
<text text-anchor="start" x="149.5" y="-379" font-family="Courier,monospace" font-size="10.00">##load&#45;integer 5 2</text>
<text text-anchor="start" x="149.5" y="-367" font-family="Courier,monospace" font-size="10.00">##copy 1 5 any&#45;rep</text>
<text text-anchor="start" x="149.5" y="-355" font-family="Courier,monospace" font-size="10.00">##inc&#45;d 1</text>
<text text-anchor="start" x="149.5" y="-343" font-family="Courier,monospace" font-size="10.00">##branch</text>
</g>
<!-- 6&#45;&gt;7 -->
<g id="edge8" class="edge"><title>6&#45;&gt;7</title>
<path fill="none" stroke="black" d="M192.108,-439.766C193.38,-432.305 194.912,-423.316 196.447,-414.311"/>
<polygon fill="black" stroke="black" points="199.938,-414.662 198.168,-404.216 193.037,-413.486 199.938,-414.662"/>
</g>
<!-- 5 -->
<g id="node7" class="node"><title>5</title>
<polygon fill="none" stroke="black" points="124,-300 60,-300 60,-264 124,-264 124,-300"/>
<text text-anchor="middle" x="92" y="-285" font-family="Courier,monospace" font-size="10.00">5</text>
<text text-anchor="start" x="67.5" y="-273" font-family="Courier,monospace" font-size="10.00">##branch</text>
</g>
<!-- 4&#45;&gt;5 -->
<g id="edge6" class="edge"><title>4&#45;&gt;5</title>
<path fill="none" stroke="black" d="M73.5988,-335.977C76.5528,-327.312 79.6925,-318.102 82.5263,-309.789"/>
<polygon fill="black" stroke="black" points="85.8842,-310.786 85.7982,-300.192 79.2586,-308.528 85.8842,-310.786"/>
</g>
<!-- 9 -->
<g id="node8" class="node"><title>9</title>
<polygon fill="none" stroke="black" points="202,-228 78,-228 78,-172 202,-172 202,-228"/>
<text text-anchor="middle" x="140" y="-215" font-family="Courier,monospace" font-size="10.00">9</text>
<text text-anchor="start" x="85.5" y="-203" font-family="Courier,monospace" font-size="10.00">##copy 7 1 any&#45;rep</text>
<text text-anchor="start" x="85.5" y="-191" font-family="Courier,monospace" font-size="10.00">##inc&#45;d 1</text>
<text text-anchor="start" x="85.5" y="-179" font-family="Courier,monospace" font-size="10.00">##branch</text>
</g>
<!-- 5&#45;&gt;9 -->
<g id="edge7" class="edge"><title>5&#45;&gt;9</title>
<path fill="none" stroke="black" d="M102.653,-263.802C107.299,-255.864 112.925,-246.254 118.384,-236.928"/>
<polygon fill="black" stroke="black" points="121.498,-238.536 123.529,-228.137 115.457,-234.999 121.498,-238.536"/>
</g>
<!-- 10 -->
<g id="node11" class="node"><title>10</title>
<polygon fill="none" stroke="black" points="193,-136 87,-136 87,-80 193,-80 193,-136"/>
<text text-anchor="middle" x="140" y="-123" font-family="Courier,monospace" font-size="10.00">10</text>
<text text-anchor="start" x="94.5" y="-111" font-family="Courier,monospace" font-size="10.00">##replace 7 D 0</text>
<text text-anchor="start" x="94.5" y="-99" font-family="Courier,monospace" font-size="10.00">##replace 1 D 1</text>
<text text-anchor="start" x="94.5" y="-87" font-family="Courier,monospace" font-size="10.00">##branch</text>
</g>
<!-- 9&#45;&gt;10 -->
<g id="edge11" class="edge"><title>9&#45;&gt;10</title>
<path fill="none" stroke="black" d="M140,-171.897C140,-163.858 140,-154.954 140,-146.41"/>
<polygon fill="black" stroke="black" points="143.5,-146.248 140,-136.248 136.5,-146.248 143.5,-146.248"/>
</g>
<!-- 8 -->
<g id="node10" class="node"><title>8</title>
<polygon fill="none" stroke="black" points="221,-300 157,-300 157,-264 221,-264 221,-300"/>
<text text-anchor="middle" x="189" y="-285" font-family="Courier,monospace" font-size="10.00">8</text>
<text text-anchor="start" x="164.5" y="-273" font-family="Courier,monospace" font-size="10.00">##branch</text>
</g>
<!-- 7&#45;&gt;8 -->
<g id="edge9" class="edge"><title>7&#45;&gt;8</title>
<path fill="none" stroke="black" d="M198.201,-335.977C196.74,-327.407 195.188,-318.304 193.784,-310.064"/>
<polygon fill="black" stroke="black" points="197.232,-309.462 192.101,-300.192 190.331,-310.638 197.232,-309.462"/>
</g>
<!-- 8&#45;&gt;9 -->
<g id="edge10" class="edge"><title>8&#45;&gt;9</title>
<path fill="none" stroke="black" d="M178.125,-263.802C173.382,-255.864 167.64,-246.254 162.067,-236.928"/>
<polygon fill="black" stroke="black" points="164.948,-234.926 156.814,-228.137 158.939,-238.517 164.948,-234.926"/>
</g>
<!-- 11 -->
<g id="node12" class="node"><title>11</title>
<polygon fill="grey" stroke="grey" points="178,-44 102,-44 102,-1.42109e-14 178,-0 178,-44"/>
<text text-anchor="middle" x="140" y="-31" font-family="Courier,monospace" font-size="10.00">11</text>
<text text-anchor="start" x="109.5" y="-19" font-family="Courier,monospace" font-size="10.00">##epilogue</text>
<text text-anchor="start" x="109.5" y="-7" font-family="Courier,monospace" font-size="10.00">##return</text>
</g>
<!-- 10&#45;&gt;11 -->
<g id="edge12" class="edge"><title>10&#45;&gt;11</title>
<path fill="none" stroke="black" d="M140,-79.8404C140,-71.7116 140,-62.7764 140,-54.4113"/>
<polygon fill="black" stroke="black" points="143.5,-54.224 140,-44.224 136.5,-54.224 143.5,-54.224"/>
</g>
</g>
</svg>
