<?xml version="1.0" encoding="UTF-8" standalone="no"?>
<!DOCTYPE svg PUBLIC "-//W3C//DTD SVG 1.1//EN"
 "http://www.w3.org/Graphics/SVG/1.1/DTD/svg11.dtd">
<!-- Generated by graphviz version 2.26.3 (20100126.1600)
 -->
<!-- Title: _anonymous_107 Pages: 1 -->
<svg width="286pt" height="328pt"
 viewBox="0.00 0.00 286.00 328.00" xmlns="http://www.w3.org/2000/svg" xmlns:xlink="http://www.w3.org/1999/xlink">
<g id="graph1" class="graph" transform="scale(1 1) rotate(0) translate(4 324)">
<title>_anonymous_107</title>
<polygon fill="white" stroke="white" points="-4,5 -4,-324 283,-324 283,5 -4,5"/>
<!-- 0 -->
<g id="node1" class="node"><title>0</title>
<polygon fill="grey" stroke="grey" points="177,-320 101,-320 101,-276 177,-276 177,-320"/>
<text text-anchor="middle" x="139" y="-307" font-family="Courier,monospace" font-size="10.00">0</text>
<text text-anchor="start" x="108.5" y="-295" font-family="Courier,monospace" font-size="10.00">##prologue</text>
<text text-anchor="start" x="108.5" y="-283" font-family="Courier,monospace" font-size="10.00">##branch</text>
</g>
<!-- 1 -->
<g id="node2" class="node"><title>1</title>
<polygon fill="none" stroke="black" points="234,-240 44,-240 44,-184 234,-184 234,-240"/>
<text text-anchor="middle" x="139" y="-227" font-family="Courier,monospace" font-size="10.00">1</text>
<text text-anchor="start" x="51.5" y="-215" font-family="Courier,monospace" font-size="10.00">##inc&#45;d &#45;1</text>
<text text-anchor="start" x="51.5" y="-203" font-family="Courier,monospace" font-size="10.00">##peek 9 D &#45;1</text>
<text text-anchor="start" x="51.5" y="-191" font-family="Courier,monospace" font-size="10.00">##compare&#45;imm&#45;branch 9 f cc/=</text>
</g>
<!-- 0&#45;&gt;1 -->
<g id="edge1" class="edge"><title>0&#45;&gt;1</title>
<path fill="none" stroke="black" d="M139,-275.853C139,-268.055 139,-259.05 139,-250.306"/>
<polygon fill="black" stroke="black" points="142.5,-250.251 139,-240.251 135.5,-250.251 142.5,-250.251"/>
</g>
<!-- 2 -->
<g id="node3" class="node"><title>2</title>
<polygon fill="none" stroke="black" points="130,-148 4.31391e-14,-148 1.49325e-14,-80 130,-80 130,-148"/>
<text text-anchor="middle" x="65" y="-135" font-family="Courier,monospace" font-size="10.00">2</text>
<text text-anchor="start" x="7.5" y="-123" font-family="Courier,monospace" font-size="10.00">##inc&#45;d 2</text>
<text text-anchor="start" x="7.5" y="-111" font-family="Courier,monospace" font-size="10.00">##replace&#45;imm 1 D 0</text>
<text text-anchor="start" x="7.5" y="-99" font-family="Courier,monospace" font-size="10.00">##replace&#45;imm 1 D 1</text>
<text text-anchor="start" x="7.5" y="-87" font-family="Courier,monospace" font-size="10.00">##branch</text>
</g>
<!-- 1&#45;&gt;2 -->
<g id="edge2" class="edge"><title>1&#45;&gt;2</title>
<path fill="none" stroke="black" d="M117.795,-183.917C111.32,-175.343 104.052,-165.717 97.0264,-156.413"/>
<polygon fill="black" stroke="black" points="99.7609,-154.227 90.9417,-148.355 94.1746,-158.445 99.7609,-154.227"/>
</g>
<!-- 4 -->
<g id="node4" class="node"><title>4</title>
<polygon fill="none" stroke="black" points="278,-148 148,-148 148,-80 278,-80 278,-148"/>
<text text-anchor="middle" x="213" y="-135" font-family="Courier,monospace" font-size="10.00">4</text>
<text text-anchor="start" x="155.5" y="-123" font-family="Courier,monospace" font-size="10.00">##inc&#45;d 2</text>
<text text-anchor="start" x="155.5" y="-111" font-family="Courier,monospace" font-size="10.00">##replace&#45;imm 2 D 0</text>
<text text-anchor="start" x="155.5" y="-99" font-family="Courier,monospace" font-size="10.00">##replace&#45;imm 2 D 1</text>
<text text-anchor="start" x="155.5" y="-87" font-family="Courier,monospace" font-size="10.00">##branch</text>
</g>
<!-- 1&#45;&gt;4 -->
<g id="edge3" class="edge"><title>1&#45;&gt;4</title>
<path fill="none" stroke="black" d="M160.205,-183.917C166.68,-175.343 173.948,-165.717 180.974,-156.413"/>
<polygon fill="black" stroke="black" points="183.825,-158.445 187.058,-148.355 178.239,-154.227 183.825,-158.445"/>
</g>
<!-- 3 -->
<g id="node5" class="node"><title>3</title>
<polygon fill="grey" stroke="grey" points="103,-44 27,-44 27,-1.42109e-14 103,-0 103,-44"/>
<text text-anchor="middle" x="65" y="-31" font-family="Courier,monospace" font-size="10.00">3</text>
<text text-anchor="start" x="34.5" y="-19" font-family="Courier,monospace" font-size="10.00">##epilogue</text>
<text text-anchor="start" x="34.5" y="-7" font-family="Courier,monospace" font-size="10.00">##return</text>
</g>
<!-- 2&#45;&gt;3 -->
<g id="edge4" class="edge"><title>2&#45;&gt;3</title>
<path fill="none" stroke="black" d="M65,-79.7426C65,-71.3371 65,-62.3709 65,-54.0725"/>
<polygon fill="black" stroke="black" points="68.5001,-54.0107 65,-44.0107 61.5001,-54.0107 68.5001,-54.0107"/>
</g>
<!-- 5 -->
<g id="node6" class="node"><title>5</title>
<polygon fill="grey" stroke="grey" points="251,-44 175,-44 175,-1.42109e-14 251,-0 251,-44"/>
<text text-anchor="middle" x="213" y="-31" font-family="Courier,monospace" font-size="10.00">5</text>
<text text-anchor="start" x="182.5" y="-19" font-family="Courier,monospace" font-size="10.00">##epilogue</text>
<text text-anchor="start" x="182.5" y="-7" font-family="Courier,monospace" font-size="10.00">##return</text>
</g>
<!-- 4&#45;&gt;5 -->
<g id="edge5" class="edge"><title>4&#45;&gt;5</title>
<path fill="none" stroke="black" d="M213,-79.7426C213,-71.3371 213,-62.3709 213,-54.0725"/>
<polygon fill="black" stroke="black" points="216.5,-54.0107 213,-44.0107 209.5,-54.0107 216.5,-54.0107"/>
</g>
</g>
</svg>
