<?xml version="1.0" encoding="UTF-8" standalone="no"?>
<!DOCTYPE svg PUBLIC "-//W3C//DTD SVG 1.1//EN"
 "http://www.w3.org/Graphics/SVG/1.1/DTD/svg11.dtd">
<!-- Generated by graphviz version 2.26.3 (20100126.1600)
 -->
<!-- Title: _anonymous_38 Pages: 1 -->
<svg width="286pt" height="316pt"
 viewBox="0.00 0.00 286.00 316.00" xmlns="http://www.w3.org/2000/svg" xmlns:xlink="http://www.w3.org/1999/xlink">
<g id="graph1" class="graph" transform="scale(1 1) rotate(0) translate(4 312)">
<title>_anonymous_38</title>
<polygon fill="white" stroke="white" points="-4,5 -4,-312 283,-312 283,5 -4,5"/>
<!-- 0 -->
<g id="node1" class="node"><title>0</title>
<polygon fill="none" stroke="black" points="177,-308 101,-308 101,-264 177,-264 177,-308"/>
<text text-anchor="middle" x="139" y="-295" font-family="Courier,monospace" font-size="10.00">0</text>
<text text-anchor="start" x="108.5" y="-283" font-family="Courier,monospace" font-size="10.00">##prologue</text>
<text text-anchor="start" x="108.5" y="-271" font-family="Courier,monospace" font-size="10.00">##branch</text>
</g>
<!-- 1 -->
<g id="node2" class="node"><title>1</title>
<polygon fill="none" stroke="black" points="240,-228 38,-228 38,-172 240,-172 240,-228"/>
<text text-anchor="middle" x="139" y="-215" font-family="Courier,monospace" font-size="10.00">1</text>
<text text-anchor="start" x="45.5" y="-203" font-family="Courier,monospace" font-size="10.00">##inc&#45;d &#45;1</text>
<text text-anchor="start" x="45.5" y="-191" font-family="Courier,monospace" font-size="10.00">##peek EAX D &#45;1</text>
<text text-anchor="start" x="45.5" y="-179" font-family="Courier,monospace" font-size="10.00">##compare&#45;imm&#45;branch EAX f cc/=</text>
</g>
<!-- 0&#45;&gt;1 -->
<g id="edge1" class="edge"><title>0&#45;&gt;1</title>
<path fill="none" stroke="black" d="M139,-285.938C139,-284.562 139,-260.642 139,-238.388"/>
<polygon fill="black" stroke="black" points="142.5,-238.368 139,-228.368 135.5,-238.368 142.5,-238.368"/>
</g>
<!-- 2 -->
<g id="node3" class="node"><title>2</title>
<polygon fill="none" stroke="black" points="130,-136 4.31391e-14,-136 1.49325e-14,-80 130,-80 130,-136"/>
<text text-anchor="middle" x="65" y="-123" font-family="Courier,monospace" font-size="10.00">2</text>
<text text-anchor="start" x="7.5" y="-111" font-family="Courier,monospace" font-size="10.00">##inc&#45;d 1</text>
<text text-anchor="start" x="7.5" y="-99" font-family="Courier,monospace" font-size="10.00">##replace&#45;imm 1 D 0</text>
<text text-anchor="start" x="7.5" y="-87" font-family="Courier,monospace" font-size="10.00">##branch</text>
</g>
<!-- 1&#45;&gt;2 -->
<g id="edge2" class="edge"><title>1&#45;&gt;2</title>
<path fill="none" stroke="black" d="M116.395,-171.897C109.36,-163.151 101.503,-153.382 94.0895,-144.165"/>
<polygon fill="black" stroke="black" points="96.716,-141.846 87.7211,-136.248 91.2615,-146.234 96.716,-141.846"/>
</g>
<!-- 4 -->
<g id="node4" class="node"><title>4</title>
<polygon fill="none" stroke="black" points="278,-136 148,-136 148,-80 278,-80 278,-136"/>
<text text-anchor="middle" x="213" y="-123" font-family="Courier,monospace" font-size="10.00">4</text>
<text text-anchor="start" x="155.5" y="-111" font-family="Courier,monospace" font-size="10.00">##inc&#45;d 1</text>
<text text-anchor="start" x="155.5" y="-99" font-family="Courier,monospace" font-size="10.00">##replace&#45;imm 2 D 0</text>
<text text-anchor="start" x="155.5" y="-87" font-family="Courier,monospace" font-size="10.00">##branch</text>
</g>
<!-- 1&#45;&gt;4 -->
<g id="edge3" class="edge"><title>1&#45;&gt;4</title>
<path fill="none" stroke="black" d="M161.605,-171.897C168.64,-163.151 176.497,-153.382 183.911,-144.165"/>
<polygon fill="black" stroke="black" points="186.739,-146.234 190.279,-136.248 181.284,-141.846 186.739,-146.234"/>
</g>
<!-- 3 -->
<g id="node5" class="node"><title>3</title>
<polygon fill="none" stroke="black" points="103,-44 27,-44 27,-1.42109e-14 103,-0 103,-44"/>
<text text-anchor="middle" x="65" y="-31" font-family="Courier,monospace" font-size="10.00">3</text>
<text text-anchor="start" x="34.5" y="-19" font-family="Courier,monospace" font-size="10.00">##epilogue</text>
<text text-anchor="start" x="34.5" y="-7" font-family="Courier,monospace" font-size="10.00">##return</text>
</g>
<!-- 2&#45;&gt;3 -->
<g id="edge4" class="edge"><title>2&#45;&gt;3</title>
<path fill="none" stroke="black" d="M65,-79.8404C65,-71.7116 65,-62.7764 65,-54.4113"/>
<polygon fill="black" stroke="black" points="68.5001,-54.224 65,-44.224 61.5001,-54.224 68.5001,-54.224"/>
</g>
<!-- 5 -->
<g id="node6" class="node"><title>5</title>
<polygon fill="none" stroke="black" points="251,-44 175,-44 175,-1.42109e-14 251,-0 251,-44"/>
<text text-anchor="middle" x="213" y="-31" font-family="Courier,monospace" font-size="10.00">5</text>
<text text-anchor="start" x="182.5" y="-19" font-family="Courier,monospace" font-size="10.00">##epilogue</text>
<text text-anchor="start" x="182.5" y="-7" font-family="Courier,monospace" font-size="10.00">##return</text>
</g>
<!-- 4&#45;&gt;5 -->
<g id="edge5" class="edge"><title>4&#45;&gt;5</title>
<path fill="none" stroke="black" d="M213,-79.8404C213,-71.7116 213,-62.7764 213,-54.4113"/>
<polygon fill="black" stroke="black" points="216.5,-54.224 213,-44.224 209.5,-54.224 216.5,-54.224"/>
</g>
</g>
</svg>
