<?xml version="1.0" encoding="UTF-8" standalone="no"?>
<!DOCTYPE svg PUBLIC "-//W3C//DTD SVG 1.1//EN"
 "http://www.w3.org/Graphics/SVG/1.1/DTD/svg11.dtd">
<!-- Generated by graphviz version 2.26.3 (20100126.1600)
 -->
<!-- Title: _anonymous_30 Pages: 1 -->
<svg width="274pt" height="704pt"
 viewBox="0.00 0.00 274.00 704.00" xmlns="http://www.w3.org/2000/svg" xmlns:xlink="http://www.w3.org/1999/xlink">
<g id="graph1" class="graph" transform="scale(1 1) rotate(0) translate(4 700)">
<title>_anonymous_30</title>
<polygon fill="white" stroke="white" points="-4,5 -4,-700 271,-700 271,5 -4,5"/>
<!-- 0 -->
<g id="node1" class="node"><title>0</title>
<polygon fill="none" stroke="black" points="178,-696 102,-696 102,-652 178,-652 178,-696"/>
<text text-anchor="middle" x="140" y="-683" font-family="Courier,monospace" font-size="10.00">0</text>
<text text-anchor="start" x="109.5" y="-671" font-family="Courier,monospace" font-size="10.00">##prologue</text>
<text text-anchor="start" x="109.5" y="-659" font-family="Courier,monospace" font-size="10.00">##branch</text>
</g>
<!-- 1 -->
<g id="node2" class="node"><title>1</title>
<polygon fill="none" stroke="black" points="184,-616 96,-616 96,-572 184,-572 184,-616"/>
<text text-anchor="middle" x="140" y="-603" font-family="Courier,monospace" font-size="10.00">1</text>
<text text-anchor="start" x="103.5" y="-591" font-family="Courier,monospace" font-size="10.00">##peek 1 D 0</text>
<text text-anchor="start" x="103.5" y="-579" font-family="Courier,monospace" font-size="10.00">##branch</text>
</g>
<!-- 0&#45;&gt;1 -->
<g id="edge1" class="edge"><title>0&#45;&gt;1</title>
<path fill="none" stroke="black" d="M140,-651.716C140,-643.827 140,-634.787 140,-626.238"/>
<polygon fill="black" stroke="black" points="143.5,-626.165 140,-616.165 136.5,-626.165 143.5,-626.165"/>
</g>
<!-- 2 -->
<g id="node3" class="node"><title>2</title>
<polygon fill="none" stroke="black" points="235,-536 45,-536 45,-480 235,-480 235,-536"/>
<text text-anchor="middle" x="140" y="-523" font-family="Courier,monospace" font-size="10.00">2</text>
<text text-anchor="start" x="52.5" y="-511" font-family="Courier,monospace" font-size="10.00">##copy 2 1 any&#45;rep</text>
<text text-anchor="start" x="52.5" y="-499" font-family="Courier,monospace" font-size="10.00">##inc&#45;d &#45;1</text>
<text text-anchor="start" x="52.5" y="-487" font-family="Courier,monospace" font-size="10.00">##compare&#45;imm&#45;branch 2 f cc/=</text>
</g>
<!-- 1&#45;&gt;2 -->
<g id="edge2" class="edge"><title>1&#45;&gt;2</title>
<path fill="none" stroke="black" d="M140,-571.853C140,-564.055 140,-555.05 140,-546.306"/>
<polygon fill="black" stroke="black" points="143.5,-546.251 140,-536.251 136.5,-546.251 143.5,-546.251"/>
</g>
<!-- 3 -->
<g id="node4" class="node"><title>3</title>
<polygon fill="none" stroke="black" points="124,-444 60,-444 60,-408 124,-408 124,-444"/>
<text text-anchor="middle" x="92" y="-429" font-family="Courier,monospace" font-size="10.00">3</text>
<text text-anchor="start" x="67.5" y="-417" font-family="Courier,monospace" font-size="10.00">##branch</text>
</g>
<!-- 2&#45;&gt;3 -->
<g id="edge3" class="edge"><title>2&#45;&gt;3</title>
<path fill="none" stroke="black" d="M123.481,-479.78C118.462,-471.207 112.959,-461.805 107.977,-453.294"/>
<polygon fill="black" stroke="black" points="110.895,-451.351 102.823,-444.489 104.854,-454.887 110.895,-451.351"/>
</g>
<!-- 9 -->
<g id="node5" class="node"><title>9</title>
<polygon fill="none" stroke="black" points="221,-444 157,-444 157,-408 221,-408 221,-444"/>
<text text-anchor="middle" x="189" y="-429" font-family="Courier,monospace" font-size="10.00">9</text>
<text text-anchor="start" x="164.5" y="-417" font-family="Courier,monospace" font-size="10.00">##branch</text>
</g>
<!-- 2&#45;&gt;9 -->
<g id="edge4" class="edge"><title>2&#45;&gt;9</title>
<path fill="none" stroke="black" d="M156.863,-479.78C161.986,-471.207 167.604,-461.805 172.69,-453.294"/>
<polygon fill="black" stroke="black" points="175.827,-454.868 177.952,-444.489 169.818,-451.277 175.827,-454.868"/>
</g>
<!-- 4 -->
<g id="node6" class="node"><title>4</title>
<polygon fill="none" stroke="black" points="124,-372 2.86368e-14,-372 7.49401e-15,-304 124,-304 124,-372"/>
<text text-anchor="middle" x="62" y="-359" font-family="Courier,monospace" font-size="10.00">4</text>
<text text-anchor="start" x="7.5" y="-347" font-family="Courier,monospace" font-size="10.00">##load&#45;integer 3 1</text>
<text text-anchor="start" x="7.5" y="-335" font-family="Courier,monospace" font-size="10.00">##copy 1 3 any&#45;rep</text>
<text text-anchor="start" x="7.5" y="-323" font-family="Courier,monospace" font-size="10.00">##inc&#45;d 1</text>
<text text-anchor="start" x="7.5" y="-311" font-family="Courier,monospace" font-size="10.00">##branch</text>
</g>
<!-- 3&#45;&gt;4 -->
<g id="edge5" class="edge"><title>3&#45;&gt;4</title>
<path fill="none" stroke="black" d="M85.784,-407.766C83.1855,-400.144 80.044,-390.929 76.9078,-381.73"/>
<polygon fill="black" stroke="black" points="80.2041,-380.552 73.6645,-372.216 73.5786,-382.81 80.2041,-380.552"/>
</g>
<!-- 10 -->
<g id="node11" class="node"><title>10</title>
<polygon fill="none" stroke="black" points="266,-372 142,-372 142,-304 266,-304 266,-372"/>
<text text-anchor="middle" x="204" y="-359" font-family="Courier,monospace" font-size="10.00">10</text>
<text text-anchor="start" x="149.5" y="-347" font-family="Courier,monospace" font-size="10.00">##load&#45;integer 5 2</text>
<text text-anchor="start" x="149.5" y="-335" font-family="Courier,monospace" font-size="10.00">##copy 1 5 any&#45;rep</text>
<text text-anchor="start" x="149.5" y="-323" font-family="Courier,monospace" font-size="10.00">##inc&#45;d 1</text>
<text text-anchor="start" x="149.5" y="-311" font-family="Courier,monospace" font-size="10.00">##branch</text>
</g>
<!-- 9&#45;&gt;10 -->
<g id="edge10" class="edge"><title>9&#45;&gt;10</title>
<path fill="none" stroke="black" d="M192.108,-407.766C193.38,-400.305 194.912,-391.316 196.447,-382.311"/>
<polygon fill="black" stroke="black" points="199.938,-382.662 198.168,-372.216 193.037,-381.486 199.938,-382.662"/>
</g>
<!-- 5 -->
<g id="node7" class="node"><title>5</title>
<polygon fill="none" stroke="black" points="94,-268 30,-268 30,-232 94,-232 94,-268"/>
<text text-anchor="middle" x="62" y="-253" font-family="Courier,monospace" font-size="10.00">5</text>
<text text-anchor="start" x="37.5" y="-241" font-family="Courier,monospace" font-size="10.00">##branch</text>
</g>
<!-- 4&#45;&gt;5 -->
<g id="edge6" class="edge"><title>4&#45;&gt;5</title>
<path fill="none" stroke="black" d="M62,-303.977C62,-295.502 62,-286.507 62,-278.339"/>
<polygon fill="black" stroke="black" points="65.5001,-278.192 62,-268.192 58.5001,-278.192 65.5001,-278.192"/>
</g>
<!-- 6 -->
<g id="node8" class="node"><title>6</title>
<polygon fill="none" stroke="black" points="94,-196 30,-196 30,-160 94,-160 94,-196"/>
<text text-anchor="middle" x="62" y="-181" font-family="Courier,monospace" font-size="10.00">6</text>
<text text-anchor="start" x="37.5" y="-169" font-family="Courier,monospace" font-size="10.00">##branch</text>
</g>
<!-- 5&#45;&gt;6 -->
<g id="edge7" class="edge"><title>5&#45;&gt;6</title>
<path fill="none" stroke="black" d="M62,-231.831C62,-224.131 62,-214.974 62,-206.417"/>
<polygon fill="black" stroke="black" points="65.5001,-206.413 62,-196.413 58.5001,-206.413 65.5001,-206.413"/>
</g>
<!-- 7 -->
<g id="node9" class="node"><title>7</title>
<polygon fill="none" stroke="black" points="115,-124 9,-124 9,-80 115,-80 115,-124"/>
<text text-anchor="middle" x="62" y="-111" font-family="Courier,monospace" font-size="10.00">7</text>
<text text-anchor="start" x="16.5" y="-99" font-family="Courier,monospace" font-size="10.00">##replace 1 D 0</text>
<text text-anchor="start" x="16.5" y="-87" font-family="Courier,monospace" font-size="10.00">##branch</text>
</g>
<!-- 6&#45;&gt;7 -->
<g id="edge8" class="edge"><title>6&#45;&gt;7</title>
<path fill="none" stroke="black" d="M62,-159.989C62,-152.291 62,-143.063 62,-134.256"/>
<polygon fill="black" stroke="black" points="65.5001,-134.228 62,-124.228 58.5001,-134.228 65.5001,-134.228"/>
</g>
<!-- 8 -->
<g id="node10" class="node"><title>8</title>
<polygon fill="none" stroke="black" points="100,-44 24,-44 24,-1.42109e-14 100,-0 100,-44"/>
<text text-anchor="middle" x="62" y="-31" font-family="Courier,monospace" font-size="10.00">8</text>
<text text-anchor="start" x="31.5" y="-19" font-family="Courier,monospace" font-size="10.00">##epilogue</text>
<text text-anchor="start" x="31.5" y="-7" font-family="Courier,monospace" font-size="10.00">##return</text>
</g>
<!-- 7&#45;&gt;8 -->
<g id="edge9" class="edge"><title>7&#45;&gt;8</title>
<path fill="none" stroke="black" d="M62,-79.7155C62,-71.827 62,-62.7865 62,-54.2379"/>
<polygon fill="black" stroke="black" points="65.5001,-54.1649 62,-44.165 58.5001,-54.165 65.5001,-54.1649"/>
</g>
<!-- 11 -->
<g id="node12" class="node"><title>11</title>
<polygon fill="none" stroke="black" points="236,-268 172,-268 172,-232 236,-232 236,-268"/>
<text text-anchor="middle" x="204" y="-253" font-family="Courier,monospace" font-size="10.00">11</text>
<text text-anchor="start" x="179.5" y="-241" font-family="Courier,monospace" font-size="10.00">##branch</text>
</g>
<!-- 10&#45;&gt;11 -->
<g id="edge11" class="edge"><title>10&#45;&gt;11</title>
<path fill="none" stroke="black" d="M204,-303.977C204,-295.502 204,-286.507 204,-278.339"/>
<polygon fill="black" stroke="black" points="207.5,-278.192 204,-268.192 200.5,-278.192 207.5,-278.192"/>
</g>
<!-- 12 -->
<g id="node13" class="node"><title>12</title>
<polygon fill="none" stroke="black" points="236,-196 172,-196 172,-160 236,-160 236,-196"/>
<text text-anchor="middle" x="204" y="-181" font-family="Courier,monospace" font-size="10.00">12</text>
<text text-anchor="start" x="179.5" y="-169" font-family="Courier,monospace" font-size="10.00">##branch</text>
</g>
<!-- 11&#45;&gt;12 -->
<g id="edge12" class="edge"><title>11&#45;&gt;12</title>
<path fill="none" stroke="black" d="M204,-231.831C204,-224.131 204,-214.974 204,-206.417"/>
<polygon fill="black" stroke="black" points="207.5,-206.413 204,-196.413 200.5,-206.413 207.5,-206.413"/>
</g>
<!-- 13 -->
<g id="node14" class="node"><title>13</title>
<polygon fill="none" stroke="black" points="257,-124 151,-124 151,-80 257,-80 257,-124"/>
<text text-anchor="middle" x="204" y="-111" font-family="Courier,monospace" font-size="10.00">13</text>
<text text-anchor="start" x="158.5" y="-99" font-family="Courier,monospace" font-size="10.00">##replace 1 D 0</text>
<text text-anchor="start" x="158.5" y="-87" font-family="Courier,monospace" font-size="10.00">##branch</text>
</g>
<!-- 12&#45;&gt;13 -->
<g id="edge13" class="edge"><title>12&#45;&gt;13</title>
<path fill="none" stroke="black" d="M204,-159.989C204,-152.291 204,-143.063 204,-134.256"/>
<polygon fill="black" stroke="black" points="207.5,-134.228 204,-124.228 200.5,-134.228 207.5,-134.228"/>
</g>
<!-- 14 -->
<g id="node15" class="node"><title>14</title>
<polygon fill="none" stroke="black" points="242,-44 166,-44 166,-1.42109e-14 242,-0 242,-44"/>
<text text-anchor="middle" x="204" y="-31" font-family="Courier,monospace" font-size="10.00">14</text>
<text text-anchor="start" x="173.5" y="-19" font-family="Courier,monospace" font-size="10.00">##epilogue</text>
<text text-anchor="start" x="173.5" y="-7" font-family="Courier,monospace" font-size="10.00">##return</text>
</g>
<!-- 13&#45;&gt;14 -->
<g id="edge14" class="edge"><title>13&#45;&gt;14</title>
<path fill="none" stroke="black" d="M204,-79.7155C204,-71.827 204,-62.7865 204,-54.2379"/>
<polygon fill="black" stroke="black" points="207.5,-54.1649 204,-44.165 200.5,-54.165 207.5,-54.1649"/>
</g>
</g>
</svg>
