<?xml version="1.0" encoding="UTF-8" standalone="no"?>
<!DOCTYPE svg PUBLIC "-//W3C//DTD SVG 1.1//EN"
 "http://www.w3.org/Graphics/SVG/1.1/DTD/svg11.dtd">
<!-- Generated by graphviz version 2.26.3 (20100126.1600)
 -->
<!-- Title: _anonymous_101 Pages: 1 -->
<svg width="274pt" height="388pt"
 viewBox="0.00 0.00 274.00 388.00" xmlns="http://www.w3.org/2000/svg" xmlns:xlink="http://www.w3.org/1999/xlink">
<g id="graph1" class="graph" transform="scale(1 1) rotate(0) translate(4 384)">
<title>_anonymous_101</title>
<polygon fill="white" stroke="white" points="-4,5 -4,-384 271,-384 271,5 -4,5"/>
<!-- 0 -->
<g id="node1" class="node"><title>0</title>
<polygon fill="grey" stroke="grey" points="171,-380 95,-380 95,-336 171,-336 171,-380"/>
<text text-anchor="middle" x="133" y="-367" font-family="Courier,monospace" font-size="10.00">0</text>
<text text-anchor="start" x="102.5" y="-355" font-family="Courier,monospace" font-size="10.00">##prologue</text>
<text text-anchor="start" x="102.5" y="-343" font-family="Courier,monospace" font-size="10.00">##branch</text>
</g>
<!-- 1 -->
<g id="node2" class="node"><title>1</title>
<polygon fill="none" stroke="black" points="228,-300 38,-300 38,-232 228,-232 228,-300"/>
<text text-anchor="middle" x="133" y="-287" font-family="Courier,monospace" font-size="10.00">1</text>
<text text-anchor="start" x="45.5" y="-275" font-family="Courier,monospace" font-size="10.00">##peek 1 D 0</text>
<text text-anchor="start" x="45.5" y="-263" font-family="Courier,monospace" font-size="10.00">##copy 2 1 any&#45;rep</text>
<text text-anchor="start" x="45.5" y="-251" font-family="Courier,monospace" font-size="10.00">##inc&#45;d &#45;1</text>
<text text-anchor="start" x="45.5" y="-239" font-family="Courier,monospace" font-size="10.00">##compare&#45;imm&#45;branch 2 f cc/=</text>
</g>
<!-- 0&#45;&gt;1 -->
<g id="edge1" class="edge"><title>0&#45;&gt;1</title>
<path fill="none" stroke="black" d="M133,-335.729C133,-328.085 133,-319.236 133,-310.463"/>
<polygon fill="black" stroke="black" points="136.5,-310.274 133,-300.274 129.5,-310.274 136.5,-310.274"/>
</g>
<!-- 2 -->
<g id="node3" class="node"><title>2</title>
<polygon fill="none" stroke="black" points="124,-196 2.86368e-14,-196 7.49401e-15,-80 124,-80 124,-196"/>
<text text-anchor="middle" x="62" y="-183" font-family="Courier,monospace" font-size="10.00">2</text>
<text text-anchor="start" x="7.5" y="-171" font-family="Courier,monospace" font-size="10.00">##load&#45;integer 3 1</text>
<text text-anchor="start" x="7.5" y="-159" font-family="Courier,monospace" font-size="10.00">##copy 1 3 any&#45;rep</text>
<text text-anchor="start" x="7.5" y="-147" font-family="Courier,monospace" font-size="10.00">##inc&#45;d 1</text>
<text text-anchor="start" x="7.5" y="-135" font-family="Courier,monospace" font-size="10.00">##copy 7 1 any&#45;rep</text>
<text text-anchor="start" x="7.5" y="-123" font-family="Courier,monospace" font-size="10.00">##inc&#45;d 1</text>
<text text-anchor="start" x="7.5" y="-111" font-family="Courier,monospace" font-size="10.00">##replace 7 D 0</text>
<text text-anchor="start" x="7.5" y="-99" font-family="Courier,monospace" font-size="10.00">##replace 1 D 1</text>
<text text-anchor="start" x="7.5" y="-87" font-family="Courier,monospace" font-size="10.00">##branch</text>
</g>
<!-- 1&#45;&gt;2 -->
<g id="edge2" class="edge"><title>1&#45;&gt;2</title>
<path fill="none" stroke="black" d="M113.973,-231.698C109.366,-223.393 104.284,-214.23 99.1551,-204.984"/>
<polygon fill="black" stroke="black" points="102.149,-203.166 94.2377,-196.119 96.0277,-206.561 102.149,-203.166"/>
</g>
<!-- 4 -->
<g id="node4" class="node"><title>4</title>
<polygon fill="none" stroke="black" points="266,-196 142,-196 142,-80 266,-80 266,-196"/>
<text text-anchor="middle" x="204" y="-183" font-family="Courier,monospace" font-size="10.00">4</text>
<text text-anchor="start" x="149.5" y="-171" font-family="Courier,monospace" font-size="10.00">##load&#45;integer 5 2</text>
<text text-anchor="start" x="149.5" y="-159" font-family="Courier,monospace" font-size="10.00">##copy 1 5 any&#45;rep</text>
<text text-anchor="start" x="149.5" y="-147" font-family="Courier,monospace" font-size="10.00">##inc&#45;d 1</text>
<text text-anchor="start" x="149.5" y="-135" font-family="Courier,monospace" font-size="10.00">##copy 7 1 any&#45;rep</text>
<text text-anchor="start" x="149.5" y="-123" font-family="Courier,monospace" font-size="10.00">##inc&#45;d 1</text>
<text text-anchor="start" x="149.5" y="-111" font-family="Courier,monospace" font-size="10.00">##replace 7 D 0</text>
<text text-anchor="start" x="149.5" y="-99" font-family="Courier,monospace" font-size="10.00">##replace 1 D 1</text>
<text text-anchor="start" x="149.5" y="-87" font-family="Courier,monospace" font-size="10.00">##branch</text>
</g>
<!-- 1&#45;&gt;4 -->
<g id="edge3" class="edge"><title>1&#45;&gt;4</title>
<path fill="none" stroke="black" d="M152.027,-231.698C156.634,-223.393 161.716,-214.23 166.845,-204.984"/>
<polygon fill="black" stroke="black" points="169.972,-206.561 171.762,-196.119 163.851,-203.166 169.972,-206.561"/>
</g>
<!-- 3 -->
<g id="node5" class="node"><title>3</title>
<polygon fill="grey" stroke="grey" points="100,-44 24,-44 24,-1.42109e-14 100,-0 100,-44"/>
<text text-anchor="middle" x="62" y="-31" font-family="Courier,monospace" font-size="10.00">3</text>
<text text-anchor="start" x="31.5" y="-19" font-family="Courier,monospace" font-size="10.00">##epilogue</text>
<text text-anchor="start" x="31.5" y="-7" font-family="Courier,monospace" font-size="10.00">##return</text>
</g>
<!-- 2&#45;&gt;3 -->
<g id="edge4" class="edge"><title>2&#45;&gt;3</title>
<path fill="none" stroke="black" d="M62,-80C62,-71.0995 62,-62.1989 62,-54.1368"/>
<polygon fill="black" stroke="black" points="65.5001,-54.0917 62,-44.0918 58.5001,-54.0918 65.5001,-54.0917"/>
</g>
<!-- 5 -->
<g id="node6" class="node"><title>5</title>
<polygon fill="grey" stroke="grey" points="242,-44 166,-44 166,-1.42109e-14 242,-0 242,-44"/>
<text text-anchor="middle" x="204" y="-31" font-family="Courier,monospace" font-size="10.00">5</text>
<text text-anchor="start" x="173.5" y="-19" font-family="Courier,monospace" font-size="10.00">##epilogue</text>
<text text-anchor="start" x="173.5" y="-7" font-family="Courier,monospace" font-size="10.00">##return</text>
</g>
<!-- 4&#45;&gt;5 -->
<g id="edge5" class="edge"><title>4&#45;&gt;5</title>
<path fill="none" stroke="black" d="M204,-80C204,-71.0995 204,-62.1989 204,-54.1368"/>
<polygon fill="black" stroke="black" points="207.5,-54.0917 204,-44.0918 200.5,-54.0918 207.5,-54.0917"/>
</g>
</g>
</svg>
