<?xml version="1.0" encoding="UTF-8" standalone="no"?>
<!DOCTYPE svg PUBLIC "-//W3C//DTD SVG 1.1//EN"
 "http://www.w3.org/Graphics/SVG/1.1/DTD/svg11.dtd">
<!-- Generated by graphviz version 2.26.3 (20100126.1600)
 -->
<!-- Title: _anonymous_32 Pages: 1 -->
<svg width="274pt" height="352pt"
 viewBox="0.00 0.00 274.00 352.00" xmlns="http://www.w3.org/2000/svg" xmlns:xlink="http://www.w3.org/1999/xlink">
<g id="graph1" class="graph" transform="scale(1 1) rotate(0) translate(4 348)">
<title>_anonymous_32</title>
<polygon fill="white" stroke="white" points="-4,5 -4,-348 271,-348 271,5 -4,5"/>
<!-- 0 -->
<g id="node1" class="node"><title>0</title>
<polygon fill="none" stroke="black" points="171,-344 95,-344 95,-300 171,-300 171,-344"/>
<text text-anchor="middle" x="133" y="-331" font-family="Courier,monospace" font-size="10.00">0</text>
<text text-anchor="start" x="102.5" y="-319" font-family="Courier,monospace" font-size="10.00">##prologue</text>
<text text-anchor="start" x="102.5" y="-307" font-family="Courier,monospace" font-size="10.00">##branch</text>
</g>
<!-- 1 -->
<g id="node2" class="node"><title>1</title>
<polygon fill="none" stroke="black" points="228,-264 38,-264 38,-196 228,-196 228,-264"/>
<text text-anchor="middle" x="133" y="-251" font-family="Courier,monospace" font-size="10.00">1</text>
<text text-anchor="start" x="45.5" y="-239" font-family="Courier,monospace" font-size="10.00">##inc&#45;d &#45;1</text>
<text text-anchor="start" x="45.5" y="-227" font-family="Courier,monospace" font-size="10.00">##peek 1 D &#45;1</text>
<text text-anchor="start" x="45.5" y="-215" font-family="Courier,monospace" font-size="10.00">##copy 2 1 any&#45;rep</text>
<text text-anchor="start" x="45.5" y="-203" font-family="Courier,monospace" font-size="10.00">##compare&#45;imm&#45;branch 2 f cc/=</text>
</g>
<!-- 0&#45;&gt;1 -->
<g id="edge1" class="edge"><title>0&#45;&gt;1</title>
<path fill="none" stroke="black" d="M133,-299.729C133,-292.085 133,-283.236 133,-274.463"/>
<polygon fill="black" stroke="black" points="136.5,-274.274 133,-264.274 129.5,-274.274 136.5,-274.274"/>
</g>
<!-- 2 -->
<g id="node3" class="node"><title>2</title>
<polygon fill="none" stroke="black" points="124,-160 2.86368e-14,-160 7.49401e-15,-80 124,-80 124,-160"/>
<text text-anchor="middle" x="62" y="-147" font-family="Courier,monospace" font-size="10.00">2</text>
<text text-anchor="start" x="7.5" y="-135" font-family="Courier,monospace" font-size="10.00">##inc&#45;d 1</text>
<text text-anchor="start" x="7.5" y="-123" font-family="Courier,monospace" font-size="10.00">##load&#45;integer 3 1</text>
<text text-anchor="start" x="7.5" y="-111" font-family="Courier,monospace" font-size="10.00">##copy 1 3 any&#45;rep</text>
<text text-anchor="start" x="7.5" y="-99" font-family="Courier,monospace" font-size="10.00">##replace 1 D 0</text>
<text text-anchor="start" x="7.5" y="-87" font-family="Courier,monospace" font-size="10.00">##branch</text>
</g>
<!-- 1&#45;&gt;2 -->
<g id="edge2" class="edge"><title>1&#45;&gt;2</title>
<path fill="none" stroke="black" d="M110.924,-195.798C105.433,-187.291 99.4397,-178.005 93.5895,-168.942"/>
<polygon fill="black" stroke="black" points="96.4093,-166.856 88.0456,-160.352 90.528,-170.652 96.4093,-166.856"/>
</g>
<!-- 4 -->
<g id="node4" class="node"><title>4</title>
<polygon fill="none" stroke="black" points="266,-160 142,-160 142,-80 266,-80 266,-160"/>
<text text-anchor="middle" x="204" y="-147" font-family="Courier,monospace" font-size="10.00">4</text>
<text text-anchor="start" x="149.5" y="-135" font-family="Courier,monospace" font-size="10.00">##inc&#45;d 1</text>
<text text-anchor="start" x="149.5" y="-123" font-family="Courier,monospace" font-size="10.00">##load&#45;integer 5 2</text>
<text text-anchor="start" x="149.5" y="-111" font-family="Courier,monospace" font-size="10.00">##copy 1 5 any&#45;rep</text>
<text text-anchor="start" x="149.5" y="-99" font-family="Courier,monospace" font-size="10.00">##replace 1 D 0</text>
<text text-anchor="start" x="149.5" y="-87" font-family="Courier,monospace" font-size="10.00">##branch</text>
</g>
<!-- 1&#45;&gt;4 -->
<g id="edge3" class="edge"><title>1&#45;&gt;4</title>
<path fill="none" stroke="black" d="M155.076,-195.798C160.567,-187.291 166.56,-178.005 172.41,-168.942"/>
<polygon fill="black" stroke="black" points="175.472,-170.652 177.954,-160.352 169.591,-166.856 175.472,-170.652"/>
</g>
<!-- 3 -->
<g id="node5" class="node"><title>3</title>
<polygon fill="none" stroke="black" points="100,-44 24,-44 24,-1.42109e-14 100,-0 100,-44"/>
<text text-anchor="middle" x="62" y="-31" font-family="Courier,monospace" font-size="10.00">3</text>
<text text-anchor="start" x="31.5" y="-19" font-family="Courier,monospace" font-size="10.00">##epilogue</text>
<text text-anchor="start" x="31.5" y="-7" font-family="Courier,monospace" font-size="10.00">##return</text>
</g>
<!-- 2&#45;&gt;3 -->
<g id="edge4" class="edge"><title>2&#45;&gt;3</title>
<path fill="none" stroke="black" d="M62,-79.8569C62,-71.4035 62,-62.5863 62,-54.4574"/>
<polygon fill="black" stroke="black" points="65.5001,-54.2559 62,-44.2559 58.5001,-54.2559 65.5001,-54.2559"/>
</g>
<!-- 5 -->
<g id="node6" class="node"><title>5</title>
<polygon fill="none" stroke="black" points="242,-44 166,-44 166,-1.42109e-14 242,-0 242,-44"/>
<text text-anchor="middle" x="204" y="-31" font-family="Courier,monospace" font-size="10.00">5</text>
<text text-anchor="start" x="173.5" y="-19" font-family="Courier,monospace" font-size="10.00">##epilogue</text>
<text text-anchor="start" x="173.5" y="-7" font-family="Courier,monospace" font-size="10.00">##return</text>
</g>
<!-- 4&#45;&gt;5 -->
<g id="edge5" class="edge"><title>4&#45;&gt;5</title>
<path fill="none" stroke="black" d="M204,-79.8569C204,-71.4035 204,-62.5863 204,-54.4574"/>
<polygon fill="black" stroke="black" points="207.5,-54.2559 204,-44.2559 200.5,-54.2559 207.5,-54.2559"/>
</g>
</g>
</svg>
