<?xml version="1.0" encoding="UTF-8" standalone="no"?>
<!DOCTYPE svg PUBLIC "-//W3C//DTD SVG 1.1//EN"
 "http://www.w3.org/Graphics/SVG/1.1/DTD/svg11.dtd">
<!-- Generated by graphviz version 2.26.3 (20100126.1600)
 -->
<!-- Title: _anonymous_103 Pages: 1 -->
<svg width="298pt" height="376pt"
 viewBox="0.00 0.00 298.00 376.00" xmlns="http://www.w3.org/2000/svg" xmlns:xlink="http://www.w3.org/1999/xlink">
<g id="graph1" class="graph" transform="scale(1 1) rotate(0) translate(4 372)">
<title>_anonymous_103</title>
<polygon fill="white" stroke="white" points="-4,5 -4,-372 295,-372 295,5 -4,5"/>
<!-- 0 -->
<g id="node1" class="node"><title>0</title>
<polygon fill="grey" stroke="grey" points="183,-368 107,-368 107,-324 183,-324 183,-368"/>
<text text-anchor="middle" x="145" y="-355" font-family="Courier,monospace" font-size="10.00">0</text>
<text text-anchor="start" x="114.5" y="-343" font-family="Courier,monospace" font-size="10.00">##prologue</text>
<text text-anchor="start" x="114.5" y="-331" font-family="Courier,monospace" font-size="10.00">##branch</text>
</g>
<!-- 1 -->
<g id="node2" class="node"><title>1</title>
<polygon fill="none" stroke="black" points="243,-288 47,-288 47,-220 243,-220 243,-288"/>
<text text-anchor="middle" x="145" y="-275" font-family="Courier,monospace" font-size="10.00">1</text>
<text text-anchor="start" x="54.5" y="-263" font-family="Courier,monospace" font-size="10.00">##inc&#45;d &#45;1</text>
<text text-anchor="start" x="54.5" y="-251" font-family="Courier,monospace" font-size="10.00">##peek 9 D &#45;1</text>
<text text-anchor="start" x="54.5" y="-239" font-family="Courier,monospace" font-size="10.00">##copy 10 9 any&#45;rep</text>
<text text-anchor="start" x="54.5" y="-227" font-family="Courier,monospace" font-size="10.00">##compare&#45;imm&#45;branch 10 f cc/=</text>
</g>
<!-- 0&#45;&gt;1 -->
<g id="edge1" class="edge"><title>0&#45;&gt;1</title>
<path fill="none" stroke="black" d="M145,-345.933C145,-344.526 145,-321.067 145,-298.202"/>
<polygon fill="black" stroke="black" points="148.5,-298.163 145,-288.163 141.5,-298.163 148.5,-298.163"/>
</g>
<!-- 2 -->
<g id="node3" class="node"><title>2</title>
<polygon fill="none" stroke="black" points="136,-184 2.76029e-14,-184 1.34961e-14,-80 136,-80 136,-184"/>
<text text-anchor="middle" x="68" y="-171" font-family="Courier,monospace" font-size="10.00">2</text>
<text text-anchor="start" x="7.5" y="-159" font-family="Courier,monospace" font-size="10.00">##inc&#45;d 2</text>
<text text-anchor="start" x="7.5" y="-147" font-family="Courier,monospace" font-size="10.00">##load&#45;integer 11 1</text>
<text text-anchor="start" x="7.5" y="-135" font-family="Courier,monospace" font-size="10.00">##copy 12 11 any&#45;rep</text>
<text text-anchor="start" x="7.5" y="-123" font-family="Courier,monospace" font-size="10.00">##copy 13 12 any&#45;rep</text>
<text text-anchor="start" x="7.5" y="-111" font-family="Courier,monospace" font-size="10.00">##replace 13 D 0</text>
<text text-anchor="start" x="7.5" y="-99" font-family="Courier,monospace" font-size="10.00">##replace 12 D 1</text>
<text text-anchor="start" x="7.5" y="-87" font-family="Courier,monospace" font-size="10.00">##branch</text>
</g>
<!-- 1&#45;&gt;2 -->
<g id="edge2" class="edge"><title>1&#45;&gt;2</title>
<path fill="none" stroke="black" d="M123.346,-219.692C118.034,-211.274 112.188,-202.011 106.346,-192.757"/>
<polygon fill="black" stroke="black" points="109.296,-190.872 100.999,-184.284 103.376,-194.608 109.296,-190.872"/>
</g>
<!-- 4 -->
<g id="node4" class="node"><title>4</title>
<polygon fill="none" stroke="black" points="290,-184 154,-184 154,-80 290,-80 290,-184"/>
<text text-anchor="middle" x="222" y="-171" font-family="Courier,monospace" font-size="10.00">4</text>
<text text-anchor="start" x="161.5" y="-159" font-family="Courier,monospace" font-size="10.00">##inc&#45;d 2</text>
<text text-anchor="start" x="161.5" y="-147" font-family="Courier,monospace" font-size="10.00">##load&#45;integer 14 2</text>
<text text-anchor="start" x="161.5" y="-135" font-family="Courier,monospace" font-size="10.00">##copy 15 14 any&#45;rep</text>
<text text-anchor="start" x="161.5" y="-123" font-family="Courier,monospace" font-size="10.00">##copy 16 15 any&#45;rep</text>
<text text-anchor="start" x="161.5" y="-111" font-family="Courier,monospace" font-size="10.00">##replace 16 D 0</text>
<text text-anchor="start" x="161.5" y="-99" font-family="Courier,monospace" font-size="10.00">##replace 15 D 1</text>
<text text-anchor="start" x="161.5" y="-87" font-family="Courier,monospace" font-size="10.00">##branch</text>
</g>
<!-- 1&#45;&gt;4 -->
<g id="edge3" class="edge"><title>1&#45;&gt;4</title>
<path fill="none" stroke="black" d="M166.654,-219.692C171.966,-211.274 177.812,-202.011 183.654,-192.757"/>
<polygon fill="black" stroke="black" points="186.624,-194.608 189.001,-184.284 180.704,-190.872 186.624,-194.608"/>
</g>
<!-- 3 -->
<g id="node5" class="node"><title>3</title>
<polygon fill="grey" stroke="grey" points="106,-44 30,-44 30,-1.42109e-14 106,-0 106,-44"/>
<text text-anchor="middle" x="68" y="-31" font-family="Courier,monospace" font-size="10.00">3</text>
<text text-anchor="start" x="37.5" y="-19" font-family="Courier,monospace" font-size="10.00">##epilogue</text>
<text text-anchor="start" x="37.5" y="-7" font-family="Courier,monospace" font-size="10.00">##return</text>
</g>
<!-- 2&#45;&gt;3 -->
<g id="edge4" class="edge"><title>2&#45;&gt;3</title>
<path fill="none" stroke="black" d="M68,-79.8992C68,-71.1731 68,-62.3494 68,-54.31"/>
<polygon fill="black" stroke="black" points="71.5001,-54.2674 68,-44.2674 64.5001,-54.2674 71.5001,-54.2674"/>
</g>
<!-- 5 -->
<g id="node6" class="node"><title>5</title>
<polygon fill="grey" stroke="grey" points="260,-44 184,-44 184,-1.42109e-14 260,-0 260,-44"/>
<text text-anchor="middle" x="222" y="-31" font-family="Courier,monospace" font-size="10.00">5</text>
<text text-anchor="start" x="191.5" y="-19" font-family="Courier,monospace" font-size="10.00">##epilogue</text>
<text text-anchor="start" x="191.5" y="-7" font-family="Courier,monospace" font-size="10.00">##return</text>
</g>
<!-- 4&#45;&gt;5 -->
<g id="edge5" class="edge"><title>4&#45;&gt;5</title>
<path fill="none" stroke="black" d="M222,-79.8992C222,-71.1731 222,-62.3494 222,-54.31"/>
<polygon fill="black" stroke="black" points="225.5,-54.2674 222,-44.2674 218.5,-54.2674 225.5,-54.2674"/>
</g>
</g>
</svg>
