<?xml version="1.0" encoding="UTF-8" standalone="no"?>
<!DOCTYPE svg PUBLIC "-//W3C//DTD SVG 1.1//EN"
 "http://www.w3.org/Graphics/SVG/1.1/DTD/svg11.dtd">
<!-- Generated by graphviz version 2.26.3 (20100126.1600)
 -->
<!-- Title: _anonymous_35 Pages: 1 -->
<svg width="292pt" height="352pt"
 viewBox="0.00 0.00 292.00 352.00" xmlns="http://www.w3.org/2000/svg" xmlns:xlink="http://www.w3.org/1999/xlink">
<g id="graph1" class="graph" transform="scale(1 1) rotate(0) translate(4 348)">
<title>_anonymous_35</title>
<polygon fill="white" stroke="white" points="-4,5 -4,-348 289,-348 289,5 -4,5"/>
<!-- 0 -->
<g id="node1" class="node"><title>0</title>
<polygon fill="none" stroke="black" points="178,-344 102,-344 102,-300 178,-300 178,-344"/>
<text text-anchor="middle" x="140" y="-331" font-family="Courier,monospace" font-size="10.00">0</text>
<text text-anchor="start" x="109.5" y="-319" font-family="Courier,monospace" font-size="10.00">##prologue</text>
<text text-anchor="start" x="109.5" y="-307" font-family="Courier,monospace" font-size="10.00">##branch</text>
</g>
<!-- 1 -->
<g id="node2" class="node"><title>1</title>
<polygon fill="none" stroke="black" points="235,-264 45,-264 45,-196 235,-196 235,-264"/>
<text text-anchor="middle" x="140" y="-251" font-family="Courier,monospace" font-size="10.00">1</text>
<text text-anchor="start" x="52.5" y="-239" font-family="Courier,monospace" font-size="10.00">##inc&#45;d &#45;1</text>
<text text-anchor="start" x="52.5" y="-227" font-family="Courier,monospace" font-size="10.00">##peek 7 D &#45;1</text>
<text text-anchor="start" x="52.5" y="-215" font-family="Courier,monospace" font-size="10.00">##copy 8 7 any&#45;rep</text>
<text text-anchor="start" x="52.5" y="-203" font-family="Courier,monospace" font-size="10.00">##compare&#45;imm&#45;branch 8 f cc/=</text>
</g>
<!-- 0&#45;&gt;1 -->
<g id="edge1" class="edge"><title>0&#45;&gt;1</title>
<path fill="none" stroke="black" d="M140,-299.729C140,-292.085 140,-283.236 140,-274.463"/>
<polygon fill="black" stroke="black" points="143.5,-274.274 140,-264.274 136.5,-274.274 143.5,-274.274"/>
</g>
<!-- 2 -->
<g id="node3" class="node"><title>2</title>
<polygon fill="none" stroke="black" points="130,-160 4.31391e-14,-160 1.49325e-14,-80 130,-80 130,-160"/>
<text text-anchor="middle" x="65" y="-147" font-family="Courier,monospace" font-size="10.00">2</text>
<text text-anchor="start" x="7.5" y="-135" font-family="Courier,monospace" font-size="10.00">##inc&#45;d 1</text>
<text text-anchor="start" x="7.5" y="-123" font-family="Courier,monospace" font-size="10.00">##load&#45;integer 9 1</text>
<text text-anchor="start" x="7.5" y="-111" font-family="Courier,monospace" font-size="10.00">##copy 10 9 any&#45;rep</text>
<text text-anchor="start" x="7.5" y="-99" font-family="Courier,monospace" font-size="10.00">##replace&#45;imm 1 D 0</text>
<text text-anchor="start" x="7.5" y="-87" font-family="Courier,monospace" font-size="10.00">##branch</text>
</g>
<!-- 1&#45;&gt;2 -->
<g id="edge2" class="edge"><title>1&#45;&gt;2</title>
<path fill="none" stroke="black" d="M116.681,-195.798C110.82,-187.203 104.418,-177.814 98.1782,-168.661"/>
<polygon fill="black" stroke="black" points="101.038,-166.643 92.513,-160.352 95.2546,-170.586 101.038,-166.643"/>
</g>
<!-- 4 -->
<g id="node4" class="node"><title>4</title>
<polygon fill="none" stroke="black" points="284,-160 148,-160 148,-80 284,-80 284,-160"/>
<text text-anchor="middle" x="216" y="-147" font-family="Courier,monospace" font-size="10.00">4</text>
<text text-anchor="start" x="155.5" y="-135" font-family="Courier,monospace" font-size="10.00">##inc&#45;d 1</text>
<text text-anchor="start" x="155.5" y="-123" font-family="Courier,monospace" font-size="10.00">##load&#45;integer 11 2</text>
<text text-anchor="start" x="155.5" y="-111" font-family="Courier,monospace" font-size="10.00">##copy 12 11 any&#45;rep</text>
<text text-anchor="start" x="155.5" y="-99" font-family="Courier,monospace" font-size="10.00">##replace&#45;imm 2 D 0</text>
<text text-anchor="start" x="155.5" y="-87" font-family="Courier,monospace" font-size="10.00">##branch</text>
</g>
<!-- 1&#45;&gt;4 -->
<g id="edge3" class="edge"><title>1&#45;&gt;4</title>
<path fill="none" stroke="black" d="M163.63,-195.798C169.569,-187.203 176.056,-177.814 182.379,-168.661"/>
<polygon fill="black" stroke="black" points="185.315,-170.569 188.12,-160.352 179.556,-166.59 185.315,-170.569"/>
</g>
<!-- 3 -->
<g id="node5" class="node"><title>3</title>
<polygon fill="none" stroke="black" points="103,-44 27,-44 27,-1.42109e-14 103,-0 103,-44"/>
<text text-anchor="middle" x="65" y="-31" font-family="Courier,monospace" font-size="10.00">3</text>
<text text-anchor="start" x="34.5" y="-19" font-family="Courier,monospace" font-size="10.00">##epilogue</text>
<text text-anchor="start" x="34.5" y="-7" font-family="Courier,monospace" font-size="10.00">##return</text>
</g>
<!-- 2&#45;&gt;3 -->
<g id="edge4" class="edge"><title>2&#45;&gt;3</title>
<path fill="none" stroke="black" d="M65,-79.8569C65,-71.4035 65,-62.5863 65,-54.4574"/>
<polygon fill="black" stroke="black" points="68.5001,-54.2559 65,-44.2559 61.5001,-54.2559 68.5001,-54.2559"/>
</g>
<!-- 5 -->
<g id="node6" class="node"><title>5</title>
<polygon fill="none" stroke="black" points="254,-44 178,-44 178,-1.42109e-14 254,-0 254,-44"/>
<text text-anchor="middle" x="216" y="-31" font-family="Courier,monospace" font-size="10.00">5</text>
<text text-anchor="start" x="185.5" y="-19" font-family="Courier,monospace" font-size="10.00">##epilogue</text>
<text text-anchor="start" x="185.5" y="-7" font-family="Courier,monospace" font-size="10.00">##return</text>
</g>
<!-- 4&#45;&gt;5 -->
<g id="edge5" class="edge"><title>4&#45;&gt;5</title>
<path fill="none" stroke="black" d="M216,-79.8569C216,-71.4035 216,-62.5863 216,-54.4574"/>
<polygon fill="black" stroke="black" points="219.5,-54.2559 216,-44.2559 212.5,-54.2559 219.5,-54.2559"/>
</g>
</g>
</svg>
