<?xml version="1.0" encoding="UTF-8" standalone="no"?>
<!DOCTYPE svg PUBLIC "-//W3C//DTD SVG 1.1//EN"
 "http://www.w3.org/Graphics/SVG/1.1/DTD/svg11.dtd">
<!-- Generated by graphviz version 2.26.3 (20100126.1600)
 -->
<!-- Title: _anonymous_106 Pages: 1 -->
<svg width="286pt" height="340pt"
 viewBox="0.00 0.00 286.00 340.00" xmlns="http://www.w3.org/2000/svg" xmlns:xlink="http://www.w3.org/1999/xlink">
<g id="graph1" class="graph" transform="scale(1 1) rotate(0) translate(4 336)">
<title>_anonymous_106</title>
<polygon fill="white" stroke="white" points="-4,5 -4,-336 283,-336 283,5 -4,5"/>
<!-- 0 -->
<g id="node1" class="node"><title>0</title>
<polygon fill="grey" stroke="grey" points="177,-332 101,-332 101,-288 177,-288 177,-332"/>
<text text-anchor="middle" x="139" y="-319" font-family="Courier,monospace" font-size="10.00">0</text>
<text text-anchor="start" x="108.5" y="-307" font-family="Courier,monospace" font-size="10.00">##prologue</text>
<text text-anchor="start" x="108.5" y="-295" font-family="Courier,monospace" font-size="10.00">##branch</text>
</g>
<!-- 1 -->
<g id="node2" class="node"><title>1</title>
<polygon fill="none" stroke="black" points="234,-252 44,-252 44,-196 234,-196 234,-252"/>
<text text-anchor="middle" x="139" y="-239" font-family="Courier,monospace" font-size="10.00">1</text>
<text text-anchor="start" x="51.5" y="-227" font-family="Courier,monospace" font-size="10.00">##inc&#45;d &#45;1</text>
<text text-anchor="start" x="51.5" y="-215" font-family="Courier,monospace" font-size="10.00">##peek 9 D &#45;1</text>
<text text-anchor="start" x="51.5" y="-203" font-family="Courier,monospace" font-size="10.00">##compare&#45;imm&#45;branch 9 f cc/=</text>
</g>
<!-- 0&#45;&gt;1 -->
<g id="edge1" class="edge"><title>0&#45;&gt;1</title>
<path fill="none" stroke="black" d="M139,-309.938C139,-308.562 139,-284.642 139,-262.388"/>
<polygon fill="black" stroke="black" points="142.5,-262.368 139,-252.368 135.5,-262.368 142.5,-262.368"/>
</g>
<!-- 2 -->
<g id="node3" class="node"><title>2</title>
<polygon fill="none" stroke="black" points="130,-160 4.31391e-14,-160 1.49325e-14,-80 130,-80 130,-160"/>
<text text-anchor="middle" x="65" y="-147" font-family="Courier,monospace" font-size="10.00">2</text>
<text text-anchor="start" x="7.5" y="-135" font-family="Courier,monospace" font-size="10.00">##inc&#45;d 2</text>
<text text-anchor="start" x="7.5" y="-123" font-family="Courier,monospace" font-size="10.00">##load&#45;integer 11 1</text>
<text text-anchor="start" x="7.5" y="-111" font-family="Courier,monospace" font-size="10.00">##replace&#45;imm 1 D 0</text>
<text text-anchor="start" x="7.5" y="-99" font-family="Courier,monospace" font-size="10.00">##replace&#45;imm 1 D 1</text>
<text text-anchor="start" x="7.5" y="-87" font-family="Courier,monospace" font-size="10.00">##branch</text>
</g>
<!-- 1&#45;&gt;2 -->
<g id="edge2" class="edge"><title>1&#45;&gt;2</title>
<path fill="none" stroke="black" d="M118.975,-195.856C112.949,-187.388 106.157,-177.843 99.4755,-168.452"/>
<polygon fill="black" stroke="black" points="102.304,-166.39 93.6542,-160.271 96.6,-170.448 102.304,-166.39"/>
</g>
<!-- 4 -->
<g id="node4" class="node"><title>4</title>
<polygon fill="none" stroke="black" points="278,-160 148,-160 148,-80 278,-80 278,-160"/>
<text text-anchor="middle" x="213" y="-147" font-family="Courier,monospace" font-size="10.00">4</text>
<text text-anchor="start" x="155.5" y="-135" font-family="Courier,monospace" font-size="10.00">##inc&#45;d 2</text>
<text text-anchor="start" x="155.5" y="-123" font-family="Courier,monospace" font-size="10.00">##load&#45;integer 14 2</text>
<text text-anchor="start" x="155.5" y="-111" font-family="Courier,monospace" font-size="10.00">##replace&#45;imm 2 D 0</text>
<text text-anchor="start" x="155.5" y="-99" font-family="Courier,monospace" font-size="10.00">##replace&#45;imm 2 D 1</text>
<text text-anchor="start" x="155.5" y="-87" font-family="Courier,monospace" font-size="10.00">##branch</text>
</g>
<!-- 1&#45;&gt;4 -->
<g id="edge3" class="edge"><title>1&#45;&gt;4</title>
<path fill="none" stroke="black" d="M159.025,-195.856C165.051,-187.388 171.843,-177.843 178.524,-168.452"/>
<polygon fill="black" stroke="black" points="181.4,-170.448 184.346,-160.271 175.696,-166.39 181.4,-170.448"/>
</g>
<!-- 3 -->
<g id="node5" class="node"><title>3</title>
<polygon fill="grey" stroke="grey" points="103,-44 27,-44 27,-1.42109e-14 103,-0 103,-44"/>
<text text-anchor="middle" x="65" y="-31" font-family="Courier,monospace" font-size="10.00">3</text>
<text text-anchor="start" x="34.5" y="-19" font-family="Courier,monospace" font-size="10.00">##epilogue</text>
<text text-anchor="start" x="34.5" y="-7" font-family="Courier,monospace" font-size="10.00">##return</text>
</g>
<!-- 2&#45;&gt;3 -->
<g id="edge4" class="edge"><title>2&#45;&gt;3</title>
<path fill="none" stroke="black" d="M65,-79.8569C65,-71.4035 65,-62.5863 65,-54.4574"/>
<polygon fill="black" stroke="black" points="68.5001,-54.2559 65,-44.2559 61.5001,-54.2559 68.5001,-54.2559"/>
</g>
<!-- 5 -->
<g id="node6" class="node"><title>5</title>
<polygon fill="grey" stroke="grey" points="251,-44 175,-44 175,-1.42109e-14 251,-0 251,-44"/>
<text text-anchor="middle" x="213" y="-31" font-family="Courier,monospace" font-size="10.00">5</text>
<text text-anchor="start" x="182.5" y="-19" font-family="Courier,monospace" font-size="10.00">##epilogue</text>
<text text-anchor="start" x="182.5" y="-7" font-family="Courier,monospace" font-size="10.00">##return</text>
</g>
<!-- 4&#45;&gt;5 -->
<g id="edge5" class="edge"><title>4&#45;&gt;5</title>
<path fill="none" stroke="black" d="M213,-79.8569C213,-71.4035 213,-62.5863 213,-54.4574"/>
<polygon fill="black" stroke="black" points="216.5,-54.2559 213,-44.2559 209.5,-54.2559 216.5,-54.2559"/>
</g>
</g>
</svg>
