<?xml version="1.0" encoding="UTF-8" standalone="no"?>
<!DOCTYPE svg PUBLIC "-//W3C//DTD SVG 1.1//EN"
 "http://www.w3.org/Graphics/SVG/1.1/DTD/svg11.dtd">
<!-- Generated by graphviz version 2.26.3 (20100126.1600)
 -->
<!-- Title: _anonymous_605 Pages: 1 -->
<svg width="298pt" height="834pt"
 viewBox="0.00 0.00 298.00 834.00" xmlns="http://www.w3.org/2000/svg" xmlns:xlink="http://www.w3.org/1999/xlink">
<g id="graph1" class="graph" transform="scale(1 1) rotate(0) translate(4 830)">
<title>_anonymous_605</title>
<polygon fill="white" stroke="white" points="-4,5 -4,-830 295,-830 295,5 -4,5"/>
<!-- 0 -->
<g id="node1" class="node"><title>0</title>
<polygon fill="grey" stroke="grey" points="183,-544 107,-544 107,-500 183,-500 183,-544"/>
<text text-anchor="middle" x="145" y="-531" font-family="Courier,monospace" font-size="10.00">0</text>
<text text-anchor="start" x="114.5" y="-519" font-family="Courier,monospace" font-size="10.00">##prologue</text>
<text text-anchor="start" x="114.5" y="-507" font-family="Courier,monospace" font-size="10.00">##branch</text>
</g>
<!-- 1 -->
<g id="node2" class="node"><title>1</title>
<polygon fill="none" stroke="black" stroke-width="2" points="243,-464 47,-464 47,-396 243,-396 243,-464"/>
<text text-anchor="middle" x="145" y="-451" font-family="Courier,monospace" font-size="10.00">1</text>
<text text-anchor="start" x="54.5" y="-439" font-family="Courier,monospace" font-size="10.00">##inc&#45;d &#45;1</text>
<text text-anchor="start" x="54.5" y="-427" font-family="Courier,monospace" font-size="10.00">##peek 14 D &#45;1</text>
<text text-anchor="start" x="54.5" y="-415" font-family="Courier,monospace" font-size="10.00">##copy 15 14 any&#45;rep</text>
<text text-anchor="start" x="54.5" y="-403" font-family="Courier,monospace" font-size="10.00">##compare&#45;imm&#45;branch 15 f cc/=</text>
</g>
<!-- 0&#45;&gt;1 -->
<g id="edge1" class="edge"><title>0&#45;&gt;1</title>
<path fill="none" stroke="black" d="M145,-499.729C145,-492.085 145,-483.236 145,-474.463"/>
<polygon fill="black" stroke="black" points="148.5,-474.274 145,-464.274 141.5,-474.274 148.5,-474.274"/>
</g>
<!-- 2 -->
<g id="node3" class="node"><title>2</title>
<polygon fill="none" stroke="black" points="136,-360 2.76029e-14,-360 1.34961e-14,-292 136,-292 136,-360"/>
<text text-anchor="middle" x="68" y="-347" font-family="Courier,monospace" font-size="10.00">2</text>
<text text-anchor="start" x="7.5" y="-335" font-family="Courier,monospace" font-size="10.00">##inc&#45;d 1</text>
<text text-anchor="start" x="7.5" y="-323" font-family="Courier,monospace" font-size="10.00">##load&#45;integer 25 10</text>
<text text-anchor="start" x="7.5" y="-311" font-family="Courier,monospace" font-size="10.00">##copy 26 25 any&#45;rep</text>
<text text-anchor="start" x="7.5" y="-299" font-family="Courier,monospace" font-size="10.00">##branch</text>
</g>
<!-- 1&#45;&gt;2 -->
<g id="edge2" class="edge"><title>1&#45;&gt;2</title>
<path fill="none" stroke="black" d="M119.787,-395.947C113.273,-387.148 106.18,-377.567 99.3918,-368.399"/>
<polygon fill="black" stroke="black" points="102.033,-366.084 93.2693,-360.13 96.4069,-370.25 102.033,-366.084"/>
</g>
<!-- 3 -->
<g id="node4" class="node"><title>3</title>
<polygon fill="none" stroke="black" points="290,-360 154,-360 154,-292 290,-292 290,-360"/>
<text text-anchor="middle" x="222" y="-347" font-family="Courier,monospace" font-size="10.00">3</text>
<text text-anchor="start" x="161.5" y="-335" font-family="Courier,monospace" font-size="10.00">##inc&#45;d 1</text>
<text text-anchor="start" x="161.5" y="-323" font-family="Courier,monospace" font-size="10.00">##load&#45;integer 16 20</text>
<text text-anchor="start" x="161.5" y="-311" font-family="Courier,monospace" font-size="10.00">##copy 17 16 any&#45;rep</text>
<text text-anchor="start" x="161.5" y="-299" font-family="Courier,monospace" font-size="10.00">##branch</text>
</g>
<!-- 1&#45;&gt;3 -->
<g id="edge3" class="edge"><title>1&#45;&gt;3</title>
<path fill="none" stroke="black" d="M170.213,-395.947C176.727,-387.148 183.82,-377.567 190.608,-368.399"/>
<polygon fill="black" stroke="black" points="193.593,-370.25 196.731,-360.13 187.967,-366.084 193.593,-370.25"/>
</g>
<!-- 4 -->
<g id="node5" class="node"><title>4</title>
<polygon fill="none" stroke="black" points="246,-256 44,-256 44,-80 246,-80 246,-256"/>
<text text-anchor="middle" x="145" y="-243" font-family="Courier,monospace" font-size="10.00">4</text>
<text text-anchor="start" x="51.5" y="-231" font-family="Courier,monospace" font-size="10.00">##phi 18 H{ { 2 26 } { 3 17 } }</text>
<text text-anchor="start" x="51.5" y="-219" font-family="Courier,monospace" font-size="10.00">##inc&#45;d 3</text>
<text text-anchor="start" x="51.5" y="-207" font-family="Courier,monospace" font-size="10.00">##load&#45;integer 19 10</text>
<text text-anchor="start" x="51.5" y="-195" font-family="Courier,monospace" font-size="10.00">##load&#45;integer 20 20</text>
<text text-anchor="start" x="51.5" y="-183" font-family="Courier,monospace" font-size="10.00">##load&#45;integer 21 30</text>
<text text-anchor="start" x="51.5" y="-171" font-family="Courier,monospace" font-size="10.00">##copy 22 21 any&#45;rep</text>
<text text-anchor="start" x="51.5" y="-159" font-family="Courier,monospace" font-size="10.00">##copy 23 20 any&#45;rep</text>
<text text-anchor="start" x="51.5" y="-147" font-family="Courier,monospace" font-size="10.00">##copy 24 19 any&#45;rep</text>
<text text-anchor="start" x="51.5" y="-135" font-family="Courier,monospace" font-size="10.00">##replace 24 D 2</text>
<text text-anchor="start" x="51.5" y="-123" font-family="Courier,monospace" font-size="10.00">##replace 18 D 3</text>
<text text-anchor="start" x="51.5" y="-111" font-family="Courier,monospace" font-size="10.00">##replace 22 D 0</text>
<text text-anchor="start" x="51.5" y="-99" font-family="Courier,monospace" font-size="10.00">##replace 23 D 1</text>
<text text-anchor="start" x="51.5" y="-87" font-family="Courier,monospace" font-size="10.00">##branch</text>
</g>
<!-- 2&#45;&gt;4 -->
<g id="edge4" class="edge"><title>2&#45;&gt;4</title>
<path fill="none" stroke="black" d="M84.7079,-291.716C88.6631,-283.6 93.0758,-274.546 97.6657,-265.128"/>
<polygon fill="black" stroke="black" points="100.877,-266.528 102.111,-256.005 94.5841,-263.461 100.877,-266.528"/>
</g>
<!-- 3&#45;&gt;4 -->
<g id="edge5" class="edge"><title>3&#45;&gt;4</title>
<path fill="none" stroke="black" d="M205.292,-291.716C201.337,-283.6 196.924,-274.546 192.334,-265.128"/>
<polygon fill="black" stroke="black" points="195.416,-263.461 187.889,-256.005 189.123,-266.528 195.416,-263.461"/>
</g>
<!-- 5 -->
<g id="node6" class="node"><title>5</title>
<polygon fill="grey" stroke="grey" points="183,-44 107,-44 107,-1.42109e-14 183,-0 183,-44"/>
<text text-anchor="middle" x="145" y="-31" font-family="Courier,monospace" font-size="10.00">5</text>
<text text-anchor="start" x="114.5" y="-19" font-family="Courier,monospace" font-size="10.00">##epilogue</text>
<text text-anchor="start" x="114.5" y="-7" font-family="Courier,monospace" font-size="10.00">##return</text>
</g>
<!-- 4&#45;&gt;5 -->
<g id="edge6" class="edge"><title>4&#45;&gt;5</title>
<path fill="none" stroke="black" d="M145,-79.7031C145,-70.6201 145,-61.868 145,-54.0438"/>
<polygon fill="black" stroke="black" points="148.5,-54.0058 145,-44.0059 141.5,-54.0059 148.5,-54.0058"/>
</g>
<!-- gvns -->
<g id="node7" class="node"><title>gvns</title>
<text text-anchor="start" x="75.5" y="-813" font-family="Courier,monospace" font-size="10.00">14 &#45;&gt; &lt;14&gt; (&#45;591)</text>
<text text-anchor="start" x="75.5" y="-801" font-family="Courier,monospace" font-size="10.00">15 &#45;&gt; &lt;14&gt;</text>
<text text-anchor="start" x="75.5" y="-789" font-family="Courier,monospace" font-size="10.00">16 &#45;&gt; &lt;16&gt;</text>
<text text-anchor="start" x="75.5" y="-777" font-family="Courier,monospace" font-size="10.00">17 &#45;&gt; &lt;16&gt;</text>
<text text-anchor="start" x="75.5" y="-765" font-family="Courier,monospace" font-size="10.00">18 &#45;&gt; &lt;18&gt;</text>
<text text-anchor="start" x="75.5" y="-753" font-family="Courier,monospace" font-size="10.00">19 &#45;&gt; &lt;25&gt;</text>
<text text-anchor="start" x="75.5" y="-741" font-family="Courier,monospace" font-size="10.00">20 &#45;&gt; &lt;16&gt;</text>
<text text-anchor="start" x="75.5" y="-729" font-family="Courier,monospace" font-size="10.00">21 &#45;&gt; &lt;21&gt;</text>
<text text-anchor="start" x="75.5" y="-717" font-family="Courier,monospace" font-size="10.00">22 &#45;&gt; &lt;21&gt;</text>
<text text-anchor="start" x="75.5" y="-705" font-family="Courier,monospace" font-size="10.00">23 &#45;&gt; &lt;16&gt;</text>
<text text-anchor="start" x="75.5" y="-693" font-family="Courier,monospace" font-size="10.00">24 &#45;&gt; &lt;25&gt;</text>
<text text-anchor="start" x="75.5" y="-681" font-family="Courier,monospace" font-size="10.00">25 &#45;&gt; &lt;25&gt;</text>
<text text-anchor="start" x="75.5" y="-669" font-family="Courier,monospace" font-size="10.00">26 &#45;&gt; &lt;25&gt;</text>
<text text-anchor="start" x="75.5" y="-635" font-family="Courier,monospace" font-size="10.00">&lt;14&gt; : {14, 15}</text>
<text text-anchor="start" x="75.5" y="-623" font-family="Courier,monospace" font-size="10.00">&lt;16&gt; : {16, 17, 20, 23}</text>
<text text-anchor="start" x="75.5" y="-611" font-family="Courier,monospace" font-size="10.00">&lt;18&gt; : {18}</text>
<text text-anchor="start" x="75.5" y="-599" font-family="Courier,monospace" font-size="10.00">&lt;21&gt; : {21, 22}</text>
<text text-anchor="start" x="75.5" y="-587" font-family="Courier,monospace" font-size="10.00">&lt;25&gt; : {19, 24, 25, 26}</text>
</g>
<!-- gvns&#45;&gt;0 -->
</g>
</svg>
