<?xml version="1.0" encoding="UTF-8" standalone="no"?>
<!DOCTYPE svg PUBLIC "-//W3C//DTD SVG 1.1//EN"
 "http://www.w3.org/Graphics/SVG/1.1/DTD/svg11.dtd">
<!-- Generated by graphviz version 2.26.3 (20100126.1600)
 -->
<!-- Title: _anonymous_39 Pages: 1 -->
<svg width="285pt" height="1016pt"
 viewBox="0.00 0.00 285.00 1016.00" xmlns="http://www.w3.org/2000/svg" xmlns:xlink="http://www.w3.org/1999/xlink">
<g id="graph1" class="graph" transform="scale(1 1) rotate(0) translate(4 1012)">
<title>_anonymous_39</title>
<polygon fill="white" stroke="white" points="-4,5 -4,-1012 282,-1012 282,5 -4,5"/>
<!-- 0 -->
<g id="node1" class="node"><title>0</title>
<polygon fill="none" stroke="black" points="196,-1008 120,-1008 120,-964 196,-964 196,-1008"/>
<text text-anchor="middle" x="158" y="-995" font-family="Courier,monospace" font-size="10.00">0</text>
<text text-anchor="start" x="127.5" y="-983" font-family="Courier,monospace" font-size="10.00">##prologue</text>
<text text-anchor="start" x="127.5" y="-971" font-family="Courier,monospace" font-size="10.00">##branch</text>
</g>
<!-- 1 -->
<g id="node2" class="node"><title>1</title>
<polygon fill="none" stroke="black" points="190,-928 126,-928 126,-892 190,-892 190,-928"/>
<text text-anchor="middle" x="158" y="-913" font-family="Courier,monospace" font-size="10.00">1</text>
<text text-anchor="start" x="133.5" y="-901" font-family="Courier,monospace" font-size="10.00">##branch</text>
</g>
<!-- 0&#45;&gt;1 -->
<g id="edge1" class="edge"><title>0&#45;&gt;1</title>
<path fill="none" stroke="black" d="M158,-963.609C158,-955.727 158,-946.762 158,-938.448"/>
<polygon fill="black" stroke="black" points="161.5,-938.397 158,-928.397 154.5,-938.398 161.5,-938.397"/>
</g>
<!-- 2 -->
<g id="node3" class="node"><title>2</title>
<polygon fill="none" stroke="black" points="226,-856 90,-856 90,-728 226,-728 226,-856"/>
<text text-anchor="middle" x="158" y="-843" font-family="Courier,monospace" font-size="10.00">2</text>
<text text-anchor="start" x="97.5" y="-831" font-family="Courier,monospace" font-size="10.00">##load&#45;integer 1 0</text>
<text text-anchor="start" x="97.5" y="-819" font-family="Courier,monospace" font-size="10.00">##load&#45;integer 2 100</text>
<text text-anchor="start" x="97.5" y="-807" font-family="Courier,monospace" font-size="10.00">##load&#45;integer 3 0</text>
<text text-anchor="start" x="97.5" y="-795" font-family="Courier,monospace" font-size="10.00">##copy 4 2 any&#45;rep</text>
<text text-anchor="start" x="97.5" y="-783" font-family="Courier,monospace" font-size="10.00">##copy 5 1 any&#45;rep</text>
<text text-anchor="start" x="97.5" y="-771" font-family="Courier,monospace" font-size="10.00">##copy 6 4 any&#45;rep</text>
<text text-anchor="start" x="97.5" y="-759" font-family="Courier,monospace" font-size="10.00">##copy 7 3 any&#45;rep</text>
<text text-anchor="start" x="97.5" y="-747" font-family="Courier,monospace" font-size="10.00">##inc&#45;d 3</text>
<text text-anchor="start" x="97.5" y="-735" font-family="Courier,monospace" font-size="10.00">##branch</text>
</g>
<!-- 1&#45;&gt;2 -->
<g id="edge2" class="edge"><title>1&#45;&gt;2</title>
<path fill="none" stroke="black" d="M158,-891.821C158,-884.528 158,-875.603 158,-866.118"/>
<polygon fill="black" stroke="black" points="161.5,-866.077 158,-856.077 154.5,-866.077 161.5,-866.077"/>
</g>
<!-- 3 -->
<g id="node4" class="node"><title>3</title>
<polygon fill="none" stroke="black" points="190,-692 126,-692 126,-656 190,-656 190,-692"/>
<text text-anchor="middle" x="158" y="-677" font-family="Courier,monospace" font-size="10.00">3</text>
<text text-anchor="start" x="133.5" y="-665" font-family="Courier,monospace" font-size="10.00">##branch</text>
</g>
<!-- 2&#45;&gt;3 -->
<g id="edge3" class="edge"><title>2&#45;&gt;3</title>
<path fill="none" stroke="black" d="M158,-727.82C158,-719.003 158,-710.34 158,-702.63"/>
<polygon fill="black" stroke="black" points="161.5,-702.446 158,-692.446 154.5,-702.446 161.5,-702.446"/>
</g>
<!-- 4 -->
<g id="node5" class="node"><title>4</title>
<polygon fill="none" stroke="black" points="256,-620 60,-620 60,-540 256,-540 256,-620"/>
<text text-anchor="middle" x="158" y="-607" font-family="Courier,monospace" font-size="10.00">4</text>
<text text-anchor="start" x="67.5" y="-595" font-family="Courier,monospace" font-size="10.00">##compare&#45;integer 10 7 6 cc&lt; 9</text>
<text text-anchor="start" x="67.5" y="-583" font-family="Courier,monospace" font-size="10.00">##copy 11 10 any&#45;rep</text>
<text text-anchor="start" x="67.5" y="-571" font-family="Courier,monospace" font-size="10.00">##copy 18 6 any&#45;rep</text>
<text text-anchor="start" x="67.5" y="-559" font-family="Courier,monospace" font-size="10.00">##copy 19 10 any&#45;rep</text>
<text text-anchor="start" x="67.5" y="-547" font-family="Courier,monospace" font-size="10.00">##compare&#45;imm&#45;branch 11 f cc/=</text>
</g>
<!-- 3&#45;&gt;4 -->
<g id="edge4" class="edge"><title>3&#45;&gt;4</title>
<path fill="none" stroke="black" d="M158,-655.876C158,-648.511 158,-639.602 158,-630.516"/>
<polygon fill="black" stroke="black" points="161.5,-630.256 158,-620.256 154.5,-630.257 161.5,-630.256"/>
</g>
<!-- 5 -->
<g id="node6" class="node"><title>5</title>
<polygon fill="none" stroke="black" points="114,-504 50,-504 50,-468 114,-468 114,-504"/>
<text text-anchor="middle" x="82" y="-489" font-family="Courier,monospace" font-size="10.00">5</text>
<text text-anchor="start" x="57.5" y="-477" font-family="Courier,monospace" font-size="10.00">##branch</text>
</g>
<!-- 4&#45;&gt;5 -->
<g id="edge5" class="edge"><title>4&#45;&gt;5</title>
<path fill="none" stroke="black" d="M125.549,-539.863C117.966,-530.485 110.083,-520.734 103.141,-512.148"/>
<polygon fill="black" stroke="black" points="105.823,-509.899 96.8142,-504.323 100.38,-514.3 105.823,-509.899"/>
</g>
<!-- 8 -->
<g id="node7" class="node"><title>8</title>
<polygon fill="none" stroke="black" points="253,-504 189,-504 189,-468 253,-468 253,-504"/>
<text text-anchor="middle" x="221" y="-489" font-family="Courier,monospace" font-size="10.00">8</text>
<text text-anchor="start" x="196.5" y="-477" font-family="Courier,monospace" font-size="10.00">##branch</text>
</g>
<!-- 4&#45;&gt;8 -->
<g id="edge6" class="edge"><title>4&#45;&gt;8</title>
<path fill="none" stroke="black" d="M184.9,-539.863C191.056,-530.678 197.451,-521.136 203.118,-512.681"/>
<polygon fill="black" stroke="black" points="206.06,-514.578 208.72,-504.323 200.245,-510.681 206.06,-514.578"/>
</g>
<!-- 6 -->
<g id="node8" class="node"><title>6</title>
<polygon fill="none" stroke="black" points="130,-432 4.31391e-14,-432 1.49325e-14,-304 130,-304 130,-432"/>
<text text-anchor="middle" x="65" y="-419" font-family="Courier,monospace" font-size="10.00">6</text>
<text text-anchor="start" x="7.5" y="-407" font-family="Courier,monospace" font-size="10.00">##load&#45;integer 12 1</text>
<text text-anchor="start" x="7.5" y="-395" font-family="Courier,monospace" font-size="10.00">##add 13 5 12</text>
<text text-anchor="start" x="7.5" y="-383" font-family="Courier,monospace" font-size="10.00">##load&#45;integer 14 1</text>
<text text-anchor="start" x="7.5" y="-371" font-family="Courier,monospace" font-size="10.00">##add 15 7 14</text>
<text text-anchor="start" x="7.5" y="-359" font-family="Courier,monospace" font-size="10.00">##copy 16 7 any&#45;rep</text>
<text text-anchor="start" x="7.5" y="-347" font-family="Courier,monospace" font-size="10.00">##copy 4 6 any&#45;rep</text>
<text text-anchor="start" x="7.5" y="-335" font-family="Courier,monospace" font-size="10.00">##copy 5 13 any&#45;rep</text>
<text text-anchor="start" x="7.5" y="-323" font-family="Courier,monospace" font-size="10.00">##copy 7 15 any&#45;rep</text>
<text text-anchor="start" x="7.5" y="-311" font-family="Courier,monospace" font-size="10.00">##branch</text>
</g>
<!-- 5&#45;&gt;6 -->
<g id="edge7" class="edge"><title>5&#45;&gt;6</title>
<path fill="none" stroke="black" d="M79.381,-467.821C78.3303,-460.528 77.0444,-451.603 75.6781,-442.118"/>
<polygon fill="black" stroke="black" points="79.1218,-441.476 74.2315,-432.077 72.1933,-442.474 79.1218,-441.476"/>
</g>
<!-- 9 -->
<g id="node10" class="node"><title>9</title>
<polygon fill="none" stroke="black" points="262,-390 186,-390 186,-346 262,-346 262,-390"/>
<text text-anchor="middle" x="224" y="-377" font-family="Courier,monospace" font-size="10.00">9</text>
<text text-anchor="start" x="193.5" y="-365" font-family="Courier,monospace" font-size="10.00">##inc&#45;d &#45;2</text>
<text text-anchor="start" x="193.5" y="-353" font-family="Courier,monospace" font-size="10.00">##branch</text>
</g>
<!-- 8&#45;&gt;9 -->
<g id="edge10" class="edge"><title>8&#45;&gt;9</title>
<path fill="none" stroke="black" d="M221.462,-467.821C221.92,-449.821 222.63,-421.877 223.183,-400.128"/>
<polygon fill="black" stroke="black" points="226.685,-400.106 223.44,-390.02 219.687,-399.928 226.685,-400.106"/>
</g>
<!-- 7 -->
<g id="node9" class="node"><title>7</title>
<polygon fill="none" stroke="black" points="135,-268 71,-268 71,-232 135,-232 135,-268"/>
<text text-anchor="middle" x="103" y="-253" font-family="Courier,monospace" font-size="10.00">7</text>
<text text-anchor="start" x="78.5" y="-241" font-family="Courier,monospace" font-size="10.00">##branch</text>
</g>
<!-- 6&#45;&gt;7 -->
<g id="edge8" class="edge"><title>6&#45;&gt;7</title>
<path fill="none" stroke="black" d="M85.668,-303.82C88.5729,-294.8 91.4254,-285.942 93.951,-278.099"/>
<polygon fill="black" stroke="black" points="97.326,-279.037 97.0599,-268.446 90.663,-276.891 97.326,-279.037"/>
</g>
<!-- 7&#45;&gt;4 -->
<g id="edge9" class="edge"><title>7&#45;&gt;4</title>
<path fill="none" stroke="black" d="M118.621,-268.202C126.183,-278.114 134.567,-290.988 139,-304 164.737,-379.542 165.069,-473.293 162.132,-529.793"/>
<polygon fill="black" stroke="black" points="158.631,-529.711 161.551,-539.896 165.619,-530.113 158.631,-529.711"/>
</g>
<!-- 10 -->
<g id="node11" class="node"><title>10</title>
<polygon fill="none" stroke="black" points="256,-268 192,-268 192,-232 256,-232 256,-268"/>
<text text-anchor="middle" x="224" y="-253" font-family="Courier,monospace" font-size="10.00">10</text>
<text text-anchor="start" x="199.5" y="-241" font-family="Courier,monospace" font-size="10.00">##branch</text>
</g>
<!-- 9&#45;&gt;10 -->
<g id="edge11" class="edge"><title>9&#45;&gt;10</title>
<path fill="none" stroke="black" d="M224,-345.805C224,-326.703 224,-299.031 224,-278.333"/>
<polygon fill="black" stroke="black" points="227.5,-278.227 224,-268.227 220.5,-278.227 227.5,-278.227"/>
</g>
<!-- 11 -->
<g id="node12" class="node"><title>11</title>
<polygon fill="none" stroke="black" points="256,-196 192,-196 192,-160 256,-160 256,-196"/>
<text text-anchor="middle" x="224" y="-181" font-family="Courier,monospace" font-size="10.00">11</text>
<text text-anchor="start" x="199.5" y="-169" font-family="Courier,monospace" font-size="10.00">##branch</text>
</g>
<!-- 10&#45;&gt;11 -->
<g id="edge12" class="edge"><title>10&#45;&gt;11</title>
<path fill="none" stroke="black" d="M224,-231.831C224,-224.131 224,-214.974 224,-206.417"/>
<polygon fill="black" stroke="black" points="227.5,-206.413 224,-196.413 220.5,-206.413 227.5,-206.413"/>
</g>
<!-- 12 -->
<g id="node13" class="node"><title>12</title>
<polygon fill="none" stroke="black" points="277,-124 171,-124 171,-80 277,-80 277,-124"/>
<text text-anchor="middle" x="224" y="-111" font-family="Courier,monospace" font-size="10.00">12</text>
<text text-anchor="start" x="178.5" y="-99" font-family="Courier,monospace" font-size="10.00">##replace 5 D 0</text>
<text text-anchor="start" x="178.5" y="-87" font-family="Courier,monospace" font-size="10.00">##branch</text>
</g>
<!-- 11&#45;&gt;12 -->
<g id="edge13" class="edge"><title>11&#45;&gt;12</title>
<path fill="none" stroke="black" d="M224,-159.989C224,-152.291 224,-143.063 224,-134.256"/>
<polygon fill="black" stroke="black" points="227.5,-134.228 224,-124.228 220.5,-134.228 227.5,-134.228"/>
</g>
<!-- 13 -->
<g id="node14" class="node"><title>13</title>
<polygon fill="none" stroke="black" points="262,-44 186,-44 186,-1.42109e-14 262,-0 262,-44"/>
<text text-anchor="middle" x="224" y="-31" font-family="Courier,monospace" font-size="10.00">13</text>
<text text-anchor="start" x="193.5" y="-19" font-family="Courier,monospace" font-size="10.00">##epilogue</text>
<text text-anchor="start" x="193.5" y="-7" font-family="Courier,monospace" font-size="10.00">##return</text>
</g>
<!-- 12&#45;&gt;13 -->
<g id="edge14" class="edge"><title>12&#45;&gt;13</title>
<path fill="none" stroke="black" d="M224,-79.7155C224,-71.827 224,-62.7865 224,-54.2379"/>
<polygon fill="black" stroke="black" points="227.5,-54.1649 224,-44.165 220.5,-54.165 227.5,-54.1649"/>
</g>
</g>
</svg>
