<?xml version="1.0" encoding="UTF-8" standalone="no"?>
<!DOCTYPE svg PUBLIC "-//W3C//DTD SVG 1.1//EN"
 "http://www.w3.org/Graphics/SVG/1.1/DTD/svg11.dtd">
<!-- Generated by graphviz version 2.26.3 (20100126.1600)
 -->
<!-- Title: _anonymous_131 Pages: 1 -->
<svg width="307pt" height="420pt"
 viewBox="0.00 0.00 307.00 420.00" xmlns="http://www.w3.org/2000/svg" xmlns:xlink="http://www.w3.org/1999/xlink">
<g id="graph1" class="graph" transform="scale(1 1) rotate(0) translate(4 416)">
<title>_anonymous_131</title>
<polygon fill="white" stroke="white" points="-4,5 -4,-416 304,-416 304,5 -4,5"/>
<!-- 0 -->
<g id="node1" class="node"><title>0</title>
<polygon fill="grey" stroke="grey" points="148,-412 72,-412 72,-368 148,-368 148,-412"/>
<text text-anchor="middle" x="110" y="-399" font-family="Courier,monospace" font-size="10.00">0</text>
<text text-anchor="start" x="79.5" y="-387" font-family="Courier,monospace" font-size="10.00">##prologue</text>
<text text-anchor="start" x="79.5" y="-375" font-family="Courier,monospace" font-size="10.00">##branch</text>
</g>
<!-- 1 -->
<g id="node2" class="node"><title>1</title>
<polygon fill="none" stroke="black" points="181,-332 39,-332 39,-264 181,-264 181,-332"/>
<text text-anchor="middle" x="110" y="-319" font-family="Courier,monospace" font-size="10.00">1</text>
<text text-anchor="start" x="46.5" y="-307" font-family="Courier,monospace" font-size="10.00">##inc&#45;d 3</text>
<text text-anchor="start" x="46.5" y="-295" font-family="Courier,monospace" font-size="10.00">##load&#45;integer 21 0</text>
<text text-anchor="start" x="46.5" y="-283" font-family="Courier,monospace" font-size="10.00">##load&#45;integer 22 100</text>
<text text-anchor="start" x="46.5" y="-271" font-family="Courier,monospace" font-size="10.00">##branch</text>
</g>
<!-- 0&#45;&gt;1 -->
<g id="edge1" class="edge"><title>0&#45;&gt;1</title>
<path fill="none" stroke="black" d="M110,-367.729C110,-360.085 110,-351.236 110,-342.463"/>
<polygon fill="black" stroke="black" points="113.5,-342.274 110,-332.274 106.5,-342.274 113.5,-342.274"/>
</g>
<!-- 2 -->
<g id="node3" class="node"><title>2</title>
<polygon fill="none" stroke="black" points="220,-228 5.48103e-14,-228 1.2372e-14,-172 220,-172 220,-228"/>
<text text-anchor="middle" x="110" y="-215" font-family="Courier,monospace" font-size="10.00">2</text>
<text text-anchor="start" x="7.5" y="-203" font-family="Courier,monospace" font-size="10.00">##phi 29 H{ { 1 21 } { 3 36 } }</text>
<text text-anchor="start" x="7.5" y="-191" font-family="Courier,monospace" font-size="10.00">##phi 30 H{ { 1 21 } { 3 38 } }</text>
<text text-anchor="start" x="7.5" y="-179" font-family="Courier,monospace" font-size="10.00">##compare&#45;integer&#45;branch 30 22 cc&lt;</text>
</g>
<!-- 1&#45;&gt;2 -->
<g id="edge2" class="edge"><title>1&#45;&gt;2</title>
<path fill="none" stroke="black" d="M110,-263.999C110,-255.667 110,-246.695 110,-238.181"/>
<polygon fill="black" stroke="black" points="113.5,-238.097 110,-228.097 106.5,-238.097 113.5,-238.097"/>
</g>
<!-- 3 -->
<g id="node4" class="node"><title>3</title>
<polygon fill="none" stroke="black" points="169,-136 51,-136 51,-80 169,-80 169,-136"/>
<text text-anchor="middle" x="110" y="-123" font-family="Courier,monospace" font-size="10.00">3</text>
<text text-anchor="start" x="58.5" y="-111" font-family="Courier,monospace" font-size="10.00">##add&#45;imm 36 29 1</text>
<text text-anchor="start" x="58.5" y="-99" font-family="Courier,monospace" font-size="10.00">##add&#45;imm 38 30 1</text>
<text text-anchor="start" x="58.5" y="-87" font-family="Courier,monospace" font-size="10.00">##branch</text>
</g>
<!-- 2&#45;&gt;3 -->
<g id="edge3" class="edge"><title>2&#45;&gt;3</title>
<path fill="none" stroke="black" d="M103.726,-171.897C103.277,-163.858 103.145,-154.954 103.332,-146.41"/>
<polygon fill="black" stroke="black" points="106.836,-146.373 103.718,-136.248 99.8412,-146.108 106.836,-146.373"/>
</g>
<!-- 4 -->
<g id="node5" class="node"><title>4</title>
<polygon fill="none" stroke="black" points="299,-136 187,-136 187,-80 299,-80 299,-136"/>
<text text-anchor="middle" x="243" y="-123" font-family="Courier,monospace" font-size="10.00">4</text>
<text text-anchor="start" x="194.5" y="-111" font-family="Courier,monospace" font-size="10.00">##inc&#45;d &#45;2</text>
<text text-anchor="start" x="194.5" y="-99" font-family="Courier,monospace" font-size="10.00">##replace 29 D 0</text>
<text text-anchor="start" x="194.5" y="-87" font-family="Courier,monospace" font-size="10.00">##branch</text>
</g>
<!-- 2&#45;&gt;4 -->
<g id="edge4" class="edge"><title>2&#45;&gt;4</title>
<path fill="none" stroke="black" d="M150.627,-171.897C164.293,-162.444 179.686,-151.796 193.931,-141.943"/>
<polygon fill="black" stroke="black" points="195.93,-144.815 202.163,-136.248 191.948,-139.058 195.93,-144.815"/>
</g>
<!-- 3&#45;&gt;2 -->
<g id="edge5" class="edge"><title>3&#45;&gt;2</title>
<path fill="none" stroke="black" d="M116.282,-136.248C116.728,-144.298 116.855,-153.204 116.664,-161.744"/>
<polygon fill="black" stroke="black" points="113.161,-161.77 116.274,-171.897 120.156,-162.039 113.161,-161.77"/>
</g>
<!-- 5 -->
<g id="node6" class="node"><title>5</title>
<polygon fill="grey" stroke="grey" points="281,-44 205,-44 205,-1.42109e-14 281,-0 281,-44"/>
<text text-anchor="middle" x="243" y="-31" font-family="Courier,monospace" font-size="10.00">5</text>
<text text-anchor="start" x="212.5" y="-19" font-family="Courier,monospace" font-size="10.00">##epilogue</text>
<text text-anchor="start" x="212.5" y="-7" font-family="Courier,monospace" font-size="10.00">##return</text>
</g>
<!-- 4&#45;&gt;5 -->
<g id="edge6" class="edge"><title>4&#45;&gt;5</title>
<path fill="none" stroke="black" d="M243,-79.8404C243,-71.7116 243,-62.7764 243,-54.4113"/>
<polygon fill="black" stroke="black" points="246.5,-54.224 243,-44.224 239.5,-54.224 246.5,-54.224"/>
</g>
</g>
</svg>
