<?xml version="1.0" encoding="UTF-8" standalone="no"?>
<!DOCTYPE svg PUBLIC "-//W3C//DTD SVG 1.1//EN"
 "http://www.w3.org/Graphics/SVG/1.1/DTD/svg11.dtd">
<!-- Generated by graphviz version 2.26.3 (20100126.1600)
 -->
<!-- Title: _anonymous_50 Pages: 1 -->
<svg width="337pt" height="424pt"
 viewBox="0.00 0.00 337.00 424.00" xmlns="http://www.w3.org/2000/svg" xmlns:xlink="http://www.w3.org/1999/xlink">
<g id="graph1" class="graph" transform="scale(1 1) rotate(0) translate(4 420)">
<title>_anonymous_50</title>
<polygon fill="white" stroke="white" points="-4,5 -4,-420 334,-420 334,5 -4,5"/>
<!-- 0 -->
<g id="node1" class="node"><title>0</title>
<polygon fill="none" stroke="black" points="154,-416 78,-416 78,-372 154,-372 154,-416"/>
<text text-anchor="middle" x="116" y="-403" font-family="Courier,monospace" font-size="10.00">0</text>
<text text-anchor="start" x="85.5" y="-391" font-family="Courier,monospace" font-size="10.00">##prologue</text>
<text text-anchor="start" x="85.5" y="-379" font-family="Courier,monospace" font-size="10.00">##branch</text>
</g>
<!-- 1 -->
<g id="node2" class="node"><title>1</title>
<polygon fill="none" stroke="black" points="190,-336 42,-336 42,-256 190,-256 190,-336"/>
<text text-anchor="middle" x="116" y="-323" font-family="Courier,monospace" font-size="10.00">1</text>
<text text-anchor="start" x="49.5" y="-311" font-family="Courier,monospace" font-size="10.00">##inc&#45;d 3</text>
<text text-anchor="start" x="49.5" y="-299" font-family="Courier,monospace" font-size="10.00">##load&#45;integer EAX 0</text>
<text text-anchor="start" x="49.5" y="-287" font-family="Courier,monospace" font-size="10.00">##load&#45;integer ECX 100</text>
<text text-anchor="start" x="49.5" y="-275" font-family="Courier,monospace" font-size="10.00">##copy EDX EAX int&#45;rep</text>
<text text-anchor="start" x="49.5" y="-263" font-family="Courier,monospace" font-size="10.00">##branch</text>
</g>
<!-- 0&#45;&gt;1 -->
<g id="edge1" class="edge"><title>0&#45;&gt;1</title>
<path fill="none" stroke="black" d="M116,-371.762C116,-364.131 116,-355.249 116,-346.31"/>
<polygon fill="black" stroke="black" points="119.5,-346.256 116,-336.256 112.5,-346.256 119.5,-346.256"/>
</g>
<!-- 2 -->
<g id="node3" class="node"><title>2</title>
<polygon fill="none" stroke="black" points="232,-220 5.37695e-14,-220 1.13173e-14,-184 232,-184 232,-220"/>
<text text-anchor="middle" x="116" y="-205" font-family="Courier,monospace" font-size="10.00">2</text>
<text text-anchor="start" x="7.5" y="-193" font-family="Courier,monospace" font-size="10.00">##compare&#45;integer&#45;branch EAX ECX cc&lt;</text>
</g>
<!-- 1&#45;&gt;2 -->
<g id="edge2" class="edge"><title>1&#45;&gt;2</title>
<path fill="none" stroke="black" d="M116,-255.863C116,-247.355 116,-238.54 116,-230.567"/>
<polygon fill="black" stroke="black" points="119.5,-230.323 116,-220.323 112.5,-230.323 119.5,-230.323"/>
</g>
<!-- 3 -->
<g id="node4" class="node"><title>3</title>
<polygon fill="none" stroke="black" points="181,-142 51,-142 51,-86 181,-86 181,-142"/>
<text text-anchor="middle" x="116" y="-129" font-family="Courier,monospace" font-size="10.00">3</text>
<text text-anchor="start" x="58.5" y="-117" font-family="Courier,monospace" font-size="10.00">##add&#45;imm EDX EDX 1</text>
<text text-anchor="start" x="58.5" y="-105" font-family="Courier,monospace" font-size="10.00">##add&#45;imm EAX EAX 1</text>
<text text-anchor="start" x="58.5" y="-93" font-family="Courier,monospace" font-size="10.00">##branch</text>
</g>
<!-- 2&#45;&gt;3 -->
<g id="edge3" class="edge"><title>2&#45;&gt;3</title>
<path fill="none" stroke="black" d="M110.407,-183.766C109.479,-174.686 109.109,-163.346 109.298,-152.465"/>
<polygon fill="black" stroke="black" points="112.803,-152.376 109.649,-142.262 105.807,-152.135 112.803,-152.376"/>
</g>
<!-- 4 -->
<g id="node5" class="node"><title>4</title>
<polygon fill="none" stroke="black" points="329,-148 199,-148 199,-80 329,-80 329,-148"/>
<text text-anchor="middle" x="264" y="-135" font-family="Courier,monospace" font-size="10.00">4</text>
<text text-anchor="start" x="206.5" y="-123" font-family="Courier,monospace" font-size="10.00">##inc&#45;d &#45;2</text>
<text text-anchor="start" x="206.5" y="-111" font-family="Courier,monospace" font-size="10.00">##shl&#45;imm EDX EDX 4</text>
<text text-anchor="start" x="206.5" y="-99" font-family="Courier,monospace" font-size="10.00">##replace EDX D 0</text>
<text text-anchor="start" x="206.5" y="-87" font-family="Courier,monospace" font-size="10.00">##branch</text>
</g>
<!-- 2&#45;&gt;4 -->
<g id="edge4" class="edge"><title>2&#45;&gt;4</title>
<path fill="none" stroke="black" d="M146.307,-183.98C161.279,-175.078 179.967,-163.965 198.013,-153.236"/>
<polygon fill="black" stroke="black" points="199.994,-156.129 206.801,-148.01 196.417,-150.113 199.994,-156.129"/>
</g>
<!-- 3&#45;&gt;2 -->
<g id="edge5" class="edge"><title>3&#45;&gt;2</title>
<path fill="none" stroke="black" d="M122.351,-142.262C122.879,-152.253 122.883,-163.492 122.363,-173.502"/>
<polygon fill="black" stroke="black" points="118.851,-173.532 121.593,-183.766 125.831,-174.056 118.851,-173.532"/>
</g>
<!-- 5 -->
<g id="node6" class="node"><title>5</title>
<polygon fill="none" stroke="black" points="302,-44 226,-44 226,-1.42109e-14 302,-0 302,-44"/>
<text text-anchor="middle" x="264" y="-31" font-family="Courier,monospace" font-size="10.00">5</text>
<text text-anchor="start" x="233.5" y="-19" font-family="Courier,monospace" font-size="10.00">##epilogue</text>
<text text-anchor="start" x="233.5" y="-7" font-family="Courier,monospace" font-size="10.00">##return</text>
</g>
<!-- 4&#45;&gt;5 -->
<g id="edge6" class="edge"><title>4&#45;&gt;5</title>
<path fill="none" stroke="black" d="M264,-79.7426C264,-71.3371 264,-62.3709 264,-54.0725"/>
<polygon fill="black" stroke="black" points="267.5,-54.0107 264,-44.0107 260.5,-54.0107 267.5,-54.0107"/>
</g>
</g>
</svg>
