<?xml version="1.0" encoding="UTF-8" standalone="no"?>
<!DOCTYPE svg PUBLIC "-//W3C//DTD SVG 1.1//EN"
 "http://www.w3.org/Graphics/SVG/1.1/DTD/svg11.dtd">
<!-- Generated by graphviz version 2.26.3 (20100126.1600)
 -->
<!-- Title: _anonymous_33 Pages: 1 -->
<svg width="316pt" height="626pt"
 viewBox="0.00 0.00 316.00 626.00" xmlns="http://www.w3.org/2000/svg" xmlns:xlink="http://www.w3.org/1999/xlink">
<g id="graph1" class="graph" transform="scale(1 1) rotate(0) translate(4 622)">
<title>_anonymous_33</title>
<polygon fill="white" stroke="white" points="-4,5 -4,-622 313,-622 313,5 -4,5"/>
<text text-anchor="middle" x="154" y="-601.4" font-family="Times Roman,serif" font-size="14.00">After value&#45;numbering</text>
<!-- 0 -->
<g id="node1" class="node"><title>0</title>
<polygon fill="grey" stroke="grey" points="148,-592 72,-592 72,-548 148,-548 148,-592"/>
<text text-anchor="middle" x="110" y="-579" font-family="Courier,monospace" font-size="10.00">0</text>
<text text-anchor="start" x="79.5" y="-567" font-family="Courier,monospace" font-size="10.00">##prologue</text>
<text text-anchor="start" x="79.5" y="-555" font-family="Courier,monospace" font-size="10.00">##branch</text>
</g>
<!-- 1 -->
<g id="node2" class="node"><title>1</title>
<polygon fill="none" stroke="black" points="181,-512 39,-512 39,-384 181,-384 181,-512"/>
<text text-anchor="middle" x="110" y="-499" font-family="Courier,monospace" font-size="10.00">1</text>
<text text-anchor="start" x="46.5" y="-487" font-family="Courier,monospace" font-size="10.00">##inc&#45;d 3</text>
<text text-anchor="start" x="46.5" y="-475" font-family="Courier,monospace" font-size="10.00">##load&#45;integer 21 0</text>
<text text-anchor="start" x="46.5" y="-463" font-family="Courier,monospace" font-size="10.00">##load&#45;integer 22 100</text>
<text text-anchor="start" x="46.5" y="-451" font-family="Courier,monospace" font-size="10.00">##copy 23 21 any&#45;rep</text>
<text text-anchor="start" x="46.5" y="-439" font-family="Courier,monospace" font-size="10.00">##copy 24 22 any&#45;rep</text>
<text text-anchor="start" x="46.5" y="-427" font-family="Courier,monospace" font-size="10.00">##copy 25 21 any&#45;rep</text>
<text text-anchor="start" x="46.5" y="-415" font-family="Courier,monospace" font-size="10.00">##copy 26 24 any&#45;rep</text>
<text text-anchor="start" x="46.5" y="-403" font-family="Courier,monospace" font-size="10.00">##copy 27 23 any&#45;rep</text>
<text text-anchor="start" x="46.5" y="-391" font-family="Courier,monospace" font-size="10.00">##branch</text>
</g>
<!-- 0&#45;&gt;1 -->
<g id="edge1" class="edge"><title>0&#45;&gt;1</title>
<path fill="none" stroke="black" d="M110,-547.907C110,-540.393 110,-531.528 110,-522.232"/>
<polygon fill="black" stroke="black" points="113.5,-522.02 110,-512.02 106.5,-522.02 113.5,-522.02"/>
</g>
<!-- 2 -->
<g id="node3" class="node"><title>2</title>
<polygon fill="none" stroke="black" points="220,-348 5.48103e-14,-348 1.2372e-14,-244 220,-244 220,-348"/>
<text text-anchor="middle" x="110" y="-335" font-family="Courier,monospace" font-size="10.00">2</text>
<text text-anchor="start" x="7.5" y="-323" font-family="Courier,monospace" font-size="10.00">##phi 29 H{ { 1 25 } { 3 41 } }</text>
<text text-anchor="start" x="7.5" y="-311" font-family="Courier,monospace" font-size="10.00">##phi 30 H{ { 1 27 } { 3 42 } }</text>
<text text-anchor="start" x="7.5" y="-299" font-family="Courier,monospace" font-size="10.00">##compare&#45;integer 31 30 26 cc&lt; 9</text>
<text text-anchor="start" x="7.5" y="-287" font-family="Courier,monospace" font-size="10.00">##copy 32 31 any&#45;rep</text>
<text text-anchor="start" x="7.5" y="-275" font-family="Courier,monospace" font-size="10.00">##copy 33 26 any&#45;rep</text>
<text text-anchor="start" x="7.5" y="-263" font-family="Courier,monospace" font-size="10.00">##copy 34 31 any&#45;rep</text>
<text text-anchor="start" x="7.5" y="-251" font-family="Courier,monospace" font-size="10.00">##compare&#45;integer&#45;branch 30 26 cc&lt;</text>
</g>
<!-- 1&#45;&gt;2 -->
<g id="edge2" class="edge"><title>1&#45;&gt;2</title>
<path fill="none" stroke="black" d="M110,-383.979C110,-375.557 110,-366.935 110,-358.538"/>
<polygon fill="black" stroke="black" points="113.5,-358.438 110,-348.438 106.5,-358.438 113.5,-358.438"/>
</g>
<!-- 3 -->
<g id="node4" class="node"><title>3</title>
<polygon fill="none" stroke="black" points="178,-208 42,-208 42,-80 178,-80 178,-208"/>
<text text-anchor="middle" x="110" y="-195" font-family="Courier,monospace" font-size="10.00">3</text>
<text text-anchor="start" x="49.5" y="-183" font-family="Courier,monospace" font-size="10.00">##load&#45;integer 35 1</text>
<text text-anchor="start" x="49.5" y="-171" font-family="Courier,monospace" font-size="10.00">##add&#45;imm 36 29 1</text>
<text text-anchor="start" x="49.5" y="-159" font-family="Courier,monospace" font-size="10.00">##copy 37 35 any&#45;rep</text>
<text text-anchor="start" x="49.5" y="-147" font-family="Courier,monospace" font-size="10.00">##add&#45;imm 38 30 1</text>
<text text-anchor="start" x="49.5" y="-135" font-family="Courier,monospace" font-size="10.00">##copy 39 30 any&#45;rep</text>
<text text-anchor="start" x="49.5" y="-123" font-family="Courier,monospace" font-size="10.00">##copy 40 26 any&#45;rep</text>
<text text-anchor="start" x="49.5" y="-111" font-family="Courier,monospace" font-size="10.00">##copy 41 36 any&#45;rep</text>
<text text-anchor="start" x="49.5" y="-99" font-family="Courier,monospace" font-size="10.00">##copy 42 38 any&#45;rep</text>
<text text-anchor="start" x="49.5" y="-87" font-family="Courier,monospace" font-size="10.00">##branch</text>
</g>
<!-- 2&#45;&gt;3 -->
<g id="edge3" class="edge"><title>2&#45;&gt;3</title>
<path fill="none" stroke="black" d="M103.55,-243.69C103.336,-235.481 103.236,-226.862 103.252,-218.273"/>
<polygon fill="black" stroke="black" points="106.752,-218.254 103.322,-208.229 99.7518,-218.204 106.752,-218.254"/>
</g>
<!-- 4 -->
<g id="node5" class="node"><title>4</title>
<polygon fill="none" stroke="black" points="308,-172 196,-172 196,-116 308,-116 308,-172"/>
<text text-anchor="middle" x="252" y="-159" font-family="Courier,monospace" font-size="10.00">4</text>
<text text-anchor="start" x="203.5" y="-147" font-family="Courier,monospace" font-size="10.00">##inc&#45;d &#45;2</text>
<text text-anchor="start" x="203.5" y="-135" font-family="Courier,monospace" font-size="10.00">##replace 29 D 0</text>
<text text-anchor="start" x="203.5" y="-123" font-family="Courier,monospace" font-size="10.00">##branch</text>
</g>
<!-- 2&#45;&gt;4 -->
<g id="edge4" class="edge"><title>2&#45;&gt;4</title>
<path fill="none" stroke="black" d="M158.868,-243.69C178.699,-222.463 201.089,-198.496 218.945,-179.382"/>
<polygon fill="black" stroke="black" points="221.531,-181.742 225.8,-172.045 216.416,-176.963 221.531,-181.742"/>
</g>
<!-- 3&#45;&gt;2 -->
<g id="edge5" class="edge"><title>3&#45;&gt;2</title>
<path fill="none" stroke="black" d="M116.678,-208.229C116.782,-216.636 116.774,-225.24 116.653,-233.615"/>
<polygon fill="black" stroke="black" points="113.152,-233.622 116.45,-243.69 120.151,-233.763 113.152,-233.622"/>
</g>
<!-- 5 -->
<g id="node6" class="node"><title>5</title>
<polygon fill="grey" stroke="grey" points="290,-44 214,-44 214,-1.42109e-14 290,-0 290,-44"/>
<text text-anchor="middle" x="252" y="-31" font-family="Courier,monospace" font-size="10.00">5</text>
<text text-anchor="start" x="221.5" y="-19" font-family="Courier,monospace" font-size="10.00">##epilogue</text>
<text text-anchor="start" x="221.5" y="-7" font-family="Courier,monospace" font-size="10.00">##return</text>
</g>
<!-- 4&#45;&gt;5 -->
<g id="edge6" class="edge"><title>4&#45;&gt;5</title>
<path fill="none" stroke="black" d="M252,-115.704C252,-97.2925 252,-73.2375 252,-54.1101"/>
<polygon fill="black" stroke="black" points="255.5,-54.0579 252,-44.0579 248.5,-54.058 255.5,-54.0579"/>
</g>
</g>
</svg>
