<?xml version="1.0" encoding="UTF-8" standalone="no"?>
<!DOCTYPE svg PUBLIC "-//W3C//DTD SVG 1.1//EN"
 "http://www.w3.org/Graphics/SVG/1.1/DTD/svg11.dtd">
<!-- Generated by graphviz version 2.26.3 (20100126.1600)
 -->
<!-- Title: _anonymous_130 Pages: 1 -->
<svg width="313pt" height="444pt"
 viewBox="0.00 0.00 313.00 444.00" xmlns="http://www.w3.org/2000/svg" xmlns:xlink="http://www.w3.org/1999/xlink">
<g id="graph1" class="graph" transform="scale(1 1) rotate(0) translate(4 440)">
<title>_anonymous_130</title>
<polygon fill="white" stroke="white" points="-4,5 -4,-440 310,-440 310,5 -4,5"/>
<!-- 0 -->
<g id="node1" class="node"><title>0</title>
<polygon fill="grey" stroke="grey" points="148,-436 72,-436 72,-392 148,-392 148,-436"/>
<text text-anchor="middle" x="110" y="-423" font-family="Courier,monospace" font-size="10.00">0</text>
<text text-anchor="start" x="79.5" y="-411" font-family="Courier,monospace" font-size="10.00">##prologue</text>
<text text-anchor="start" x="79.5" y="-399" font-family="Courier,monospace" font-size="10.00">##branch</text>
</g>
<!-- 1 -->
<g id="node2" class="node"><title>1</title>
<polygon fill="none" stroke="black" points="181,-356 39,-356 39,-288 181,-288 181,-356"/>
<text text-anchor="middle" x="110" y="-343" font-family="Courier,monospace" font-size="10.00">1</text>
<text text-anchor="start" x="46.5" y="-331" font-family="Courier,monospace" font-size="10.00">##inc&#45;d 3</text>
<text text-anchor="start" x="46.5" y="-319" font-family="Courier,monospace" font-size="10.00">##load&#45;integer 21 0</text>
<text text-anchor="start" x="46.5" y="-307" font-family="Courier,monospace" font-size="10.00">##load&#45;integer 22 100</text>
<text text-anchor="start" x="46.5" y="-295" font-family="Courier,monospace" font-size="10.00">##branch</text>
</g>
<!-- 0&#45;&gt;1 -->
<g id="edge1" class="edge"><title>0&#45;&gt;1</title>
<path fill="none" stroke="black" d="M110,-391.729C110,-384.085 110,-375.236 110,-366.463"/>
<polygon fill="black" stroke="black" points="113.5,-366.274 110,-356.274 106.5,-366.274 113.5,-366.274"/>
</g>
<!-- 2 -->
<g id="node3" class="node"><title>2</title>
<polygon fill="none" stroke="black" points="220,-252 5.48103e-14,-252 1.2372e-14,-184 220,-184 220,-252"/>
<text text-anchor="middle" x="110" y="-239" font-family="Courier,monospace" font-size="10.00">2</text>
<text text-anchor="start" x="7.5" y="-227" font-family="Courier,monospace" font-size="10.00">##phi 29 H{ { 1 21 } { 3 36 } }</text>
<text text-anchor="start" x="7.5" y="-215" font-family="Courier,monospace" font-size="10.00">##phi 30 H{ { 1 21 } { 3 38 } }</text>
<text text-anchor="start" x="7.5" y="-203" font-family="Courier,monospace" font-size="10.00">##compare&#45;integer 31 30 22 cc&lt; 9</text>
<text text-anchor="start" x="7.5" y="-191" font-family="Courier,monospace" font-size="10.00">##compare&#45;integer&#45;branch 30 22 cc&lt;</text>
</g>
<!-- 1&#45;&gt;2 -->
<g id="edge2" class="edge"><title>1&#45;&gt;2</title>
<path fill="none" stroke="black" d="M110,-287.947C110,-279.776 110,-270.932 110,-262.37"/>
<polygon fill="black" stroke="black" points="113.5,-262.13 110,-252.13 106.5,-262.13 113.5,-262.13"/>
</g>
<!-- 3 -->
<g id="node4" class="node"><title>3</title>
<polygon fill="none" stroke="black" points="175,-148 45,-148 45,-80 175,-80 175,-148"/>
<text text-anchor="middle" x="110" y="-135" font-family="Courier,monospace" font-size="10.00">3</text>
<text text-anchor="start" x="52.5" y="-123" font-family="Courier,monospace" font-size="10.00">##load&#45;integer 35 1</text>
<text text-anchor="start" x="52.5" y="-111" font-family="Courier,monospace" font-size="10.00">##add&#45;imm 36 29 1</text>
<text text-anchor="start" x="52.5" y="-99" font-family="Courier,monospace" font-size="10.00">##add&#45;imm 38 30 1</text>
<text text-anchor="start" x="52.5" y="-87" font-family="Courier,monospace" font-size="10.00">##branch</text>
</g>
<!-- 2&#45;&gt;3 -->
<g id="edge3" class="edge"><title>2&#45;&gt;3</title>
<path fill="none" stroke="black" d="M103.621,-183.947C103.27,-175.776 103.168,-166.932 103.315,-158.37"/>
<polygon fill="black" stroke="black" points="106.821,-158.229 103.618,-148.13 99.8237,-158.022 106.821,-158.229"/>
</g>
<!-- 4 -->
<g id="node5" class="node"><title>4</title>
<polygon fill="none" stroke="black" points="305,-142 193,-142 193,-86 305,-86 305,-142"/>
<text text-anchor="middle" x="249" y="-129" font-family="Courier,monospace" font-size="10.00">4</text>
<text text-anchor="start" x="200.5" y="-117" font-family="Courier,monospace" font-size="10.00">##inc&#45;d &#45;2</text>
<text text-anchor="start" x="200.5" y="-105" font-family="Courier,monospace" font-size="10.00">##replace 29 D 0</text>
<text text-anchor="start" x="200.5" y="-93" font-family="Courier,monospace" font-size="10.00">##branch</text>
</g>
<!-- 2&#45;&gt;4 -->
<g id="edge4" class="edge"><title>2&#45;&gt;4</title>
<path fill="none" stroke="black" d="M155.514,-183.947C170.745,-172.55 187.729,-159.843 202.997,-148.419"/>
<polygon fill="black" stroke="black" points="205.371,-151.014 211.281,-142.221 201.178,-145.409 205.371,-151.014"/>
</g>
<!-- 3&#45;&gt;2 -->
<g id="edge5" class="edge"><title>3&#45;&gt;2</title>
<path fill="none" stroke="black" d="M116.382,-148.13C116.732,-156.305 116.832,-165.15 116.684,-173.71"/>
<polygon fill="black" stroke="black" points="113.178,-173.847 116.379,-183.947 120.175,-174.055 113.178,-173.847"/>
</g>
<!-- 5 -->
<g id="node6" class="node"><title>5</title>
<polygon fill="grey" stroke="grey" points="287,-44 211,-44 211,-1.42109e-14 287,-0 287,-44"/>
<text text-anchor="middle" x="249" y="-31" font-family="Courier,monospace" font-size="10.00">5</text>
<text text-anchor="start" x="218.5" y="-19" font-family="Courier,monospace" font-size="10.00">##epilogue</text>
<text text-anchor="start" x="218.5" y="-7" font-family="Courier,monospace" font-size="10.00">##return</text>
</g>
<!-- 4&#45;&gt;5 -->
<g id="edge6" class="edge"><title>4&#45;&gt;5</title>
<path fill="none" stroke="black" d="M249,-85.8971C249,-75.9354 249,-64.647 249,-54.3594"/>
<polygon fill="black" stroke="black" points="252.5,-54.0984 249,-44.0985 245.5,-54.0985 252.5,-54.0984"/>
</g>
</g>
</svg>
