<?xml version="1.0" encoding="UTF-8" standalone="no"?>
<!DOCTYPE svg PUBLIC "-//W3C//DTD SVG 1.1//EN"
 "http://www.w3.org/Graphics/SVG/1.1/DTD/svg11.dtd">
<!-- Generated by graphviz version 2.26.3 (20100126.1600)
 -->
<!-- Title: _anonymous_27 Pages: 1 -->
<svg width="298pt" height="468pt"
 viewBox="0.00 0.00 298.00 468.00" xmlns="http://www.w3.org/2000/svg" xmlns:xlink="http://www.w3.org/1999/xlink">
<g id="graph1" class="graph" transform="scale(1 1) rotate(0) translate(4 464)">
<title>_anonymous_27</title>
<polygon fill="white" stroke="white" points="-4,5 -4,-464 295,-464 295,5 -4,5"/>
<!-- 0 -->
<g id="node1" class="node"><title>0</title>
<polygon fill="none" stroke="black" points="183,-460 107,-460 107,-416 183,-416 183,-460"/>
<text text-anchor="middle" x="145" y="-447" font-family="Courier,monospace" font-size="10.00">0</text>
<text text-anchor="start" x="114.5" y="-435" font-family="Courier,monospace" font-size="10.00">##prologue</text>
<text text-anchor="start" x="114.5" y="-423" font-family="Courier,monospace" font-size="10.00">##branch</text>
</g>
<!-- 1 -->
<g id="node2" class="node"><title>1</title>
<polygon fill="none" stroke="black" points="243,-380 47,-380 47,-324 243,-324 243,-380"/>
<text text-anchor="middle" x="145" y="-367" font-family="Courier,monospace" font-size="10.00">1</text>
<text text-anchor="start" x="54.5" y="-355" font-family="Courier,monospace" font-size="10.00">##peek 17 D 0</text>
<text text-anchor="start" x="54.5" y="-343" font-family="Courier,monospace" font-size="10.00">##load&#45;integer 18 10</text>
<text text-anchor="start" x="54.5" y="-331" font-family="Courier,monospace" font-size="10.00">##compare&#45;imm&#45;branch 17 f cc/=</text>
</g>
<!-- 0&#45;&gt;1 -->
<g id="edge1" class="edge"><title>0&#45;&gt;1</title>
<path fill="none" stroke="black" d="M145,-415.853C145,-408.055 145,-399.05 145,-390.306"/>
<polygon fill="black" stroke="black" points="148.5,-390.251 145,-380.251 141.5,-390.251 148.5,-390.251"/>
</g>
<!-- 2 -->
<g id="node3" class="node"><title>2</title>
<polygon fill="none" stroke="black" points="136,-288 2.76029e-14,-288 1.34961e-14,-232 136,-232 136,-288"/>
<text text-anchor="middle" x="68" y="-275" font-family="Courier,monospace" font-size="10.00">2</text>
<text text-anchor="start" x="7.5" y="-263" font-family="Courier,monospace" font-size="10.00">##inc&#45;d 1</text>
<text text-anchor="start" x="7.5" y="-251" font-family="Courier,monospace" font-size="10.00">##load&#45;integer 29 10</text>
<text text-anchor="start" x="7.5" y="-239" font-family="Courier,monospace" font-size="10.00">##branch</text>
</g>
<!-- 1&#45;&gt;2 -->
<g id="edge2" class="edge"><title>1&#45;&gt;2</title>
<path fill="none" stroke="black" d="M121.479,-323.897C114.159,-315.151 105.983,-305.382 98.2688,-296.165"/>
<polygon fill="black" stroke="black" points="100.744,-293.67 91.6422,-288.248 95.3765,-298.163 100.744,-293.67"/>
</g>
<!-- 3 -->
<g id="node4" class="node"><title>3</title>
<polygon fill="none" stroke="black" points="290,-288 154,-288 154,-232 290,-232 290,-288"/>
<text text-anchor="middle" x="222" y="-275" font-family="Courier,monospace" font-size="10.00">3</text>
<text text-anchor="start" x="161.5" y="-263" font-family="Courier,monospace" font-size="10.00">##inc&#45;d 1</text>
<text text-anchor="start" x="161.5" y="-251" font-family="Courier,monospace" font-size="10.00">##load&#45;integer 31 20</text>
<text text-anchor="start" x="161.5" y="-239" font-family="Courier,monospace" font-size="10.00">##branch</text>
</g>
<!-- 1&#45;&gt;3 -->
<g id="edge3" class="edge"><title>1&#45;&gt;3</title>
<path fill="none" stroke="black" d="M168.521,-323.897C175.841,-315.151 184.017,-305.382 191.731,-296.165"/>
<polygon fill="black" stroke="black" points="194.624,-298.163 198.358,-288.248 189.256,-293.67 194.624,-298.163"/>
</g>
<!-- 4 -->
<g id="node5" class="node"><title>4</title>
<polygon fill="none" stroke="black" points="246,-196 44,-196 44,-80 246,-80 246,-196"/>
<text text-anchor="middle" x="145" y="-183" font-family="Courier,monospace" font-size="10.00">4</text>
<text text-anchor="start" x="51.5" y="-171" font-family="Courier,monospace" font-size="10.00">##phi 22 H{ { 2 29 } { 3 31 } }</text>
<text text-anchor="start" x="51.5" y="-159" font-family="Courier,monospace" font-size="10.00">##inc&#45;d 3</text>
<text text-anchor="start" x="51.5" y="-147" font-family="Courier,monospace" font-size="10.00">##replace 22 D 3</text>
<text text-anchor="start" x="51.5" y="-135" font-family="Courier,monospace" font-size="10.00">##replace 18 D 4</text>
<text text-anchor="start" x="51.5" y="-123" font-family="Courier,monospace" font-size="10.00">##replace&#45;imm 20 D 1</text>
<text text-anchor="start" x="51.5" y="-111" font-family="Courier,monospace" font-size="10.00">##replace&#45;imm 10 D 2</text>
<text text-anchor="start" x="51.5" y="-99" font-family="Courier,monospace" font-size="10.00">##replace&#45;imm 30 D 0</text>
<text text-anchor="start" x="51.5" y="-87" font-family="Courier,monospace" font-size="10.00">##branch</text>
</g>
<!-- 2&#45;&gt;4 -->
<g id="edge4" class="edge"><title>2&#45;&gt;4</title>
<path fill="none" stroke="black" d="M85.8589,-231.704C90.961,-223.62 96.7499,-214.448 102.661,-205.083"/>
<polygon fill="black" stroke="black" points="105.729,-206.779 108.107,-196.454 99.8097,-203.042 105.729,-206.779"/>
</g>
<!-- 3&#45;&gt;4 -->
<g id="edge5" class="edge"><title>3&#45;&gt;4</title>
<path fill="none" stroke="black" d="M204.141,-231.704C199.039,-223.62 193.25,-214.448 187.339,-205.083"/>
<polygon fill="black" stroke="black" points="190.19,-203.042 181.893,-196.454 184.271,-206.779 190.19,-203.042"/>
</g>
<!-- 5 -->
<g id="node6" class="node"><title>5</title>
<polygon fill="none" stroke="black" points="183,-44 107,-44 107,-1.42109e-14 183,-0 183,-44"/>
<text text-anchor="middle" x="145" y="-31" font-family="Courier,monospace" font-size="10.00">5</text>
<text text-anchor="start" x="114.5" y="-19" font-family="Courier,monospace" font-size="10.00">##epilogue</text>
<text text-anchor="start" x="114.5" y="-7" font-family="Courier,monospace" font-size="10.00">##return</text>
</g>
<!-- 4&#45;&gt;5 -->
<g id="edge6" class="edge"><title>4&#45;&gt;5</title>
<path fill="none" stroke="black" d="M145,-80C145,-71.0995 145,-62.1989 145,-54.1368"/>
<polygon fill="black" stroke="black" points="148.5,-54.0917 145,-44.0918 141.5,-54.0918 148.5,-54.0917"/>
</g>
</g>
</svg>
