<?xml version="1.0" encoding="UTF-8" standalone="no"?>
<!DOCTYPE svg PUBLIC "-//W3C//DTD SVG 1.1//EN"
 "http://www.w3.org/Graphics/SVG/1.1/DTD/svg11.dtd">
<!-- Generated by graphviz version 2.26.3 (20100126.1600)
 -->
<!-- Title: _anonymous_631 Pages: 1 -->
<svg width="238pt" height="468pt"
 viewBox="0.00 0.00 238.00 468.00" xmlns="http://www.w3.org/2000/svg" xmlns:xlink="http://www.w3.org/1999/xlink">
<g id="graph1" class="graph" transform="scale(1 1) rotate(0) translate(4 464)">
<title>_anonymous_631</title>
<polygon fill="white" stroke="white" points="-4,5 -4,-464 235,-464 235,5 -4,5"/>
<!-- 0 -->
<g id="node1" class="node"><title>0</title>
<polygon fill="grey" stroke="grey" points="139,-460 63,-460 63,-416 139,-416 139,-460"/>
<text text-anchor="middle" x="101" y="-447" font-family="Courier,monospace" font-size="10.00">0</text>
<text text-anchor="start" x="70.5" y="-435" font-family="Courier,monospace" font-size="10.00">##prologue</text>
<text text-anchor="start" x="70.5" y="-423" font-family="Courier,monospace" font-size="10.00">##branch</text>
</g>
<!-- 1 -->
<g id="node2" class="node"><title>1</title>
<polygon fill="none" stroke="black" points="199,-380 3,-380 3,-324 199,-324 199,-380"/>
<text text-anchor="middle" x="101" y="-367" font-family="Courier,monospace" font-size="10.00">1</text>
<text text-anchor="start" x="10.5" y="-355" font-family="Courier,monospace" font-size="10.00">##peek 17 D 0</text>
<text text-anchor="start" x="10.5" y="-343" font-family="Courier,monospace" font-size="10.00">##load&#45;integer 18 10</text>
<text text-anchor="start" x="10.5" y="-331" font-family="Courier,monospace" font-size="10.00">##compare&#45;imm&#45;branch 17 f cc/=</text>
</g>
<!-- 0&#45;&gt;1 -->
<g id="edge1" class="edge"><title>0&#45;&gt;1</title>
<path fill="none" stroke="black" d="M101,-415.853C101,-408.055 101,-399.05 101,-390.306"/>
<polygon fill="black" stroke="black" points="104.5,-390.251 101,-380.251 97.5001,-390.251 104.5,-390.251"/>
</g>
<!-- 2 -->
<g id="node3" class="node"><title>2</title>
<polygon fill="none" stroke="black" points="76,-282 6,-282 6,-238 76,-238 76,-282"/>
<text text-anchor="middle" x="41" y="-269" font-family="Courier,monospace" font-size="10.00">2</text>
<text text-anchor="start" x="13.5" y="-257" font-family="Courier,monospace" font-size="10.00">##inc&#45;d 1</text>
<text text-anchor="start" x="13.5" y="-245" font-family="Courier,monospace" font-size="10.00">##branch</text>
</g>
<!-- 1&#45;&gt;2 -->
<g id="edge2" class="edge"><title>1&#45;&gt;2</title>
<path fill="none" stroke="black" d="M82.672,-323.897C75.8333,-313.411 68.0359,-301.455 61.0502,-290.744"/>
<polygon fill="black" stroke="black" points="63.8064,-288.563 55.412,-282.098 57.9431,-292.387 63.8064,-288.563"/>
</g>
<!-- 3 -->
<g id="node4" class="node"><title>3</title>
<polygon fill="none" stroke="black" points="230,-288 94,-288 94,-232 230,-232 230,-288"/>
<text text-anchor="middle" x="162" y="-275" font-family="Courier,monospace" font-size="10.00">3</text>
<text text-anchor="start" x="101.5" y="-263" font-family="Courier,monospace" font-size="10.00">##inc&#45;d 1</text>
<text text-anchor="start" x="101.5" y="-251" font-family="Courier,monospace" font-size="10.00">##load&#45;integer 24 20</text>
<text text-anchor="start" x="101.5" y="-239" font-family="Courier,monospace" font-size="10.00">##branch</text>
</g>
<!-- 1&#45;&gt;3 -->
<g id="edge3" class="edge"><title>1&#45;&gt;3</title>
<path fill="none" stroke="black" d="M119.633,-323.897C125.315,-315.327 131.648,-305.776 137.65,-296.725"/>
<polygon fill="black" stroke="black" points="140.661,-298.516 143.27,-288.248 134.827,-294.648 140.661,-298.516"/>
</g>
<!-- 4 -->
<g id="node5" class="node"><title>4</title>
<polygon fill="none" stroke="black" points="202,-196 5.59552e-14,-196 1.35308e-14,-80 202,-80 202,-196"/>
<text text-anchor="middle" x="101" y="-183" font-family="Courier,monospace" font-size="10.00">4</text>
<text text-anchor="start" x="7.5" y="-171" font-family="Courier,monospace" font-size="10.00">##phi 26 H{ { 2 18 } { 3 24 } }</text>
<text text-anchor="start" x="7.5" y="-159" font-family="Courier,monospace" font-size="10.00">##inc&#45;d 3</text>
<text text-anchor="start" x="7.5" y="-147" font-family="Courier,monospace" font-size="10.00">##replace 26 D 3</text>
<text text-anchor="start" x="7.5" y="-135" font-family="Courier,monospace" font-size="10.00">##replace&#45;imm 10 D 4</text>
<text text-anchor="start" x="7.5" y="-123" font-family="Courier,monospace" font-size="10.00">##replace&#45;imm 20 D 1</text>
<text text-anchor="start" x="7.5" y="-111" font-family="Courier,monospace" font-size="10.00">##replace&#45;imm 10 D 2</text>
<text text-anchor="start" x="7.5" y="-99" font-family="Courier,monospace" font-size="10.00">##replace&#45;imm 30 D 0</text>
<text text-anchor="start" x="7.5" y="-87" font-family="Courier,monospace" font-size="10.00">##branch</text>
</g>
<!-- 2&#45;&gt;4 -->
<g id="edge4" class="edge"><title>2&#45;&gt;4</title>
<path fill="none" stroke="black" d="M51.8655,-237.907C56.4942,-228.495 62.1658,-216.963 67.9902,-205.12"/>
<polygon fill="black" stroke="black" points="71.1868,-206.551 72.4593,-196.033 64.9053,-203.462 71.1868,-206.551"/>
</g>
<!-- 3&#45;&gt;4 -->
<g id="edge5" class="edge"><title>3&#45;&gt;4</title>
<path fill="none" stroke="black" d="M147.852,-231.704C143.893,-223.785 139.411,-214.822 134.828,-205.656"/>
<polygon fill="black" stroke="black" points="137.83,-203.833 130.227,-196.454 131.569,-206.964 137.83,-203.833"/>
</g>
<!-- 5 -->
<g id="node6" class="node"><title>5</title>
<polygon fill="grey" stroke="grey" points="139,-44 63,-44 63,-1.42109e-14 139,-0 139,-44"/>
<text text-anchor="middle" x="101" y="-31" font-family="Courier,monospace" font-size="10.00">5</text>
<text text-anchor="start" x="70.5" y="-19" font-family="Courier,monospace" font-size="10.00">##epilogue</text>
<text text-anchor="start" x="70.5" y="-7" font-family="Courier,monospace" font-size="10.00">##return</text>
</g>
<!-- 4&#45;&gt;5 -->
<g id="edge6" class="edge"><title>4&#45;&gt;5</title>
<path fill="none" stroke="black" d="M101,-80C101,-71.0995 101,-62.1989 101,-54.1368"/>
<polygon fill="black" stroke="black" points="104.5,-54.0917 101,-44.0918 97.5001,-54.0918 104.5,-54.0917"/>
</g>
</g>
</svg>
