<?xml version="1.0" encoding="UTF-8" standalone="no"?>
<!DOCTYPE svg PUBLIC "-//W3C//DTD SVG 1.1//EN"
 "http://www.w3.org/Graphics/SVG/1.1/DTD/svg11.dtd">
<!-- Generated by graphviz version 2.26.3 (20100126.1600)
 -->
<!-- Title: _anonymous_632 Pages: 1 -->
<svg width="242pt" height="456pt"
 viewBox="0.00 0.00 242.00 456.00" xmlns="http://www.w3.org/2000/svg" xmlns:xlink="http://www.w3.org/1999/xlink">
<g id="graph1" class="graph" transform="scale(1 1) rotate(0) translate(4 452)">
<title>_anonymous_632</title>
<polygon fill="white" stroke="white" points="-4,5 -4,-452 239,-452 239,5 -4,5"/>
<!-- 0 -->
<g id="node1" class="node"><title>0</title>
<polygon fill="grey" stroke="grey" points="139,-448 63,-448 63,-404 139,-404 139,-448"/>
<text text-anchor="middle" x="101" y="-435" font-family="Courier,monospace" font-size="10.00">0</text>
<text text-anchor="start" x="70.5" y="-423" font-family="Courier,monospace" font-size="10.00">##prologue</text>
<text text-anchor="start" x="70.5" y="-411" font-family="Courier,monospace" font-size="10.00">##branch</text>
</g>
<!-- 1 -->
<g id="node2" class="node"><title>1</title>
<polygon fill="none" stroke="black" points="202,-368 5.59552e-14,-368 1.35308e-14,-312 202,-312 202,-368"/>
<text text-anchor="middle" x="101" y="-355" font-family="Courier,monospace" font-size="10.00">1</text>
<text text-anchor="start" x="7.5" y="-343" font-family="Courier,monospace" font-size="10.00">##peek EAX D 0</text>
<text text-anchor="start" x="7.5" y="-331" font-family="Courier,monospace" font-size="10.00">##load&#45;tagged ECX 160</text>
<text text-anchor="start" x="7.5" y="-319" font-family="Courier,monospace" font-size="10.00">##compare&#45;imm&#45;branch EAX f cc/=</text>
</g>
<!-- 0&#45;&gt;1 -->
<g id="edge1" class="edge"><title>0&#45;&gt;1</title>
<path fill="none" stroke="black" d="M101,-403.853C101,-396.055 101,-387.05 101,-378.306"/>
<polygon fill="black" stroke="black" points="104.5,-378.251 101,-368.251 97.5001,-378.251 104.5,-378.251"/>
</g>
<!-- 2 -->
<g id="node3" class="node"><title>2</title>
<polygon fill="none" stroke="black" points="74,-270 4,-270 4,-226 74,-226 74,-270"/>
<text text-anchor="middle" x="39" y="-257" font-family="Courier,monospace" font-size="10.00">2</text>
<text text-anchor="start" x="11.5" y="-245" font-family="Courier,monospace" font-size="10.00">##inc&#45;d 1</text>
<text text-anchor="start" x="11.5" y="-233" font-family="Courier,monospace" font-size="10.00">##branch</text>
</g>
<!-- 1&#45;&gt;2 -->
<g id="edge2" class="edge"><title>1&#45;&gt;2</title>
<path fill="none" stroke="black" d="M82.0611,-311.897C74.9238,-301.306 66.7759,-289.216 59.5023,-278.423"/>
<polygon fill="black" stroke="black" points="62.3835,-276.435 53.8924,-270.098 56.5786,-280.347 62.3835,-276.435"/>
</g>
<!-- 3 -->
<g id="node4" class="node"><title>3</title>
<polygon fill="none" stroke="black" points="234,-276 92,-276 92,-220 234,-220 234,-276"/>
<text text-anchor="middle" x="163" y="-263" font-family="Courier,monospace" font-size="10.00">3</text>
<text text-anchor="start" x="99.5" y="-251" font-family="Courier,monospace" font-size="10.00">##inc&#45;d 1</text>
<text text-anchor="start" x="99.5" y="-239" font-family="Courier,monospace" font-size="10.00">##load&#45;tagged ECX 320</text>
<text text-anchor="start" x="99.5" y="-227" font-family="Courier,monospace" font-size="10.00">##branch</text>
</g>
<!-- 1&#45;&gt;3 -->
<g id="edge3" class="edge"><title>1&#45;&gt;3</title>
<path fill="none" stroke="black" d="M119.939,-311.897C125.714,-303.327 132.151,-293.776 138.251,-284.725"/>
<polygon fill="black" stroke="black" points="141.277,-286.497 143.963,-276.248 135.472,-282.585 141.277,-286.497"/>
</g>
<!-- 4 -->
<g id="node5" class="node"><title>4</title>
<polygon fill="none" stroke="black" points="169,-184 33,-184 33,-80 169,-80 169,-184"/>
<text text-anchor="middle" x="101" y="-171" font-family="Courier,monospace" font-size="10.00">4</text>
<text text-anchor="start" x="40.5" y="-159" font-family="Courier,monospace" font-size="10.00">##inc&#45;d 3</text>
<text text-anchor="start" x="40.5" y="-147" font-family="Courier,monospace" font-size="10.00">##replace ECX D 3</text>
<text text-anchor="start" x="40.5" y="-135" font-family="Courier,monospace" font-size="10.00">##replace&#45;imm 10 D 4</text>
<text text-anchor="start" x="40.5" y="-123" font-family="Courier,monospace" font-size="10.00">##replace&#45;imm 20 D 1</text>
<text text-anchor="start" x="40.5" y="-111" font-family="Courier,monospace" font-size="10.00">##replace&#45;imm 10 D 2</text>
<text text-anchor="start" x="40.5" y="-99" font-family="Courier,monospace" font-size="10.00">##replace&#45;imm 30 D 0</text>
<text text-anchor="start" x="40.5" y="-87" font-family="Courier,monospace" font-size="10.00">##branch</text>
</g>
<!-- 2&#45;&gt;4 -->
<g id="edge4" class="edge"><title>2&#45;&gt;4</title>
<path fill="none" stroke="black" d="M50.8077,-225.908C55.8472,-216.479 62.0024,-204.963 68.2527,-193.269"/>
<polygon fill="black" stroke="black" points="71.4068,-194.793 73.0339,-184.324 65.2333,-191.493 71.4068,-194.793"/>
</g>
<!-- 3&#45;&gt;4 -->
<g id="edge5" class="edge"><title>3&#45;&gt;4</title>
<path fill="none" stroke="black" d="M147.992,-219.92C143.646,-211.79 138.724,-202.58 133.741,-193.257"/>
<polygon fill="black" stroke="black" points="136.762,-191.485 128.962,-184.316 130.589,-194.785 136.762,-191.485"/>
</g>
<!-- 5 -->
<g id="node6" class="node"><title>5</title>
<polygon fill="grey" stroke="grey" points="139,-44 63,-44 63,-1.42109e-14 139,-0 139,-44"/>
<text text-anchor="middle" x="101" y="-31" font-family="Courier,monospace" font-size="10.00">5</text>
<text text-anchor="start" x="70.5" y="-19" font-family="Courier,monospace" font-size="10.00">##epilogue</text>
<text text-anchor="start" x="70.5" y="-7" font-family="Courier,monospace" font-size="10.00">##return</text>
</g>
<!-- 4&#45;&gt;5 -->
<g id="edge6" class="edge"><title>4&#45;&gt;5</title>
<path fill="none" stroke="black" d="M101,-79.8992C101,-71.1731 101,-62.3494 101,-54.31"/>
<polygon fill="black" stroke="black" points="104.5,-54.2674 101,-44.2674 97.5001,-54.2674 104.5,-54.2674"/>
</g>
</g>
</svg>
