<?xml version="1.0" encoding="UTF-8" standalone="no"?>
<!DOCTYPE svg PUBLIC "-//W3C//DTD SVG 1.1//EN"
 "http://www.w3.org/Graphics/SVG/1.1/DTD/svg11.dtd">
<!-- Generated by graphviz version 2.26.3 (20100126.1600)
 -->
<!-- Title: _anonymous_28 Pages: 1 -->
<svg width="310pt" height="456pt"
 viewBox="0.00 0.00 310.00 456.00" xmlns="http://www.w3.org/2000/svg" xmlns:xlink="http://www.w3.org/1999/xlink">
<g id="graph1" class="graph" transform="scale(1 1) rotate(0) translate(4 452)">
<title>_anonymous_28</title>
<polygon fill="white" stroke="white" points="-4,5 -4,-452 307,-452 307,5 -4,5"/>
<!-- 0 -->
<g id="node1" class="node"><title>0</title>
<polygon fill="none" stroke="black" points="189,-448 113,-448 113,-404 189,-404 189,-448"/>
<text text-anchor="middle" x="151" y="-435" font-family="Courier,monospace" font-size="10.00">0</text>
<text text-anchor="start" x="120.5" y="-423" font-family="Courier,monospace" font-size="10.00">##prologue</text>
<text text-anchor="start" x="120.5" y="-411" font-family="Courier,monospace" font-size="10.00">##branch</text>
</g>
<!-- 1 -->
<g id="node2" class="node"><title>1</title>
<polygon fill="none" stroke="black" points="252,-368 50,-368 50,-312 252,-312 252,-368"/>
<text text-anchor="middle" x="151" y="-355" font-family="Courier,monospace" font-size="10.00">1</text>
<text text-anchor="start" x="57.5" y="-343" font-family="Courier,monospace" font-size="10.00">##peek EAX D 0</text>
<text text-anchor="start" x="57.5" y="-331" font-family="Courier,monospace" font-size="10.00">##load&#45;tagged ECX 160</text>
<text text-anchor="start" x="57.5" y="-319" font-family="Courier,monospace" font-size="10.00">##compare&#45;imm&#45;branch EAX f cc/=</text>
</g>
<!-- 0&#45;&gt;1 -->
<g id="edge1" class="edge"><title>0&#45;&gt;1</title>
<path fill="none" stroke="black" d="M151,-403.853C151,-396.055 151,-387.05 151,-378.306"/>
<polygon fill="black" stroke="black" points="154.5,-378.251 151,-368.251 147.5,-378.251 154.5,-378.251"/>
</g>
<!-- 2 -->
<g id="node3" class="node"><title>2</title>
<polygon fill="none" stroke="black" points="142,-276 4.12795e-14,-276 1.3059e-14,-220 142,-220 142,-276"/>
<text text-anchor="middle" x="71" y="-263" font-family="Courier,monospace" font-size="10.00">2</text>
<text text-anchor="start" x="7.5" y="-251" font-family="Courier,monospace" font-size="10.00">##inc&#45;d 1</text>
<text text-anchor="start" x="7.5" y="-239" font-family="Courier,monospace" font-size="10.00">##load&#45;tagged EAX 160</text>
<text text-anchor="start" x="7.5" y="-227" font-family="Courier,monospace" font-size="10.00">##branch</text>
</g>
<!-- 1&#45;&gt;2 -->
<g id="edge2" class="edge"><title>1&#45;&gt;2</title>
<path fill="none" stroke="black" d="M126.563,-311.897C118.88,-303.062 110.291,-293.184 102.205,-283.886"/>
<polygon fill="black" stroke="black" points="104.766,-281.497 95.5634,-276.248 99.484,-286.091 104.766,-281.497"/>
</g>
<!-- 3 -->
<g id="node4" class="node"><title>3</title>
<polygon fill="none" stroke="black" points="302,-276 160,-276 160,-220 302,-220 302,-276"/>
<text text-anchor="middle" x="231" y="-263" font-family="Courier,monospace" font-size="10.00">3</text>
<text text-anchor="start" x="167.5" y="-251" font-family="Courier,monospace" font-size="10.00">##inc&#45;d 1</text>
<text text-anchor="start" x="167.5" y="-239" font-family="Courier,monospace" font-size="10.00">##load&#45;tagged EAX 320</text>
<text text-anchor="start" x="167.5" y="-227" font-family="Courier,monospace" font-size="10.00">##branch</text>
</g>
<!-- 1&#45;&gt;3 -->
<g id="edge3" class="edge"><title>1&#45;&gt;3</title>
<path fill="none" stroke="black" d="M175.437,-311.897C183.12,-303.062 191.709,-293.184 199.795,-283.886"/>
<polygon fill="black" stroke="black" points="202.516,-286.091 206.437,-276.248 197.234,-281.497 202.516,-286.091"/>
</g>
<!-- 4 -->
<g id="node5" class="node"><title>4</title>
<polygon fill="none" stroke="black" points="219,-184 83,-184 83,-80 219,-80 219,-184"/>
<text text-anchor="middle" x="151" y="-171" font-family="Courier,monospace" font-size="10.00">4</text>
<text text-anchor="start" x="90.5" y="-159" font-family="Courier,monospace" font-size="10.00">##inc&#45;d 3</text>
<text text-anchor="start" x="90.5" y="-147" font-family="Courier,monospace" font-size="10.00">##replace EAX D 3</text>
<text text-anchor="start" x="90.5" y="-135" font-family="Courier,monospace" font-size="10.00">##replace ECX D 4</text>
<text text-anchor="start" x="90.5" y="-123" font-family="Courier,monospace" font-size="10.00">##replace&#45;imm 20 D 1</text>
<text text-anchor="start" x="90.5" y="-111" font-family="Courier,monospace" font-size="10.00">##replace&#45;imm 10 D 2</text>
<text text-anchor="start" x="90.5" y="-99" font-family="Courier,monospace" font-size="10.00">##replace&#45;imm 30 D 0</text>
<text text-anchor="start" x="90.5" y="-87" font-family="Courier,monospace" font-size="10.00">##branch</text>
</g>
<!-- 2&#45;&gt;4 -->
<g id="edge4" class="edge"><title>2&#45;&gt;4</title>
<path fill="none" stroke="black" d="M90.3658,-219.92C96.0883,-211.622 102.587,-202.199 109.152,-192.68"/>
<polygon fill="black" stroke="black" points="112.124,-194.535 114.92,-184.316 106.362,-190.561 112.124,-194.535"/>
</g>
<!-- 3&#45;&gt;4 -->
<g id="edge5" class="edge"><title>3&#45;&gt;4</title>
<path fill="none" stroke="black" d="M211.634,-219.92C205.912,-211.622 199.413,-202.199 192.848,-192.68"/>
<polygon fill="black" stroke="black" points="195.638,-190.561 187.08,-184.316 189.876,-194.535 195.638,-190.561"/>
</g>
<!-- 5 -->
<g id="node6" class="node"><title>5</title>
<polygon fill="none" stroke="black" points="189,-44 113,-44 113,-1.42109e-14 189,-0 189,-44"/>
<text text-anchor="middle" x="151" y="-31" font-family="Courier,monospace" font-size="10.00">5</text>
<text text-anchor="start" x="120.5" y="-19" font-family="Courier,monospace" font-size="10.00">##epilogue</text>
<text text-anchor="start" x="120.5" y="-7" font-family="Courier,monospace" font-size="10.00">##return</text>
</g>
<!-- 4&#45;&gt;5 -->
<g id="edge6" class="edge"><title>4&#45;&gt;5</title>
<path fill="none" stroke="black" d="M151,-79.8992C151,-71.1731 151,-62.3494 151,-54.31"/>
<polygon fill="black" stroke="black" points="154.5,-54.2674 151,-44.2674 147.5,-54.2674 154.5,-54.2674"/>
</g>
</g>
</svg>
