<?xml version="1.0" encoding="UTF-8" standalone="no"?>
<!DOCTYPE svg PUBLIC "-//W3C//DTD SVG 1.1//EN"
 "http://www.w3.org/Graphics/SVG/1.1/DTD/svg11.dtd">
<!-- Generated by graphviz version 2.26.3 (20100126.1600)
 -->
<!-- Title: _anonymous_616 Pages: 1 -->
<svg width="286pt" height="856pt"
 viewBox="0.00 0.00 286.00 856.00" xmlns="http://www.w3.org/2000/svg" xmlns:xlink="http://www.w3.org/1999/xlink">
<g id="graph1" class="graph" transform="scale(1 1) rotate(0) translate(4 852)">
<title>_anonymous_616</title>
<polygon fill="white" stroke="white" points="-4,5 -4,-852 283,-852 283,5 -4,5"/>
<!-- 0 -->
<g id="node1" class="node"><title>0</title>
<polygon fill="grey" stroke="grey" points="176,-848 100,-848 100,-804 176,-804 176,-848"/>
<text text-anchor="middle" x="138" y="-835" font-family="Courier,monospace" font-size="10.00">0</text>
<text text-anchor="start" x="107.5" y="-823" font-family="Courier,monospace" font-size="10.00">##prologue</text>
<text text-anchor="start" x="107.5" y="-811" font-family="Courier,monospace" font-size="10.00">##branch</text>
</g>
<!-- 1 -->
<g id="node2" class="node"><title>1</title>
<polygon fill="none" stroke="black" points="182,-768 94,-768 94,-724 182,-724 182,-768"/>
<text text-anchor="middle" x="138" y="-755" font-family="Courier,monospace" font-size="10.00">1</text>
<text text-anchor="start" x="101.5" y="-743" font-family="Courier,monospace" font-size="10.00">##peek 2 D 0</text>
<text text-anchor="start" x="101.5" y="-731" font-family="Courier,monospace" font-size="10.00">##branch</text>
</g>
<!-- 0&#45;&gt;1 -->
<g id="edge1" class="edge"><title>0&#45;&gt;1</title>
<path fill="none" stroke="black" d="M138,-803.716C138,-795.827 138,-786.787 138,-778.238"/>
<polygon fill="black" stroke="black" points="141.5,-778.165 138,-768.165 134.5,-778.165 141.5,-778.165"/>
</g>
<!-- 2 -->
<g id="node3" class="node"><title>2</title>
<polygon fill="none" stroke="black" points="233,-688 43,-688 43,-608 233,-608 233,-688"/>
<text text-anchor="middle" x="138" y="-675" font-family="Courier,monospace" font-size="10.00">2</text>
<text text-anchor="start" x="50.5" y="-663" font-family="Courier,monospace" font-size="10.00">##load&#45;integer 1 10</text>
<text text-anchor="start" x="50.5" y="-651" font-family="Courier,monospace" font-size="10.00">##copy 3 2 any&#45;rep</text>
<text text-anchor="start" x="50.5" y="-639" font-family="Courier,monospace" font-size="10.00">##copy 5 2 any&#45;rep</text>
<text text-anchor="start" x="50.5" y="-627" font-family="Courier,monospace" font-size="10.00">##copy 2 1 any&#45;rep</text>
<text text-anchor="start" x="50.5" y="-615" font-family="Courier,monospace" font-size="10.00">##compare&#45;imm&#45;branch 3 f cc/=</text>
</g>
<!-- 1&#45;&gt;2 -->
<g id="edge2" class="edge"><title>1&#45;&gt;2</title>
<path fill="none" stroke="black" d="M138,-723.762C138,-716.131 138,-707.249 138,-698.31"/>
<polygon fill="black" stroke="black" points="141.5,-698.256 138,-688.256 134.5,-698.256 141.5,-698.256"/>
</g>
<!-- 3 -->
<g id="node4" class="node"><title>3</title>
<polygon fill="none" stroke="black" points="113,-572 49,-572 49,-536 113,-536 113,-572"/>
<text text-anchor="middle" x="81" y="-557" font-family="Courier,monospace" font-size="10.00">3</text>
<text text-anchor="start" x="56.5" y="-545" font-family="Courier,monospace" font-size="10.00">##branch</text>
</g>
<!-- 2&#45;&gt;3 -->
<g id="edge3" class="edge"><title>2&#45;&gt;3</title>
<path fill="none" stroke="black" d="M113.662,-607.863C108.151,-598.775 102.428,-589.337 97.3407,-580.948"/>
<polygon fill="black" stroke="black" points="100.289,-579.059 92.1107,-572.323 94.303,-582.688 100.289,-579.059"/>
</g>
<!-- 6 -->
<g id="node5" class="node"><title>6</title>
<polygon fill="none" stroke="black" points="228,-572 164,-572 164,-536 228,-536 228,-572"/>
<text text-anchor="middle" x="196" y="-557" font-family="Courier,monospace" font-size="10.00">6</text>
<text text-anchor="start" x="171.5" y="-545" font-family="Courier,monospace" font-size="10.00">##branch</text>
</g>
<!-- 2&#45;&gt;6 -->
<g id="edge4" class="edge"><title>2&#45;&gt;6</title>
<path fill="none" stroke="black" d="M162.765,-607.863C168.373,-598.775 174.196,-589.337 179.373,-580.948"/>
<polygon fill="black" stroke="black" points="182.422,-582.671 184.694,-572.323 176.465,-578.995 182.422,-582.671"/>
</g>
<!-- 4 -->
<g id="node6" class="node"><title>4</title>
<polygon fill="none" stroke="black" points="130,-500 4.31391e-14,-500 1.49325e-14,-432 130,-432 130,-500"/>
<text text-anchor="middle" x="65" y="-487" font-family="Courier,monospace" font-size="10.00">4</text>
<text text-anchor="start" x="7.5" y="-475" font-family="Courier,monospace" font-size="10.00">##load&#45;integer 4 10</text>
<text text-anchor="start" x="7.5" y="-463" font-family="Courier,monospace" font-size="10.00">##copy 5 4 any&#45;rep</text>
<text text-anchor="start" x="7.5" y="-451" font-family="Courier,monospace" font-size="10.00">##inc&#45;d 1</text>
<text text-anchor="start" x="7.5" y="-439" font-family="Courier,monospace" font-size="10.00">##branch</text>
</g>
<!-- 3&#45;&gt;4 -->
<g id="edge5" class="edge"><title>3&#45;&gt;4</title>
<path fill="none" stroke="black" d="M77.6848,-535.766C76.3281,-528.305 74.6939,-519.316 73.0565,-510.311"/>
<polygon fill="black" stroke="black" points="76.4536,-509.429 71.2211,-500.216 69.5665,-510.681 76.4536,-509.429"/>
</g>
<!-- 7 -->
<g id="node9" class="node"><title>7</title>
<polygon fill="none" stroke="black" points="278,-500 148,-500 148,-432 278,-432 278,-500"/>
<text text-anchor="middle" x="213" y="-487" font-family="Courier,monospace" font-size="10.00">7</text>
<text text-anchor="start" x="155.5" y="-475" font-family="Courier,monospace" font-size="10.00">##load&#45;integer 7 20</text>
<text text-anchor="start" x="155.5" y="-463" font-family="Courier,monospace" font-size="10.00">##copy 5 7 any&#45;rep</text>
<text text-anchor="start" x="155.5" y="-451" font-family="Courier,monospace" font-size="10.00">##inc&#45;d 1</text>
<text text-anchor="start" x="155.5" y="-439" font-family="Courier,monospace" font-size="10.00">##branch</text>
</g>
<!-- 6&#45;&gt;7 -->
<g id="edge8" class="edge"><title>6&#45;&gt;7</title>
<path fill="none" stroke="black" d="M199.522,-535.766C200.964,-528.305 202.7,-519.316 204.44,-510.311"/>
<polygon fill="black" stroke="black" points="207.93,-510.698 206.39,-500.216 201.057,-509.371 207.93,-510.698"/>
</g>
<!-- 5 -->
<g id="node7" class="node"><title>5</title>
<polygon fill="none" stroke="black" points="130,-396 66,-396 66,-360 130,-360 130,-396"/>
<text text-anchor="middle" x="98" y="-381" font-family="Courier,monospace" font-size="10.00">5</text>
<text text-anchor="start" x="73.5" y="-369" font-family="Courier,monospace" font-size="10.00">##branch</text>
</g>
<!-- 4&#45;&gt;5 -->
<g id="edge6" class="edge"><title>4&#45;&gt;5</title>
<path fill="none" stroke="black" d="M77.7587,-431.977C81.008,-423.312 84.4618,-414.102 87.579,-405.789"/>
<polygon fill="black" stroke="black" points="90.9439,-406.784 91.178,-396.192 84.3896,-404.326 90.9439,-406.784"/>
</g>
<!-- 9 -->
<g id="node8" class="node"><title>9</title>
<polygon fill="none" stroke="black" points="215,-324 79,-324 79,-208 215,-208 215,-324"/>
<text text-anchor="middle" x="147" y="-311" font-family="Courier,monospace" font-size="10.00">9</text>
<text text-anchor="start" x="86.5" y="-299" font-family="Courier,monospace" font-size="10.00">##load&#45;integer 10 10</text>
<text text-anchor="start" x="86.5" y="-287" font-family="Courier,monospace" font-size="10.00">##load&#45;integer 11 20</text>
<text text-anchor="start" x="86.5" y="-275" font-family="Courier,monospace" font-size="10.00">##load&#45;integer 12 30</text>
<text text-anchor="start" x="86.5" y="-263" font-family="Courier,monospace" font-size="10.00">##copy 13 11 any&#45;rep</text>
<text text-anchor="start" x="86.5" y="-251" font-family="Courier,monospace" font-size="10.00">##copy 14 10 any&#45;rep</text>
<text text-anchor="start" x="86.5" y="-239" font-family="Courier,monospace" font-size="10.00">##copy 15 12 any&#45;rep</text>
<text text-anchor="start" x="86.5" y="-227" font-family="Courier,monospace" font-size="10.00">##inc&#45;d 3</text>
<text text-anchor="start" x="86.5" y="-215" font-family="Courier,monospace" font-size="10.00">##branch</text>
</g>
<!-- 5&#45;&gt;9 -->
<g id="edge7" class="edge"><title>5&#45;&gt;9</title>
<path fill="none" stroke="black" d="M106.091,-359.505C109.346,-352.066 113.316,-342.993 117.488,-333.456"/>
<polygon fill="black" stroke="black" points="120.732,-334.774 121.533,-324.209 114.319,-331.968 120.732,-334.774"/>
</g>
<!-- 10 -->
<g id="node11" class="node"><title>10</title>
<polygon fill="none" stroke="black" points="203,-172 91,-172 91,-80 203,-80 203,-172"/>
<text text-anchor="middle" x="147" y="-159" font-family="Courier,monospace" font-size="10.00">10</text>
<text text-anchor="start" x="98.5" y="-147" font-family="Courier,monospace" font-size="10.00">##replace 5 D 3</text>
<text text-anchor="start" x="98.5" y="-135" font-family="Courier,monospace" font-size="10.00">##replace 2 D 4</text>
<text text-anchor="start" x="98.5" y="-123" font-family="Courier,monospace" font-size="10.00">##replace 13 D 1</text>
<text text-anchor="start" x="98.5" y="-111" font-family="Courier,monospace" font-size="10.00">##replace 14 D 2</text>
<text text-anchor="start" x="98.5" y="-99" font-family="Courier,monospace" font-size="10.00">##replace 15 D 0</text>
<text text-anchor="start" x="98.5" y="-87" font-family="Courier,monospace" font-size="10.00">##branch</text>
</g>
<!-- 9&#45;&gt;10 -->
<g id="edge11" class="edge"><title>9&#45;&gt;10</title>
<path fill="none" stroke="black" d="M147,-207.844C147,-199.405 147,-190.729 147,-182.328"/>
<polygon fill="black" stroke="black" points="150.5,-182.249 147,-172.249 143.5,-182.249 150.5,-182.249"/>
</g>
<!-- 8 -->
<g id="node10" class="node"><title>8</title>
<polygon fill="none" stroke="black" points="228,-396 164,-396 164,-360 228,-360 228,-396"/>
<text text-anchor="middle" x="196" y="-381" font-family="Courier,monospace" font-size="10.00">8</text>
<text text-anchor="start" x="171.5" y="-369" font-family="Courier,monospace" font-size="10.00">##branch</text>
</g>
<!-- 7&#45;&gt;8 -->
<g id="edge9" class="edge"><title>7&#45;&gt;8</title>
<path fill="none" stroke="black" d="M206.427,-431.977C204.772,-423.407 203.013,-414.304 201.421,-406.064"/>
<polygon fill="black" stroke="black" points="204.848,-405.347 199.514,-396.192 197.975,-406.674 204.848,-405.347"/>
</g>
<!-- 8&#45;&gt;9 -->
<g id="edge10" class="edge"><title>8&#45;&gt;9</title>
<path fill="none" stroke="black" d="M187.909,-359.505C184.654,-352.066 180.684,-342.993 176.512,-333.456"/>
<polygon fill="black" stroke="black" points="179.681,-331.968 172.467,-324.209 173.268,-334.774 179.681,-331.968"/>
</g>
<!-- 11 -->
<g id="node12" class="node"><title>11</title>
<polygon fill="grey" stroke="grey" points="185,-44 109,-44 109,-1.42109e-14 185,-0 185,-44"/>
<text text-anchor="middle" x="147" y="-31" font-family="Courier,monospace" font-size="10.00">11</text>
<text text-anchor="start" x="116.5" y="-19" font-family="Courier,monospace" font-size="10.00">##epilogue</text>
<text text-anchor="start" x="116.5" y="-7" font-family="Courier,monospace" font-size="10.00">##return</text>
</g>
<!-- 10&#45;&gt;11 -->
<g id="edge12" class="edge"><title>10&#45;&gt;11</title>
<path fill="none" stroke="black" d="M147,-79.7784C147,-71.1782 147,-62.3644 147,-54.2939"/>
<polygon fill="black" stroke="black" points="150.5,-54.193 147,-44.193 143.5,-54.193 150.5,-54.193"/>
</g>
</g>
</svg>
