<?xml version="1.0" encoding="UTF-8" standalone="no"?>
<!DOCTYPE svg PUBLIC "-//W3C//DTD SVG 1.1//EN"
 "http://www.w3.org/Graphics/SVG/1.1/DTD/svg11.dtd">
<!-- Generated by graphviz version 2.26.3 (20100126.1600)
 -->
<!-- Title: _anonymous_22 Pages: 1 -->
<svg width="286pt" height="576pt"
 viewBox="0.00 0.00 286.00 576.00" xmlns="http://www.w3.org/2000/svg" xmlns:xlink="http://www.w3.org/1999/xlink">
<g id="graph1" class="graph" transform="scale(1 1) rotate(0) translate(4 572)">
<title>_anonymous_22</title>
<polygon fill="white" stroke="white" points="-4,5 -4,-572 283,-572 283,5 -4,5"/>
<!-- 0 -->
<g id="node1" class="node"><title>0</title>
<polygon fill="none" stroke="black" points="177,-568 101,-568 101,-524 177,-524 177,-568"/>
<text text-anchor="middle" x="139" y="-555" font-family="Courier,monospace" font-size="10.00">0</text>
<text text-anchor="start" x="108.5" y="-543" font-family="Courier,monospace" font-size="10.00">##prologue</text>
<text text-anchor="start" x="108.5" y="-531" font-family="Courier,monospace" font-size="10.00">##branch</text>
</g>
<!-- 1 -->
<g id="node2" class="node"><title>1</title>
<polygon fill="none" stroke="black" points="234,-488 44,-488 44,-396 234,-396 234,-488"/>
<text text-anchor="middle" x="139" y="-475" font-family="Courier,monospace" font-size="10.00">1</text>
<text text-anchor="start" x="51.5" y="-463" font-family="Courier,monospace" font-size="10.00">##peek 2 D 0</text>
<text text-anchor="start" x="51.5" y="-451" font-family="Courier,monospace" font-size="10.00">##load&#45;integer 1 10</text>
<text text-anchor="start" x="51.5" y="-439" font-family="Courier,monospace" font-size="10.00">##copy 3 2 any&#45;rep</text>
<text text-anchor="start" x="51.5" y="-427" font-family="Courier,monospace" font-size="10.00">##copy 5 2 any&#45;rep</text>
<text text-anchor="start" x="51.5" y="-415" font-family="Courier,monospace" font-size="10.00">##copy 2 1 any&#45;rep</text>
<text text-anchor="start" x="51.5" y="-403" font-family="Courier,monospace" font-size="10.00">##compare&#45;imm&#45;branch 3 f cc/=</text>
</g>
<!-- 0&#45;&gt;1 -->
<g id="edge1" class="edge"><title>0&#45;&gt;1</title>
<path fill="none" stroke="black" d="M139,-523.944C139,-516.406 139,-507.595 139,-498.598"/>
<polygon fill="black" stroke="black" points="142.5,-498.42 139,-488.42 135.5,-498.42 142.5,-498.42"/>
</g>
<!-- 2 -->
<g id="node3" class="node"><title>2</title>
<polygon fill="none" stroke="black" points="130,-360 4.31391e-14,-360 1.49325e-14,-292 130,-292 130,-360"/>
<text text-anchor="middle" x="65" y="-347" font-family="Courier,monospace" font-size="10.00">2</text>
<text text-anchor="start" x="7.5" y="-335" font-family="Courier,monospace" font-size="10.00">##inc&#45;d 1</text>
<text text-anchor="start" x="7.5" y="-323" font-family="Courier,monospace" font-size="10.00">##load&#45;integer 4 10</text>
<text text-anchor="start" x="7.5" y="-311" font-family="Courier,monospace" font-size="10.00">##copy 5 4 any&#45;rep</text>
<text text-anchor="start" x="7.5" y="-299" font-family="Courier,monospace" font-size="10.00">##branch</text>
</g>
<!-- 1&#45;&gt;2 -->
<g id="edge2" class="edge"><title>1&#45;&gt;2</title>
<path fill="none" stroke="black" d="M109.541,-395.82C103.858,-386.912 97.9267,-377.615 92.3155,-368.819"/>
<polygon fill="black" stroke="black" points="95.1608,-366.771 86.8318,-360.223 89.2593,-370.536 95.1608,-366.771"/>
</g>
<!-- 3 -->
<g id="node4" class="node"><title>3</title>
<polygon fill="none" stroke="black" points="278,-360 148,-360 148,-292 278,-292 278,-360"/>
<text text-anchor="middle" x="213" y="-347" font-family="Courier,monospace" font-size="10.00">3</text>
<text text-anchor="start" x="155.5" y="-335" font-family="Courier,monospace" font-size="10.00">##inc&#45;d 1</text>
<text text-anchor="start" x="155.5" y="-323" font-family="Courier,monospace" font-size="10.00">##load&#45;integer 7 20</text>
<text text-anchor="start" x="155.5" y="-311" font-family="Courier,monospace" font-size="10.00">##copy 5 7 any&#45;rep</text>
<text text-anchor="start" x="155.5" y="-299" font-family="Courier,monospace" font-size="10.00">##branch</text>
</g>
<!-- 1&#45;&gt;3 -->
<g id="edge3" class="edge"><title>1&#45;&gt;3</title>
<path fill="none" stroke="black" d="M168.459,-395.82C174.142,-386.912 180.073,-377.615 185.685,-368.819"/>
<polygon fill="black" stroke="black" points="188.741,-370.536 191.168,-360.223 182.839,-366.771 188.741,-370.536"/>
</g>
<!-- 4 -->
<g id="node5" class="node"><title>4</title>
<polygon fill="none" stroke="black" points="207,-256 71,-256 71,-80 207,-80 207,-256"/>
<text text-anchor="middle" x="139" y="-243" font-family="Courier,monospace" font-size="10.00">4</text>
<text text-anchor="start" x="78.5" y="-231" font-family="Courier,monospace" font-size="10.00">##inc&#45;d 3</text>
<text text-anchor="start" x="78.5" y="-219" font-family="Courier,monospace" font-size="10.00">##load&#45;integer 10 10</text>
<text text-anchor="start" x="78.5" y="-207" font-family="Courier,monospace" font-size="10.00">##load&#45;integer 11 20</text>
<text text-anchor="start" x="78.5" y="-195" font-family="Courier,monospace" font-size="10.00">##load&#45;integer 12 30</text>
<text text-anchor="start" x="78.5" y="-183" font-family="Courier,monospace" font-size="10.00">##copy 13 11 any&#45;rep</text>
<text text-anchor="start" x="78.5" y="-171" font-family="Courier,monospace" font-size="10.00">##copy 14 10 any&#45;rep</text>
<text text-anchor="start" x="78.5" y="-159" font-family="Courier,monospace" font-size="10.00">##copy 15 12 any&#45;rep</text>
<text text-anchor="start" x="78.5" y="-147" font-family="Courier,monospace" font-size="10.00">##replace 5 D 3</text>
<text text-anchor="start" x="78.5" y="-135" font-family="Courier,monospace" font-size="10.00">##replace 2 D 4</text>
<text text-anchor="start" x="78.5" y="-123" font-family="Courier,monospace" font-size="10.00">##replace 13 D 1</text>
<text text-anchor="start" x="78.5" y="-111" font-family="Courier,monospace" font-size="10.00">##replace 14 D 2</text>
<text text-anchor="start" x="78.5" y="-99" font-family="Courier,monospace" font-size="10.00">##replace 15 D 0</text>
<text text-anchor="start" x="78.5" y="-87" font-family="Courier,monospace" font-size="10.00">##branch</text>
</g>
<!-- 2&#45;&gt;4 -->
<g id="edge4" class="edge"><title>2&#45;&gt;4</title>
<path fill="none" stroke="black" d="M81.0569,-291.716C84.858,-283.6 89.0989,-274.546 93.5099,-265.128"/>
<polygon fill="black" stroke="black" points="96.7105,-266.546 97.7823,-256.005 90.3713,-263.577 96.7105,-266.546"/>
</g>
<!-- 3&#45;&gt;4 -->
<g id="edge5" class="edge"><title>3&#45;&gt;4</title>
<path fill="none" stroke="black" d="M196.943,-291.716C193.142,-283.6 188.901,-274.546 184.49,-265.128"/>
<polygon fill="black" stroke="black" points="187.629,-263.577 180.218,-256.005 181.29,-266.546 187.629,-263.577"/>
</g>
<!-- 5 -->
<g id="node6" class="node"><title>5</title>
<polygon fill="none" stroke="black" points="177,-44 101,-44 101,-1.42109e-14 177,-0 177,-44"/>
<text text-anchor="middle" x="139" y="-31" font-family="Courier,monospace" font-size="10.00">5</text>
<text text-anchor="start" x="108.5" y="-19" font-family="Courier,monospace" font-size="10.00">##epilogue</text>
<text text-anchor="start" x="108.5" y="-7" font-family="Courier,monospace" font-size="10.00">##return</text>
</g>
<!-- 4&#45;&gt;5 -->
<g id="edge6" class="edge"><title>4&#45;&gt;5</title>
<path fill="none" stroke="black" d="M139,-79.7031C139,-70.6201 139,-61.868 139,-54.0438"/>
<polygon fill="black" stroke="black" points="142.5,-54.0058 139,-44.0059 135.5,-54.0059 142.5,-54.0058"/>
</g>
</g>
</svg>
