<?xml version="1.0" encoding="UTF-8" standalone="no"?>
<!DOCTYPE svg PUBLIC "-//W3C//DTD SVG 1.1//EN"
 "http://www.w3.org/Graphics/SVG/1.1/DTD/svg11.dtd">
<!-- Generated by graphviz version 2.26.3 (20100126.1600)
 -->
<!-- Title: _anonymous_630 Pages: 1 -->
<svg width="238pt" height="492pt"
 viewBox="0.00 0.00 238.00 492.00" xmlns="http://www.w3.org/2000/svg" xmlns:xlink="http://www.w3.org/1999/xlink">
<g id="graph1" class="graph" transform="scale(1 1) rotate(0) translate(4 488)">
<title>_anonymous_630</title>
<polygon fill="white" stroke="white" points="-4,5 -4,-488 235,-488 235,5 -4,5"/>
<!-- 0 -->
<g id="node1" class="node"><title>0</title>
<polygon fill="grey" stroke="grey" points="139,-484 63,-484 63,-440 139,-440 139,-484"/>
<text text-anchor="middle" x="101" y="-471" font-family="Courier,monospace" font-size="10.00">0</text>
<text text-anchor="start" x="70.5" y="-459" font-family="Courier,monospace" font-size="10.00">##prologue</text>
<text text-anchor="start" x="70.5" y="-447" font-family="Courier,monospace" font-size="10.00">##branch</text>
</g>
<!-- 1 -->
<g id="node2" class="node"><title>1</title>
<polygon fill="none" stroke="black" points="199,-404 3,-404 3,-348 199,-348 199,-404"/>
<text text-anchor="middle" x="101" y="-391" font-family="Courier,monospace" font-size="10.00">1</text>
<text text-anchor="start" x="10.5" y="-379" font-family="Courier,monospace" font-size="10.00">##peek 17 D 0</text>
<text text-anchor="start" x="10.5" y="-367" font-family="Courier,monospace" font-size="10.00">##load&#45;integer 18 10</text>
<text text-anchor="start" x="10.5" y="-355" font-family="Courier,monospace" font-size="10.00">##compare&#45;imm&#45;branch 17 f cc/=</text>
</g>
<!-- 0&#45;&gt;1 -->
<g id="edge1" class="edge"><title>0&#45;&gt;1</title>
<path fill="none" stroke="black" d="M101,-439.853C101,-432.055 101,-423.05 101,-414.306"/>
<polygon fill="black" stroke="black" points="104.5,-414.251 101,-404.251 97.5001,-414.251 104.5,-414.251"/>
</g>
<!-- 2 -->
<g id="node3" class="node"><title>2</title>
<polygon fill="none" stroke="black" points="76,-306 6,-306 6,-262 76,-262 76,-306"/>
<text text-anchor="middle" x="41" y="-293" font-family="Courier,monospace" font-size="10.00">2</text>
<text text-anchor="start" x="13.5" y="-281" font-family="Courier,monospace" font-size="10.00">##inc&#45;d 1</text>
<text text-anchor="start" x="13.5" y="-269" font-family="Courier,monospace" font-size="10.00">##branch</text>
</g>
<!-- 1&#45;&gt;2 -->
<g id="edge2" class="edge"><title>1&#45;&gt;2</title>
<path fill="none" stroke="black" d="M82.672,-347.897C75.8333,-337.411 68.0359,-325.455 61.0502,-314.744"/>
<polygon fill="black" stroke="black" points="63.8064,-312.563 55.412,-306.098 57.9431,-316.387 63.8064,-312.563"/>
</g>
<!-- 3 -->
<g id="node4" class="node"><title>3</title>
<polygon fill="none" stroke="black" points="230,-312 94,-312 94,-256 230,-256 230,-312"/>
<text text-anchor="middle" x="162" y="-299" font-family="Courier,monospace" font-size="10.00">3</text>
<text text-anchor="start" x="101.5" y="-287" font-family="Courier,monospace" font-size="10.00">##inc&#45;d 1</text>
<text text-anchor="start" x="101.5" y="-275" font-family="Courier,monospace" font-size="10.00">##load&#45;integer 24 20</text>
<text text-anchor="start" x="101.5" y="-263" font-family="Courier,monospace" font-size="10.00">##branch</text>
</g>
<!-- 1&#45;&gt;3 -->
<g id="edge3" class="edge"><title>1&#45;&gt;3</title>
<path fill="none" stroke="black" d="M119.633,-347.897C125.315,-339.327 131.648,-329.776 137.65,-320.725"/>
<polygon fill="black" stroke="black" points="140.661,-322.516 143.27,-312.248 134.827,-318.648 140.661,-322.516"/>
</g>
<!-- 4 -->
<g id="node5" class="node"><title>4</title>
<polygon fill="none" stroke="black" points="202,-220 5.59552e-14,-220 1.35308e-14,-80 202,-80 202,-220"/>
<text text-anchor="middle" x="101" y="-207" font-family="Courier,monospace" font-size="10.00">4</text>
<text text-anchor="start" x="7.5" y="-195" font-family="Courier,monospace" font-size="10.00">##phi 26 H{ { 2 18 } { 3 24 } }</text>
<text text-anchor="start" x="7.5" y="-183" font-family="Courier,monospace" font-size="10.00">##inc&#45;d 3</text>
<text text-anchor="start" x="7.5" y="-171" font-family="Courier,monospace" font-size="10.00">##load&#45;integer 28 20</text>
<text text-anchor="start" x="7.5" y="-159" font-family="Courier,monospace" font-size="10.00">##load&#45;integer 29 30</text>
<text text-anchor="start" x="7.5" y="-147" font-family="Courier,monospace" font-size="10.00">##replace 26 D 3</text>
<text text-anchor="start" x="7.5" y="-135" font-family="Courier,monospace" font-size="10.00">##replace&#45;imm 10 D 4</text>
<text text-anchor="start" x="7.5" y="-123" font-family="Courier,monospace" font-size="10.00">##replace&#45;imm 20 D 1</text>
<text text-anchor="start" x="7.5" y="-111" font-family="Courier,monospace" font-size="10.00">##replace&#45;imm 10 D 2</text>
<text text-anchor="start" x="7.5" y="-99" font-family="Courier,monospace" font-size="10.00">##replace&#45;imm 30 D 0</text>
<text text-anchor="start" x="7.5" y="-87" font-family="Courier,monospace" font-size="10.00">##branch</text>
</g>
<!-- 2&#45;&gt;4 -->
<g id="edge4" class="edge"><title>2&#45;&gt;4</title>
<path fill="none" stroke="black" d="M50.9078,-261.873C55.0455,-252.632 60.1269,-241.283 65.4498,-229.395"/>
<polygon fill="black" stroke="black" points="68.6635,-230.783 69.5558,-220.225 62.2747,-227.922 68.6635,-230.783"/>
</g>
<!-- 3&#45;&gt;4 -->
<g id="edge5" class="edge"><title>3&#45;&gt;4</title>
<path fill="none" stroke="black" d="M149.212,-255.909C145.559,-247.883 141.386,-238.718 137.059,-229.213"/>
<polygon fill="black" stroke="black" points="140.204,-227.673 132.876,-220.022 133.833,-230.573 140.204,-227.673"/>
</g>
<!-- 5 -->
<g id="node6" class="node"><title>5</title>
<polygon fill="grey" stroke="grey" points="139,-44 63,-44 63,-1.42109e-14 139,-0 139,-44"/>
<text text-anchor="middle" x="101" y="-31" font-family="Courier,monospace" font-size="10.00">5</text>
<text text-anchor="start" x="70.5" y="-19" font-family="Courier,monospace" font-size="10.00">##epilogue</text>
<text text-anchor="start" x="70.5" y="-7" font-family="Courier,monospace" font-size="10.00">##return</text>
</g>
<!-- 4&#45;&gt;5 -->
<g id="edge6" class="edge"><title>4&#45;&gt;5</title>
<path fill="none" stroke="black" d="M101,-79.6344C101,-70.768 101,-62.0663 101,-54.2189"/>
<polygon fill="black" stroke="black" points="104.5,-54.1121 101,-44.1122 97.5001,-54.1122 104.5,-54.1121"/>
</g>
</g>
</svg>
