<?xml version="1.0" encoding="UTF-8" standalone="no"?>
<!DOCTYPE svg PUBLIC "-//W3C//DTD SVG 1.1//EN"
 "http://www.w3.org/Graphics/SVG/1.1/DTD/svg11.dtd">
<!-- Generated by graphviz version 2.26.3 (20100126.1600)
 -->
<!-- Title: _anonymous_26 Pages: 1 -->
<svg width="298pt" height="504pt"
 viewBox="0.00 0.00 298.00 504.00" xmlns="http://www.w3.org/2000/svg" xmlns:xlink="http://www.w3.org/1999/xlink">
<g id="graph1" class="graph" transform="scale(1 1) rotate(0) translate(4 500)">
<title>_anonymous_26</title>
<polygon fill="white" stroke="white" points="-4,5 -4,-500 295,-500 295,5 -4,5"/>
<!-- 0 -->
<g id="node1" class="node"><title>0</title>
<polygon fill="none" stroke="black" points="183,-496 107,-496 107,-452 183,-452 183,-496"/>
<text text-anchor="middle" x="145" y="-483" font-family="Courier,monospace" font-size="10.00">0</text>
<text text-anchor="start" x="114.5" y="-471" font-family="Courier,monospace" font-size="10.00">##prologue</text>
<text text-anchor="start" x="114.5" y="-459" font-family="Courier,monospace" font-size="10.00">##branch</text>
</g>
<!-- 1 -->
<g id="node2" class="node"><title>1</title>
<polygon fill="none" stroke="black" points="243,-416 47,-416 47,-360 243,-360 243,-416"/>
<text text-anchor="middle" x="145" y="-403" font-family="Courier,monospace" font-size="10.00">1</text>
<text text-anchor="start" x="54.5" y="-391" font-family="Courier,monospace" font-size="10.00">##peek 17 D 0</text>
<text text-anchor="start" x="54.5" y="-379" font-family="Courier,monospace" font-size="10.00">##load&#45;integer 18 10</text>
<text text-anchor="start" x="54.5" y="-367" font-family="Courier,monospace" font-size="10.00">##compare&#45;imm&#45;branch 17 f cc/=</text>
</g>
<!-- 0&#45;&gt;1 -->
<g id="edge1" class="edge"><title>0&#45;&gt;1</title>
<path fill="none" stroke="black" d="M145,-451.853C145,-444.055 145,-435.05 145,-426.306"/>
<polygon fill="black" stroke="black" points="148.5,-426.251 145,-416.251 141.5,-426.251 148.5,-426.251"/>
</g>
<!-- 2 -->
<g id="node3" class="node"><title>2</title>
<polygon fill="none" stroke="black" points="136,-324 2.76029e-14,-324 1.34961e-14,-268 136,-268 136,-324"/>
<text text-anchor="middle" x="68" y="-311" font-family="Courier,monospace" font-size="10.00">2</text>
<text text-anchor="start" x="7.5" y="-299" font-family="Courier,monospace" font-size="10.00">##inc&#45;d 1</text>
<text text-anchor="start" x="7.5" y="-287" font-family="Courier,monospace" font-size="10.00">##load&#45;integer 29 10</text>
<text text-anchor="start" x="7.5" y="-275" font-family="Courier,monospace" font-size="10.00">##branch</text>
</g>
<!-- 1&#45;&gt;2 -->
<g id="edge2" class="edge"><title>1&#45;&gt;2</title>
<path fill="none" stroke="black" d="M121.479,-359.897C114.159,-351.151 105.983,-341.382 98.2688,-332.165"/>
<polygon fill="black" stroke="black" points="100.744,-329.67 91.6422,-324.248 95.3765,-334.163 100.744,-329.67"/>
</g>
<!-- 3 -->
<g id="node4" class="node"><title>3</title>
<polygon fill="none" stroke="black" points="290,-324 154,-324 154,-268 290,-268 290,-324"/>
<text text-anchor="middle" x="222" y="-311" font-family="Courier,monospace" font-size="10.00">3</text>
<text text-anchor="start" x="161.5" y="-299" font-family="Courier,monospace" font-size="10.00">##inc&#45;d 1</text>
<text text-anchor="start" x="161.5" y="-287" font-family="Courier,monospace" font-size="10.00">##load&#45;integer 31 20</text>
<text text-anchor="start" x="161.5" y="-275" font-family="Courier,monospace" font-size="10.00">##branch</text>
</g>
<!-- 1&#45;&gt;3 -->
<g id="edge3" class="edge"><title>1&#45;&gt;3</title>
<path fill="none" stroke="black" d="M168.521,-359.897C175.841,-351.151 184.017,-341.382 191.731,-332.165"/>
<polygon fill="black" stroke="black" points="194.624,-334.163 198.358,-324.248 189.256,-329.67 194.624,-334.163"/>
</g>
<!-- 4 -->
<g id="node5" class="node"><title>4</title>
<polygon fill="none" stroke="black" points="246,-232 44,-232 44,-80 246,-80 246,-232"/>
<text text-anchor="middle" x="145" y="-219" font-family="Courier,monospace" font-size="10.00">4</text>
<text text-anchor="start" x="51.5" y="-207" font-family="Courier,monospace" font-size="10.00">##phi 22 H{ { 2 29 } { 3 31 } }</text>
<text text-anchor="start" x="51.5" y="-195" font-family="Courier,monospace" font-size="10.00">##inc&#45;d 3</text>
<text text-anchor="start" x="51.5" y="-183" font-family="Courier,monospace" font-size="10.00">##load&#45;integer 23 10</text>
<text text-anchor="start" x="51.5" y="-171" font-family="Courier,monospace" font-size="10.00">##load&#45;integer 24 20</text>
<text text-anchor="start" x="51.5" y="-159" font-family="Courier,monospace" font-size="10.00">##load&#45;integer 25 30</text>
<text text-anchor="start" x="51.5" y="-147" font-family="Courier,monospace" font-size="10.00">##replace 22 D 3</text>
<text text-anchor="start" x="51.5" y="-135" font-family="Courier,monospace" font-size="10.00">##replace 18 D 4</text>
<text text-anchor="start" x="51.5" y="-123" font-family="Courier,monospace" font-size="10.00">##replace&#45;imm 20 D 1</text>
<text text-anchor="start" x="51.5" y="-111" font-family="Courier,monospace" font-size="10.00">##replace&#45;imm 10 D 2</text>
<text text-anchor="start" x="51.5" y="-99" font-family="Courier,monospace" font-size="10.00">##replace&#45;imm 30 D 0</text>
<text text-anchor="start" x="51.5" y="-87" font-family="Courier,monospace" font-size="10.00">##branch</text>
</g>
<!-- 2&#45;&gt;4 -->
<g id="edge4" class="edge"><title>2&#45;&gt;4</title>
<path fill="none" stroke="black" d="M83.5821,-267.669C87.9896,-259.655 93.0272,-250.496 98.2788,-240.948"/>
<polygon fill="black" stroke="black" points="101.397,-242.54 103.15,-232.091 95.2639,-239.166 101.397,-242.54"/>
</g>
<!-- 3&#45;&gt;4 -->
<g id="edge5" class="edge"><title>3&#45;&gt;4</title>
<path fill="none" stroke="black" d="M206.418,-267.669C202.01,-259.655 196.973,-250.496 191.721,-240.948"/>
<polygon fill="black" stroke="black" points="194.736,-239.166 186.85,-232.091 188.603,-242.54 194.736,-239.166"/>
</g>
<!-- 5 -->
<g id="node6" class="node"><title>5</title>
<polygon fill="none" stroke="black" points="183,-44 107,-44 107,-1.42109e-14 183,-0 183,-44"/>
<text text-anchor="middle" x="145" y="-31" font-family="Courier,monospace" font-size="10.00">5</text>
<text text-anchor="start" x="114.5" y="-19" font-family="Courier,monospace" font-size="10.00">##epilogue</text>
<text text-anchor="start" x="114.5" y="-7" font-family="Courier,monospace" font-size="10.00">##return</text>
</g>
<!-- 4&#45;&gt;5 -->
<g id="edge6" class="edge"><title>4&#45;&gt;5</title>
<path fill="none" stroke="black" d="M145,-79.995C145,-70.9794 145,-62.1853 145,-54.2818"/>
<polygon fill="black" stroke="black" points="148.5,-54.1191 145,-44.1192 141.5,-54.1192 148.5,-54.1191"/>
</g>
</g>
</svg>
