<?xml version="1.0" encoding="UTF-8" standalone="no"?>
<!DOCTYPE svg PUBLIC "-//W3C//DTD SVG 1.1//EN"
 "http://www.w3.org/Graphics/SVG/1.1/DTD/svg11.dtd">
<!-- Generated by graphviz version 2.26.3 (20100126.1600)
 -->
<!-- Title: _anonymous_611 Pages: 1 -->
<svg width="298pt" height="456pt"
 viewBox="0.00 0.00 298.00 456.00" xmlns="http://www.w3.org/2000/svg" xmlns:xlink="http://www.w3.org/1999/xlink">
<g id="graph1" class="graph" transform="scale(1 1) rotate(0) translate(4 452)">
<title>_anonymous_611</title>
<polygon fill="white" stroke="white" points="-4,5 -4,-452 295,-452 295,5 -4,5"/>
<!-- 0 -->
<g id="node1" class="node"><title>0</title>
<polygon fill="grey" stroke="grey" points="183,-448 107,-448 107,-404 183,-404 183,-448"/>
<text text-anchor="middle" x="145" y="-435" font-family="Courier,monospace" font-size="10.00">0</text>
<text text-anchor="start" x="114.5" y="-423" font-family="Courier,monospace" font-size="10.00">##prologue</text>
<text text-anchor="start" x="114.5" y="-411" font-family="Courier,monospace" font-size="10.00">##branch</text>
</g>
<!-- 1 -->
<g id="node2" class="node"><title>1</title>
<polygon fill="none" stroke="black" points="243,-368 47,-368 47,-312 243,-312 243,-368"/>
<text text-anchor="middle" x="145" y="-355" font-family="Courier,monospace" font-size="10.00">1</text>
<text text-anchor="start" x="54.5" y="-343" font-family="Courier,monospace" font-size="10.00">##inc&#45;d &#45;1</text>
<text text-anchor="start" x="54.5" y="-331" font-family="Courier,monospace" font-size="10.00">##peek 14 D &#45;1</text>
<text text-anchor="start" x="54.5" y="-319" font-family="Courier,monospace" font-size="10.00">##compare&#45;imm&#45;branch 14 f cc/=</text>
</g>
<!-- 0&#45;&gt;1 -->
<g id="edge1" class="edge"><title>0&#45;&gt;1</title>
<path fill="none" stroke="black" d="M145,-403.853C145,-396.055 145,-387.05 145,-378.306"/>
<polygon fill="black" stroke="black" points="148.5,-378.251 145,-368.251 141.5,-378.251 148.5,-378.251"/>
</g>
<!-- 2 -->
<g id="node3" class="node"><title>2</title>
<polygon fill="none" stroke="black" points="136,-276 2.76029e-14,-276 1.34961e-14,-220 136,-220 136,-276"/>
<text text-anchor="middle" x="68" y="-263" font-family="Courier,monospace" font-size="10.00">2</text>
<text text-anchor="start" x="7.5" y="-251" font-family="Courier,monospace" font-size="10.00">##inc&#45;d 1</text>
<text text-anchor="start" x="7.5" y="-239" font-family="Courier,monospace" font-size="10.00">##load&#45;integer 25 10</text>
<text text-anchor="start" x="7.5" y="-227" font-family="Courier,monospace" font-size="10.00">##branch</text>
</g>
<!-- 1&#45;&gt;2 -->
<g id="edge2" class="edge"><title>1&#45;&gt;2</title>
<path fill="none" stroke="black" d="M121.479,-311.897C114.159,-303.151 105.983,-293.382 98.2688,-284.165"/>
<polygon fill="black" stroke="black" points="100.744,-281.67 91.6422,-276.248 95.3765,-286.163 100.744,-281.67"/>
</g>
<!-- 3 -->
<g id="node4" class="node"><title>3</title>
<polygon fill="none" stroke="black" points="290,-276 154,-276 154,-220 290,-220 290,-276"/>
<text text-anchor="middle" x="222" y="-263" font-family="Courier,monospace" font-size="10.00">3</text>
<text text-anchor="start" x="161.5" y="-251" font-family="Courier,monospace" font-size="10.00">##inc&#45;d 1</text>
<text text-anchor="start" x="161.5" y="-239" font-family="Courier,monospace" font-size="10.00">##load&#45;integer 16 20</text>
<text text-anchor="start" x="161.5" y="-227" font-family="Courier,monospace" font-size="10.00">##branch</text>
</g>
<!-- 1&#45;&gt;3 -->
<g id="edge3" class="edge"><title>1&#45;&gt;3</title>
<path fill="none" stroke="black" d="M168.521,-311.897C175.841,-303.151 184.017,-293.382 191.731,-284.165"/>
<polygon fill="black" stroke="black" points="194.624,-286.163 198.358,-276.248 189.256,-281.67 194.624,-286.163"/>
</g>
<!-- 4 -->
<g id="node5" class="node"><title>4</title>
<polygon fill="none" stroke="black" points="246,-184 44,-184 44,-80 246,-80 246,-184"/>
<text text-anchor="middle" x="145" y="-171" font-family="Courier,monospace" font-size="10.00">4</text>
<text text-anchor="start" x="51.5" y="-159" font-family="Courier,monospace" font-size="10.00">##phi 18 H{ { 2 25 } { 3 16 } }</text>
<text text-anchor="start" x="51.5" y="-147" font-family="Courier,monospace" font-size="10.00">##inc&#45;d 3</text>
<text text-anchor="start" x="51.5" y="-135" font-family="Courier,monospace" font-size="10.00">##replace&#45;imm 10 D 2</text>
<text text-anchor="start" x="51.5" y="-123" font-family="Courier,monospace" font-size="10.00">##replace 18 D 3</text>
<text text-anchor="start" x="51.5" y="-111" font-family="Courier,monospace" font-size="10.00">##replace&#45;imm 30 D 0</text>
<text text-anchor="start" x="51.5" y="-99" font-family="Courier,monospace" font-size="10.00">##replace&#45;imm 20 D 1</text>
<text text-anchor="start" x="51.5" y="-87" font-family="Courier,monospace" font-size="10.00">##branch</text>
</g>
<!-- 2&#45;&gt;4 -->
<g id="edge4" class="edge"><title>2&#45;&gt;4</title>
<path fill="none" stroke="black" d="M86.6396,-219.92C92.1475,-211.622 98.4022,-202.199 104.721,-192.68"/>
<polygon fill="black" stroke="black" points="107.659,-194.583 110.273,-184.316 101.827,-190.712 107.659,-194.583"/>
</g>
<!-- 3&#45;&gt;4 -->
<g id="edge5" class="edge"><title>3&#45;&gt;4</title>
<path fill="none" stroke="black" d="M203.36,-219.92C197.853,-211.622 191.598,-202.199 185.279,-192.68"/>
<polygon fill="black" stroke="black" points="188.173,-190.712 179.727,-184.316 182.341,-194.583 188.173,-190.712"/>
</g>
<!-- 5 -->
<g id="node6" class="node"><title>5</title>
<polygon fill="grey" stroke="grey" points="183,-44 107,-44 107,-1.42109e-14 183,-0 183,-44"/>
<text text-anchor="middle" x="145" y="-31" font-family="Courier,monospace" font-size="10.00">5</text>
<text text-anchor="start" x="114.5" y="-19" font-family="Courier,monospace" font-size="10.00">##epilogue</text>
<text text-anchor="start" x="114.5" y="-7" font-family="Courier,monospace" font-size="10.00">##return</text>
</g>
<!-- 4&#45;&gt;5 -->
<g id="edge6" class="edge"><title>4&#45;&gt;5</title>
<path fill="none" stroke="black" d="M145,-79.8992C145,-71.1731 145,-62.3494 145,-54.31"/>
<polygon fill="black" stroke="black" points="148.5,-54.2674 145,-44.2674 141.5,-54.2674 148.5,-54.2674"/>
</g>
</g>
</svg>
