<?xml version="1.0" encoding="UTF-8" standalone="no"?>
<!DOCTYPE svg PUBLIC "-//W3C//DTD SVG 1.1//EN"
 "http://www.w3.org/Graphics/SVG/1.1/DTD/svg11.dtd">
<!-- Generated by graphviz version 2.26.3 (20100126.1600)
 -->
<!-- Title: _anonymous_612 Pages: 1 -->
<svg width="310pt" height="444pt"
 viewBox="0.00 0.00 310.00 444.00" xmlns="http://www.w3.org/2000/svg" xmlns:xlink="http://www.w3.org/1999/xlink">
<g id="graph1" class="graph" transform="scale(1 1) rotate(0) translate(4 440)">
<title>_anonymous_612</title>
<polygon fill="white" stroke="white" points="-4,5 -4,-440 307,-440 307,5 -4,5"/>
<!-- 0 -->
<g id="node1" class="node"><title>0</title>
<polygon fill="grey" stroke="grey" points="189,-436 113,-436 113,-392 189,-392 189,-436"/>
<text text-anchor="middle" x="151" y="-423" font-family="Courier,monospace" font-size="10.00">0</text>
<text text-anchor="start" x="120.5" y="-411" font-family="Courier,monospace" font-size="10.00">##prologue</text>
<text text-anchor="start" x="120.5" y="-399" font-family="Courier,monospace" font-size="10.00">##branch</text>
</g>
<!-- 1 -->
<g id="node2" class="node"><title>1</title>
<polygon fill="none" stroke="black" points="252,-356 50,-356 50,-300 252,-300 252,-356"/>
<text text-anchor="middle" x="151" y="-343" font-family="Courier,monospace" font-size="10.00">1</text>
<text text-anchor="start" x="57.5" y="-331" font-family="Courier,monospace" font-size="10.00">##inc&#45;d &#45;1</text>
<text text-anchor="start" x="57.5" y="-319" font-family="Courier,monospace" font-size="10.00">##peek EAX D &#45;1</text>
<text text-anchor="start" x="57.5" y="-307" font-family="Courier,monospace" font-size="10.00">##compare&#45;imm&#45;branch EAX f cc/=</text>
</g>
<!-- 0&#45;&gt;1 -->
<g id="edge1" class="edge"><title>0&#45;&gt;1</title>
<path fill="none" stroke="black" d="M151,-391.853C151,-384.055 151,-375.05 151,-366.306"/>
<polygon fill="black" stroke="black" points="154.5,-366.251 151,-356.251 147.5,-366.251 154.5,-366.251"/>
</g>
<!-- 2 -->
<g id="node3" class="node"><title>2</title>
<polygon fill="none" stroke="black" points="142,-264 4.12795e-14,-264 1.3059e-14,-208 142,-208 142,-264"/>
<text text-anchor="middle" x="71" y="-251" font-family="Courier,monospace" font-size="10.00">2</text>
<text text-anchor="start" x="7.5" y="-239" font-family="Courier,monospace" font-size="10.00">##inc&#45;d 1</text>
<text text-anchor="start" x="7.5" y="-227" font-family="Courier,monospace" font-size="10.00">##load&#45;tagged EAX 160</text>
<text text-anchor="start" x="7.5" y="-215" font-family="Courier,monospace" font-size="10.00">##branch</text>
</g>
<!-- 1&#45;&gt;2 -->
<g id="edge2" class="edge"><title>1&#45;&gt;2</title>
<path fill="none" stroke="black" d="M126.563,-299.897C118.88,-291.062 110.291,-281.184 102.205,-271.886"/>
<polygon fill="black" stroke="black" points="104.766,-269.497 95.5634,-264.248 99.484,-274.091 104.766,-269.497"/>
</g>
<!-- 3 -->
<g id="node4" class="node"><title>3</title>
<polygon fill="none" stroke="black" points="302,-264 160,-264 160,-208 302,-208 302,-264"/>
<text text-anchor="middle" x="231" y="-251" font-family="Courier,monospace" font-size="10.00">3</text>
<text text-anchor="start" x="167.5" y="-239" font-family="Courier,monospace" font-size="10.00">##inc&#45;d 1</text>
<text text-anchor="start" x="167.5" y="-227" font-family="Courier,monospace" font-size="10.00">##load&#45;tagged EAX 320</text>
<text text-anchor="start" x="167.5" y="-215" font-family="Courier,monospace" font-size="10.00">##branch</text>
</g>
<!-- 1&#45;&gt;3 -->
<g id="edge3" class="edge"><title>1&#45;&gt;3</title>
<path fill="none" stroke="black" d="M175.437,-299.897C183.12,-291.062 191.709,-281.184 199.795,-271.886"/>
<polygon fill="black" stroke="black" points="202.516,-274.091 206.437,-264.248 197.234,-269.497 202.516,-274.091"/>
</g>
<!-- 4 -->
<g id="node5" class="node"><title>4</title>
<polygon fill="none" stroke="black" points="219,-172 83,-172 83,-80 219,-80 219,-172"/>
<text text-anchor="middle" x="151" y="-159" font-family="Courier,monospace" font-size="10.00">4</text>
<text text-anchor="start" x="90.5" y="-147" font-family="Courier,monospace" font-size="10.00">##inc&#45;d 3</text>
<text text-anchor="start" x="90.5" y="-135" font-family="Courier,monospace" font-size="10.00">##replace&#45;imm 10 D 2</text>
<text text-anchor="start" x="90.5" y="-123" font-family="Courier,monospace" font-size="10.00">##replace EAX D 3</text>
<text text-anchor="start" x="90.5" y="-111" font-family="Courier,monospace" font-size="10.00">##replace&#45;imm 30 D 0</text>
<text text-anchor="start" x="90.5" y="-99" font-family="Courier,monospace" font-size="10.00">##replace&#45;imm 20 D 1</text>
<text text-anchor="start" x="90.5" y="-87" font-family="Courier,monospace" font-size="10.00">##branch</text>
</g>
<!-- 2&#45;&gt;4 -->
<g id="edge4" class="edge"><title>2&#45;&gt;4</title>
<path fill="none" stroke="black" d="M91.3944,-207.958C97.4812,-199.588 104.373,-190.113 111.254,-180.651"/>
<polygon fill="black" stroke="black" points="114.227,-182.513 117.278,-172.367 108.566,-178.396 114.227,-182.513"/>
</g>
<!-- 3&#45;&gt;4 -->
<g id="edge5" class="edge"><title>3&#45;&gt;4</title>
<path fill="none" stroke="black" d="M210.606,-207.958C204.519,-199.588 197.627,-190.113 190.746,-180.651"/>
<polygon fill="black" stroke="black" points="193.434,-178.396 184.722,-172.367 187.773,-182.513 193.434,-178.396"/>
</g>
<!-- 5 -->
<g id="node6" class="node"><title>5</title>
<polygon fill="grey" stroke="grey" points="189,-44 113,-44 113,-1.42109e-14 189,-0 189,-44"/>
<text text-anchor="middle" x="151" y="-31" font-family="Courier,monospace" font-size="10.00">5</text>
<text text-anchor="start" x="120.5" y="-19" font-family="Courier,monospace" font-size="10.00">##epilogue</text>
<text text-anchor="start" x="120.5" y="-7" font-family="Courier,monospace" font-size="10.00">##return</text>
</g>
<!-- 4&#45;&gt;5 -->
<g id="edge6" class="edge"><title>4&#45;&gt;5</title>
<path fill="none" stroke="black" d="M151,-79.7784C151,-71.1782 151,-62.3644 151,-54.2939"/>
<polygon fill="black" stroke="black" points="154.5,-54.193 151,-44.193 147.5,-54.193 154.5,-54.193"/>
</g>
</g>
</svg>
