<?xml version="1.0" encoding="UTF-8" standalone="no"?>
<!DOCTYPE svg PUBLIC "-//W3C//DTD SVG 1.1//EN"
 "http://www.w3.org/Graphics/SVG/1.1/DTD/svg11.dtd">
<!-- Generated by graphviz version 2.26.3 (20100126.1600)
 -->
<!-- Title: _anonymous_596 Pages: 1 -->
<svg width="286pt" height="820pt"
 viewBox="0.00 0.00 286.00 820.00" xmlns="http://www.w3.org/2000/svg" xmlns:xlink="http://www.w3.org/1999/xlink">
<g id="graph1" class="graph" transform="scale(1 1) rotate(0) translate(4 816)">
<title>_anonymous_596</title>
<polygon fill="white" stroke="white" points="-4,5 -4,-816 283,-816 283,5 -4,5"/>
<!-- 0 -->
<g id="node1" class="node"><title>0</title>
<polygon fill="grey" stroke="grey" points="176,-812 100,-812 100,-768 176,-768 176,-812"/>
<text text-anchor="middle" x="138" y="-799" font-family="Courier,monospace" font-size="10.00">0</text>
<text text-anchor="start" x="107.5" y="-787" font-family="Courier,monospace" font-size="10.00">##prologue</text>
<text text-anchor="start" x="107.5" y="-775" font-family="Courier,monospace" font-size="10.00">##branch</text>
</g>
<!-- 1 -->
<g id="node2" class="node"><title>1</title>
<polygon fill="none" stroke="black" points="182,-732 94,-732 94,-688 182,-688 182,-732"/>
<text text-anchor="middle" x="138" y="-719" font-family="Courier,monospace" font-size="10.00">1</text>
<text text-anchor="start" x="101.5" y="-707" font-family="Courier,monospace" font-size="10.00">##peek 1 D 0</text>
<text text-anchor="start" x="101.5" y="-695" font-family="Courier,monospace" font-size="10.00">##branch</text>
</g>
<!-- 0&#45;&gt;1 -->
<g id="edge1" class="edge"><title>0&#45;&gt;1</title>
<path fill="none" stroke="black" d="M138,-767.716C138,-759.827 138,-750.787 138,-742.238"/>
<polygon fill="black" stroke="black" points="141.5,-742.165 138,-732.165 134.5,-742.165 141.5,-742.165"/>
</g>
<!-- 2 -->
<g id="node3" class="node"><title>2</title>
<polygon fill="none" stroke="black" points="233,-652 43,-652 43,-596 233,-596 233,-652"/>
<text text-anchor="middle" x="138" y="-639" font-family="Courier,monospace" font-size="10.00">2</text>
<text text-anchor="start" x="50.5" y="-627" font-family="Courier,monospace" font-size="10.00">##copy 2 1 any&#45;rep</text>
<text text-anchor="start" x="50.5" y="-615" font-family="Courier,monospace" font-size="10.00">##inc&#45;d &#45;1</text>
<text text-anchor="start" x="50.5" y="-603" font-family="Courier,monospace" font-size="10.00">##compare&#45;imm&#45;branch 2 f cc/=</text>
</g>
<!-- 1&#45;&gt;2 -->
<g id="edge2" class="edge"><title>1&#45;&gt;2</title>
<path fill="none" stroke="black" d="M138,-687.853C138,-680.055 138,-671.05 138,-662.306"/>
<polygon fill="black" stroke="black" points="141.5,-662.251 138,-652.251 134.5,-662.251 141.5,-662.251"/>
</g>
<!-- 3 -->
<g id="node4" class="node"><title>3</title>
<polygon fill="none" stroke="black" points="113,-560 49,-560 49,-524 113,-524 113,-560"/>
<text text-anchor="middle" x="81" y="-545" font-family="Courier,monospace" font-size="10.00">3</text>
<text text-anchor="start" x="56.5" y="-533" font-family="Courier,monospace" font-size="10.00">##branch</text>
</g>
<!-- 2&#45;&gt;3 -->
<g id="edge3" class="edge"><title>2&#45;&gt;3</title>
<path fill="none" stroke="black" d="M118.384,-595.78C112.297,-587.024 105.61,-577.404 99.5955,-568.751"/>
<polygon fill="black" stroke="black" points="102.434,-566.702 93.8519,-560.489 96.6857,-570.697 102.434,-566.702"/>
</g>
<!-- 6 -->
<g id="node5" class="node"><title>6</title>
<polygon fill="none" stroke="black" points="228,-560 164,-560 164,-524 228,-524 228,-560"/>
<text text-anchor="middle" x="196" y="-545" font-family="Courier,monospace" font-size="10.00">6</text>
<text text-anchor="start" x="171.5" y="-533" font-family="Courier,monospace" font-size="10.00">##branch</text>
</g>
<!-- 2&#45;&gt;6 -->
<g id="edge4" class="edge"><title>2&#45;&gt;6</title>
<path fill="none" stroke="black" d="M157.96,-595.78C164.154,-587.024 170.958,-577.404 177.078,-568.751"/>
<polygon fill="black" stroke="black" points="180.005,-570.674 182.923,-560.489 174.291,-566.632 180.005,-570.674"/>
</g>
<!-- 4 -->
<g id="node6" class="node"><title>4</title>
<polygon fill="none" stroke="black" points="130,-488 4.31391e-14,-488 1.49325e-14,-420 130,-420 130,-488"/>
<text text-anchor="middle" x="65" y="-475" font-family="Courier,monospace" font-size="10.00">4</text>
<text text-anchor="start" x="7.5" y="-463" font-family="Courier,monospace" font-size="10.00">##load&#45;integer 3 10</text>
<text text-anchor="start" x="7.5" y="-451" font-family="Courier,monospace" font-size="10.00">##copy 1 3 any&#45;rep</text>
<text text-anchor="start" x="7.5" y="-439" font-family="Courier,monospace" font-size="10.00">##inc&#45;d 1</text>
<text text-anchor="start" x="7.5" y="-427" font-family="Courier,monospace" font-size="10.00">##branch</text>
</g>
<!-- 3&#45;&gt;4 -->
<g id="edge5" class="edge"><title>3&#45;&gt;4</title>
<path fill="none" stroke="black" d="M77.6848,-523.766C76.3281,-516.305 74.6939,-507.316 73.0565,-498.311"/>
<polygon fill="black" stroke="black" points="76.4536,-497.429 71.2211,-488.216 69.5665,-498.681 76.4536,-497.429"/>
</g>
<!-- 7 -->
<g id="node9" class="node"><title>7</title>
<polygon fill="none" stroke="black" points="278,-488 148,-488 148,-420 278,-420 278,-488"/>
<text text-anchor="middle" x="213" y="-475" font-family="Courier,monospace" font-size="10.00">7</text>
<text text-anchor="start" x="155.5" y="-463" font-family="Courier,monospace" font-size="10.00">##load&#45;integer 5 20</text>
<text text-anchor="start" x="155.5" y="-451" font-family="Courier,monospace" font-size="10.00">##copy 1 5 any&#45;rep</text>
<text text-anchor="start" x="155.5" y="-439" font-family="Courier,monospace" font-size="10.00">##inc&#45;d 1</text>
<text text-anchor="start" x="155.5" y="-427" font-family="Courier,monospace" font-size="10.00">##branch</text>
</g>
<!-- 6&#45;&gt;7 -->
<g id="edge8" class="edge"><title>6&#45;&gt;7</title>
<path fill="none" stroke="black" d="M199.522,-523.766C200.964,-516.305 202.7,-507.316 204.44,-498.311"/>
<polygon fill="black" stroke="black" points="207.93,-498.698 206.39,-488.216 201.057,-497.371 207.93,-498.698"/>
</g>
<!-- 5 -->
<g id="node7" class="node"><title>5</title>
<polygon fill="none" stroke="black" points="130,-384 66,-384 66,-348 130,-348 130,-384"/>
<text text-anchor="middle" x="98" y="-369" font-family="Courier,monospace" font-size="10.00">5</text>
<text text-anchor="start" x="73.5" y="-357" font-family="Courier,monospace" font-size="10.00">##branch</text>
</g>
<!-- 4&#45;&gt;5 -->
<g id="edge6" class="edge"><title>4&#45;&gt;5</title>
<path fill="none" stroke="black" d="M77.7587,-419.977C81.008,-411.312 84.4618,-402.102 87.579,-393.789"/>
<polygon fill="black" stroke="black" points="90.9439,-394.784 91.178,-384.192 84.3896,-392.326 90.9439,-394.784"/>
</g>
<!-- 9 -->
<g id="node8" class="node"><title>9</title>
<polygon fill="none" stroke="black" points="212,-312 82,-312 82,-196 212,-196 212,-312"/>
<text text-anchor="middle" x="147" y="-299" font-family="Courier,monospace" font-size="10.00">9</text>
<text text-anchor="start" x="89.5" y="-287" font-family="Courier,monospace" font-size="10.00">##load&#45;integer 7 10</text>
<text text-anchor="start" x="89.5" y="-275" font-family="Courier,monospace" font-size="10.00">##load&#45;integer 8 20</text>
<text text-anchor="start" x="89.5" y="-263" font-family="Courier,monospace" font-size="10.00">##load&#45;integer 9 30</text>
<text text-anchor="start" x="89.5" y="-251" font-family="Courier,monospace" font-size="10.00">##copy 10 9 any&#45;rep</text>
<text text-anchor="start" x="89.5" y="-239" font-family="Courier,monospace" font-size="10.00">##copy 11 8 any&#45;rep</text>
<text text-anchor="start" x="89.5" y="-227" font-family="Courier,monospace" font-size="10.00">##copy 12 7 any&#45;rep</text>
<text text-anchor="start" x="89.5" y="-215" font-family="Courier,monospace" font-size="10.00">##inc&#45;d 3</text>
<text text-anchor="start" x="89.5" y="-203" font-family="Courier,monospace" font-size="10.00">##branch</text>
</g>
<!-- 5&#45;&gt;9 -->
<g id="edge7" class="edge"><title>5&#45;&gt;9</title>
<path fill="none" stroke="black" d="M106.091,-347.505C109.346,-340.066 113.316,-330.993 117.488,-321.456"/>
<polygon fill="black" stroke="black" points="120.732,-322.774 121.533,-312.209 114.319,-319.968 120.732,-322.774"/>
</g>
<!-- 10 -->
<g id="node11" class="node"><title>10</title>
<polygon fill="none" stroke="black" points="203,-160 91,-160 91,-80 203,-80 203,-160"/>
<text text-anchor="middle" x="147" y="-147" font-family="Courier,monospace" font-size="10.00">10</text>
<text text-anchor="start" x="98.5" y="-135" font-family="Courier,monospace" font-size="10.00">##replace 12 D 2</text>
<text text-anchor="start" x="98.5" y="-123" font-family="Courier,monospace" font-size="10.00">##replace 1 D 3</text>
<text text-anchor="start" x="98.5" y="-111" font-family="Courier,monospace" font-size="10.00">##replace 10 D 0</text>
<text text-anchor="start" x="98.5" y="-99" font-family="Courier,monospace" font-size="10.00">##replace 11 D 1</text>
<text text-anchor="start" x="98.5" y="-87" font-family="Courier,monospace" font-size="10.00">##branch</text>
</g>
<!-- 9&#45;&gt;10 -->
<g id="edge11" class="edge"><title>9&#45;&gt;10</title>
<path fill="none" stroke="black" d="M147,-195.615C147,-187.185 147,-178.57 147,-170.315"/>
<polygon fill="black" stroke="black" points="150.5,-170.094 147,-160.094 143.5,-170.094 150.5,-170.094"/>
</g>
<!-- 8 -->
<g id="node10" class="node"><title>8</title>
<polygon fill="none" stroke="black" points="228,-384 164,-384 164,-348 228,-348 228,-384"/>
<text text-anchor="middle" x="196" y="-369" font-family="Courier,monospace" font-size="10.00">8</text>
<text text-anchor="start" x="171.5" y="-357" font-family="Courier,monospace" font-size="10.00">##branch</text>
</g>
<!-- 7&#45;&gt;8 -->
<g id="edge9" class="edge"><title>7&#45;&gt;8</title>
<path fill="none" stroke="black" d="M206.427,-419.977C204.772,-411.407 203.013,-402.304 201.421,-394.064"/>
<polygon fill="black" stroke="black" points="204.848,-393.347 199.514,-384.192 197.975,-394.674 204.848,-393.347"/>
</g>
<!-- 8&#45;&gt;9 -->
<g id="edge10" class="edge"><title>8&#45;&gt;9</title>
<path fill="none" stroke="black" d="M187.909,-347.505C184.654,-340.066 180.684,-330.993 176.512,-321.456"/>
<polygon fill="black" stroke="black" points="179.681,-319.968 172.467,-312.209 173.268,-322.774 179.681,-319.968"/>
</g>
<!-- 11 -->
<g id="node12" class="node"><title>11</title>
<polygon fill="grey" stroke="grey" points="185,-44 109,-44 109,-1.42109e-14 185,-0 185,-44"/>
<text text-anchor="middle" x="147" y="-31" font-family="Courier,monospace" font-size="10.00">11</text>
<text text-anchor="start" x="116.5" y="-19" font-family="Courier,monospace" font-size="10.00">##epilogue</text>
<text text-anchor="start" x="116.5" y="-7" font-family="Courier,monospace" font-size="10.00">##return</text>
</g>
<!-- 10&#45;&gt;11 -->
<g id="edge12" class="edge"><title>10&#45;&gt;11</title>
<path fill="none" stroke="black" d="M147,-79.8569C147,-71.4035 147,-62.5863 147,-54.4574"/>
<polygon fill="black" stroke="black" points="150.5,-54.2559 147,-44.2559 143.5,-54.2559 150.5,-54.2559"/>
</g>
</g>
</svg>
