<?xml version="1.0" encoding="UTF-8" standalone="no"?>
<!DOCTYPE svg PUBLIC "-//W3C//DTD SVG 1.1//EN"
 "http://www.w3.org/Graphics/SVG/1.1/DTD/svg11.dtd">
<!-- Generated by graphviz version 2.26.3 (20100126.1600)
 -->
<!-- Title: _anonymous_598 Pages: 1 -->
<svg width="286pt" height="540pt"
 viewBox="0.00 0.00 286.00 540.00" xmlns="http://www.w3.org/2000/svg" xmlns:xlink="http://www.w3.org/1999/xlink">
<g id="graph1" class="graph" transform="scale(1 1) rotate(0) translate(4 536)">
<title>_anonymous_598</title>
<polygon fill="white" stroke="white" points="-4,5 -4,-536 283,-536 283,5 -4,5"/>
<!-- 0 -->
<g id="node1" class="node"><title>0</title>
<polygon fill="grey" stroke="grey" points="177,-532 101,-532 101,-488 177,-488 177,-532"/>
<text text-anchor="middle" x="139" y="-519" font-family="Courier,monospace" font-size="10.00">0</text>
<text text-anchor="start" x="108.5" y="-507" font-family="Courier,monospace" font-size="10.00">##prologue</text>
<text text-anchor="start" x="108.5" y="-495" font-family="Courier,monospace" font-size="10.00">##branch</text>
</g>
<!-- 1 -->
<g id="node2" class="node"><title>1</title>
<polygon fill="none" stroke="black" points="234,-452 44,-452 44,-384 234,-384 234,-452"/>
<text text-anchor="middle" x="139" y="-439" font-family="Courier,monospace" font-size="10.00">1</text>
<text text-anchor="start" x="51.5" y="-427" font-family="Courier,monospace" font-size="10.00">##inc&#45;d &#45;1</text>
<text text-anchor="start" x="51.5" y="-415" font-family="Courier,monospace" font-size="10.00">##peek 1 D &#45;1</text>
<text text-anchor="start" x="51.5" y="-403" font-family="Courier,monospace" font-size="10.00">##copy 2 1 any&#45;rep</text>
<text text-anchor="start" x="51.5" y="-391" font-family="Courier,monospace" font-size="10.00">##compare&#45;imm&#45;branch 2 f cc/=</text>
</g>
<!-- 0&#45;&gt;1 -->
<g id="edge1" class="edge"><title>0&#45;&gt;1</title>
<path fill="none" stroke="black" d="M139,-487.729C139,-480.085 139,-471.236 139,-462.463"/>
<polygon fill="black" stroke="black" points="142.5,-462.274 139,-452.274 135.5,-462.274 142.5,-462.274"/>
</g>
<!-- 2 -->
<g id="node3" class="node"><title>2</title>
<polygon fill="none" stroke="black" points="130,-348 4.31391e-14,-348 1.49325e-14,-280 130,-280 130,-348"/>
<text text-anchor="middle" x="65" y="-335" font-family="Courier,monospace" font-size="10.00">2</text>
<text text-anchor="start" x="7.5" y="-323" font-family="Courier,monospace" font-size="10.00">##inc&#45;d 1</text>
<text text-anchor="start" x="7.5" y="-311" font-family="Courier,monospace" font-size="10.00">##load&#45;integer 3 10</text>
<text text-anchor="start" x="7.5" y="-299" font-family="Courier,monospace" font-size="10.00">##copy 1 3 any&#45;rep</text>
<text text-anchor="start" x="7.5" y="-287" font-family="Courier,monospace" font-size="10.00">##branch</text>
</g>
<!-- 1&#45;&gt;2 -->
<g id="edge2" class="edge"><title>1&#45;&gt;2</title>
<path fill="none" stroke="black" d="M114.77,-383.947C108.509,-375.148 101.692,-365.567 95.1687,-356.399"/>
<polygon fill="black" stroke="black" points="97.9342,-354.249 89.2848,-348.13 92.2306,-358.307 97.9342,-354.249"/>
</g>
<!-- 3 -->
<g id="node4" class="node"><title>3</title>
<polygon fill="none" stroke="black" points="278,-348 148,-348 148,-280 278,-280 278,-348"/>
<text text-anchor="middle" x="213" y="-335" font-family="Courier,monospace" font-size="10.00">3</text>
<text text-anchor="start" x="155.5" y="-323" font-family="Courier,monospace" font-size="10.00">##inc&#45;d 1</text>
<text text-anchor="start" x="155.5" y="-311" font-family="Courier,monospace" font-size="10.00">##load&#45;integer 5 20</text>
<text text-anchor="start" x="155.5" y="-299" font-family="Courier,monospace" font-size="10.00">##copy 1 5 any&#45;rep</text>
<text text-anchor="start" x="155.5" y="-287" font-family="Courier,monospace" font-size="10.00">##branch</text>
</g>
<!-- 1&#45;&gt;3 -->
<g id="edge3" class="edge"><title>1&#45;&gt;3</title>
<path fill="none" stroke="black" d="M163.23,-383.947C169.491,-375.148 176.308,-365.567 182.831,-356.399"/>
<polygon fill="black" stroke="black" points="185.769,-358.307 188.715,-348.13 180.066,-354.249 185.769,-358.307"/>
</g>
<!-- 4 -->
<g id="node5" class="node"><title>4</title>
<polygon fill="none" stroke="black" points="204,-244 74,-244 74,-80 204,-80 204,-244"/>
<text text-anchor="middle" x="139" y="-231" font-family="Courier,monospace" font-size="10.00">4</text>
<text text-anchor="start" x="81.5" y="-219" font-family="Courier,monospace" font-size="10.00">##inc&#45;d 3</text>
<text text-anchor="start" x="81.5" y="-207" font-family="Courier,monospace" font-size="10.00">##load&#45;integer 7 10</text>
<text text-anchor="start" x="81.5" y="-195" font-family="Courier,monospace" font-size="10.00">##load&#45;integer 8 20</text>
<text text-anchor="start" x="81.5" y="-183" font-family="Courier,monospace" font-size="10.00">##load&#45;integer 9 30</text>
<text text-anchor="start" x="81.5" y="-171" font-family="Courier,monospace" font-size="10.00">##copy 10 9 any&#45;rep</text>
<text text-anchor="start" x="81.5" y="-159" font-family="Courier,monospace" font-size="10.00">##copy 11 8 any&#45;rep</text>
<text text-anchor="start" x="81.5" y="-147" font-family="Courier,monospace" font-size="10.00">##copy 12 7 any&#45;rep</text>
<text text-anchor="start" x="81.5" y="-135" font-family="Courier,monospace" font-size="10.00">##replace 12 D 2</text>
<text text-anchor="start" x="81.5" y="-123" font-family="Courier,monospace" font-size="10.00">##replace 1 D 3</text>
<text text-anchor="start" x="81.5" y="-111" font-family="Courier,monospace" font-size="10.00">##replace 10 D 0</text>
<text text-anchor="start" x="81.5" y="-99" font-family="Courier,monospace" font-size="10.00">##replace 11 D 1</text>
<text text-anchor="start" x="81.5" y="-87" font-family="Courier,monospace" font-size="10.00">##branch</text>
</g>
<!-- 2&#45;&gt;4 -->
<g id="edge4" class="edge"><title>2&#45;&gt;4</title>
<path fill="none" stroke="black" d="M81.607,-279.888C85.579,-271.73 90.0069,-262.634 94.5932,-253.214"/>
<polygon fill="black" stroke="black" points="97.7987,-254.626 99.0291,-244.102 91.5049,-251.561 97.7987,-254.626"/>
</g>
<!-- 3&#45;&gt;4 -->
<g id="edge5" class="edge"><title>3&#45;&gt;4</title>
<path fill="none" stroke="black" d="M196.393,-279.888C192.421,-271.73 187.993,-262.634 183.407,-253.214"/>
<polygon fill="black" stroke="black" points="186.495,-251.561 178.971,-244.102 180.201,-254.626 186.495,-251.561"/>
</g>
<!-- 5 -->
<g id="node6" class="node"><title>5</title>
<polygon fill="grey" stroke="grey" points="177,-44 101,-44 101,-1.42109e-14 177,-0 177,-44"/>
<text text-anchor="middle" x="139" y="-31" font-family="Courier,monospace" font-size="10.00">5</text>
<text text-anchor="start" x="108.5" y="-19" font-family="Courier,monospace" font-size="10.00">##epilogue</text>
<text text-anchor="start" x="108.5" y="-7" font-family="Courier,monospace" font-size="10.00">##return</text>
</g>
<!-- 4&#45;&gt;5 -->
<g id="edge6" class="edge"><title>4&#45;&gt;5</title>
<path fill="none" stroke="black" d="M139,-79.7516C139,-70.7493 139,-62.0259 139,-54.2022"/>
<polygon fill="black" stroke="black" points="142.5,-54.1496 139,-44.1496 135.5,-54.1496 142.5,-54.1496"/>
</g>
</g>
</svg>
