<?xml version="1.0" encoding="UTF-8" standalone="no"?>
<!DOCTYPE svg PUBLIC "-//W3C//DTD SVG 1.1//EN"
 "http://www.w3.org/Graphics/SVG/1.1/DTD/svg11.dtd">
<!-- Generated by graphviz version 2.26.3 (20100126.1600)
 -->
<!-- Title: _anonymous_610 Pages: 1 -->
<svg width="298pt" height="492pt"
 viewBox="0.00 0.00 298.00 492.00" xmlns="http://www.w3.org/2000/svg" xmlns:xlink="http://www.w3.org/1999/xlink">
<g id="graph1" class="graph" transform="scale(1 1) rotate(0) translate(4 488)">
<title>_anonymous_610</title>
<polygon fill="white" stroke="white" points="-4,5 -4,-488 295,-488 295,5 -4,5"/>
<!-- 0 -->
<g id="node1" class="node"><title>0</title>
<polygon fill="grey" stroke="grey" points="183,-484 107,-484 107,-440 183,-440 183,-484"/>
<text text-anchor="middle" x="145" y="-471" font-family="Courier,monospace" font-size="10.00">0</text>
<text text-anchor="start" x="114.5" y="-459" font-family="Courier,monospace" font-size="10.00">##prologue</text>
<text text-anchor="start" x="114.5" y="-447" font-family="Courier,monospace" font-size="10.00">##branch</text>
</g>
<!-- 1 -->
<g id="node2" class="node"><title>1</title>
<polygon fill="none" stroke="black" points="243,-404 47,-404 47,-348 243,-348 243,-404"/>
<text text-anchor="middle" x="145" y="-391" font-family="Courier,monospace" font-size="10.00">1</text>
<text text-anchor="start" x="54.5" y="-379" font-family="Courier,monospace" font-size="10.00">##inc&#45;d &#45;1</text>
<text text-anchor="start" x="54.5" y="-367" font-family="Courier,monospace" font-size="10.00">##peek 14 D &#45;1</text>
<text text-anchor="start" x="54.5" y="-355" font-family="Courier,monospace" font-size="10.00">##compare&#45;imm&#45;branch 14 f cc/=</text>
</g>
<!-- 0&#45;&gt;1 -->
<g id="edge1" class="edge"><title>0&#45;&gt;1</title>
<path fill="none" stroke="black" d="M145,-439.853C145,-432.055 145,-423.05 145,-414.306"/>
<polygon fill="black" stroke="black" points="148.5,-414.251 145,-404.251 141.5,-414.251 148.5,-414.251"/>
</g>
<!-- 2 -->
<g id="node3" class="node"><title>2</title>
<polygon fill="none" stroke="black" points="136,-312 2.76029e-14,-312 1.34961e-14,-256 136,-256 136,-312"/>
<text text-anchor="middle" x="68" y="-299" font-family="Courier,monospace" font-size="10.00">2</text>
<text text-anchor="start" x="7.5" y="-287" font-family="Courier,monospace" font-size="10.00">##inc&#45;d 1</text>
<text text-anchor="start" x="7.5" y="-275" font-family="Courier,monospace" font-size="10.00">##load&#45;integer 25 10</text>
<text text-anchor="start" x="7.5" y="-263" font-family="Courier,monospace" font-size="10.00">##branch</text>
</g>
<!-- 1&#45;&gt;2 -->
<g id="edge2" class="edge"><title>1&#45;&gt;2</title>
<path fill="none" stroke="black" d="M121.479,-347.897C114.159,-339.151 105.983,-329.382 98.2688,-320.165"/>
<polygon fill="black" stroke="black" points="100.744,-317.67 91.6422,-312.248 95.3765,-322.163 100.744,-317.67"/>
</g>
<!-- 3 -->
<g id="node4" class="node"><title>3</title>
<polygon fill="none" stroke="black" points="290,-312 154,-312 154,-256 290,-256 290,-312"/>
<text text-anchor="middle" x="222" y="-299" font-family="Courier,monospace" font-size="10.00">3</text>
<text text-anchor="start" x="161.5" y="-287" font-family="Courier,monospace" font-size="10.00">##inc&#45;d 1</text>
<text text-anchor="start" x="161.5" y="-275" font-family="Courier,monospace" font-size="10.00">##load&#45;integer 16 20</text>
<text text-anchor="start" x="161.5" y="-263" font-family="Courier,monospace" font-size="10.00">##branch</text>
</g>
<!-- 1&#45;&gt;3 -->
<g id="edge3" class="edge"><title>1&#45;&gt;3</title>
<path fill="none" stroke="black" d="M168.521,-347.897C175.841,-339.151 184.017,-329.382 191.731,-320.165"/>
<polygon fill="black" stroke="black" points="194.624,-322.163 198.358,-312.248 189.256,-317.67 194.624,-322.163"/>
</g>
<!-- 4 -->
<g id="node5" class="node"><title>4</title>
<polygon fill="none" stroke="black" points="246,-220 44,-220 44,-80 246,-80 246,-220"/>
<text text-anchor="middle" x="145" y="-207" font-family="Courier,monospace" font-size="10.00">4</text>
<text text-anchor="start" x="51.5" y="-195" font-family="Courier,monospace" font-size="10.00">##phi 18 H{ { 2 25 } { 3 16 } }</text>
<text text-anchor="start" x="51.5" y="-183" font-family="Courier,monospace" font-size="10.00">##inc&#45;d 3</text>
<text text-anchor="start" x="51.5" y="-171" font-family="Courier,monospace" font-size="10.00">##load&#45;integer 19 10</text>
<text text-anchor="start" x="51.5" y="-159" font-family="Courier,monospace" font-size="10.00">##load&#45;integer 20 20</text>
<text text-anchor="start" x="51.5" y="-147" font-family="Courier,monospace" font-size="10.00">##load&#45;integer 21 30</text>
<text text-anchor="start" x="51.5" y="-135" font-family="Courier,monospace" font-size="10.00">##replace&#45;imm 10 D 2</text>
<text text-anchor="start" x="51.5" y="-123" font-family="Courier,monospace" font-size="10.00">##replace 18 D 3</text>
<text text-anchor="start" x="51.5" y="-111" font-family="Courier,monospace" font-size="10.00">##replace&#45;imm 30 D 0</text>
<text text-anchor="start" x="51.5" y="-99" font-family="Courier,monospace" font-size="10.00">##replace&#45;imm 20 D 1</text>
<text text-anchor="start" x="51.5" y="-87" font-family="Courier,monospace" font-size="10.00">##branch</text>
</g>
<!-- 2&#45;&gt;4 -->
<g id="edge4" class="edge"><title>2&#45;&gt;4</title>
<path fill="none" stroke="black" d="M84.1417,-255.909C88.8011,-247.801 94.1291,-238.529 99.6513,-228.919"/>
<polygon fill="black" stroke="black" points="102.816,-230.436 104.764,-220.022 96.7467,-226.948 102.816,-230.436"/>
</g>
<!-- 3&#45;&gt;4 -->
<g id="edge5" class="edge"><title>3&#45;&gt;4</title>
<path fill="none" stroke="black" d="M205.858,-255.909C201.199,-247.801 195.871,-238.529 190.349,-228.919"/>
<polygon fill="black" stroke="black" points="193.253,-226.948 185.236,-220.022 187.184,-230.436 193.253,-226.948"/>
</g>
<!-- 5 -->
<g id="node6" class="node"><title>5</title>
<polygon fill="grey" stroke="grey" points="183,-44 107,-44 107,-1.42109e-14 183,-0 183,-44"/>
<text text-anchor="middle" x="145" y="-31" font-family="Courier,monospace" font-size="10.00">5</text>
<text text-anchor="start" x="114.5" y="-19" font-family="Courier,monospace" font-size="10.00">##epilogue</text>
<text text-anchor="start" x="114.5" y="-7" font-family="Courier,monospace" font-size="10.00">##return</text>
</g>
<!-- 4&#45;&gt;5 -->
<g id="edge6" class="edge"><title>4&#45;&gt;5</title>
<path fill="none" stroke="black" d="M145,-79.6344C145,-70.768 145,-62.0663 145,-54.2189"/>
<polygon fill="black" stroke="black" points="148.5,-54.1121 145,-44.1122 141.5,-54.1122 148.5,-54.1121"/>
</g>
</g>
</svg>
