<?xml version="1.0" encoding="UTF-8" standalone="no"?>
<!DOCTYPE svg PUBLIC "-//W3C//DTD SVG 1.1//EN"
 "http://www.w3.org/Graphics/SVG/1.1/DTD/svg11.dtd">
<!-- Generated by graphviz version 2.26.3 (20100126.1600)
 -->
<!-- Title: _anonymous_3 Pages: 1 -->
<svg width="120pt" height="644pt"
 viewBox="0.00 0.00 120.00 644.00" xmlns="http://www.w3.org/2000/svg" xmlns:xlink="http://www.w3.org/1999/xlink">
<g id="graph1" class="graph" transform="scale(1 1) rotate(0) translate(4 640)">
<title>_anonymous_3</title>
<polygon fill="white" stroke="white" points="-4,5 -4,-640 117,-640 117,5 -4,5"/>
<!-- 0 -->
<g id="node1" class="node"><title>0</title>
<polygon fill="none" stroke="black" points="94,-636 18,-636 18,-592 94,-592 94,-636"/>
<text text-anchor="middle" x="56" y="-623" font-family="Courier,monospace" font-size="10.00">0</text>
<text text-anchor="start" x="25.5" y="-611" font-family="Courier,monospace" font-size="10.00">##prologue</text>
<text text-anchor="start" x="25.5" y="-599" font-family="Courier,monospace" font-size="10.00">##branch</text>
</g>
<!-- 1 -->
<g id="node2" class="node"><title>1</title>
<polygon fill="none" stroke="black" points="88,-556 24,-556 24,-520 88,-520 88,-556"/>
<text text-anchor="middle" x="56" y="-541" font-family="Courier,monospace" font-size="10.00">1</text>
<text text-anchor="start" x="31.5" y="-529" font-family="Courier,monospace" font-size="10.00">##branch</text>
</g>
<!-- 0&#45;&gt;1 -->
<g id="edge1" class="edge"><title>0&#45;&gt;1</title>
<path fill="none" stroke="black" d="M56,-591.609C56,-583.727 56,-574.762 56,-566.448"/>
<polygon fill="black" stroke="black" points="59.5001,-566.397 56,-556.397 52.5001,-566.398 59.5001,-566.397"/>
</g>
<!-- 2 -->
<g id="node3" class="node"><title>2</title>
<polygon fill="none" stroke="black" points="88,-484 24,-484 24,-448 88,-448 88,-484"/>
<text text-anchor="middle" x="56" y="-469" font-family="Courier,monospace" font-size="10.00">2</text>
<text text-anchor="start" x="31.5" y="-457" font-family="Courier,monospace" font-size="10.00">##branch</text>
</g>
<!-- 1&#45;&gt;2 -->
<g id="edge2" class="edge"><title>1&#45;&gt;2</title>
<path fill="none" stroke="black" d="M56,-519.831C56,-512.131 56,-502.974 56,-494.417"/>
<polygon fill="black" stroke="black" points="59.5001,-494.413 56,-484.413 52.5001,-494.413 59.5001,-494.413"/>
</g>
<!-- 3 -->
<g id="node4" class="node"><title>3</title>
<polygon fill="none" stroke="black" points="88,-412 24,-412 24,-376 88,-376 88,-412"/>
<text text-anchor="middle" x="56" y="-397" font-family="Courier,monospace" font-size="10.00">3</text>
<text text-anchor="start" x="31.5" y="-385" font-family="Courier,monospace" font-size="10.00">##branch</text>
</g>
<!-- 2&#45;&gt;3 -->
<g id="edge3" class="edge"><title>2&#45;&gt;3</title>
<path fill="none" stroke="black" d="M56,-447.831C56,-440.131 56,-430.974 56,-422.417"/>
<polygon fill="black" stroke="black" points="59.5001,-422.413 56,-412.413 52.5001,-422.413 59.5001,-422.413"/>
</g>
<!-- 4 -->
<g id="node5" class="node"><title>4</title>
<polygon fill="none" stroke="black" points="112,-340 2.89491e-14,-340 7.82013e-15,-296 112,-296 112,-340"/>
<text text-anchor="middle" x="56" y="-327" font-family="Courier,monospace" font-size="10.00">4</text>
<text text-anchor="start" x="7.5" y="-315" font-family="Courier,monospace" font-size="10.00">##call tail&#45;call</text>
<text text-anchor="start" x="7.5" y="-303" font-family="Courier,monospace" font-size="10.00">##branch</text>
</g>
<!-- 3&#45;&gt;4 -->
<g id="edge4" class="edge"><title>3&#45;&gt;4</title>
<path fill="none" stroke="black" d="M56,-375.989C56,-368.291 56,-359.063 56,-350.256"/>
<polygon fill="black" stroke="black" points="59.5001,-350.228 56,-340.228 52.5001,-350.228 59.5001,-350.228"/>
</g>
<!-- 5 -->
<g id="node6" class="node"><title>5</title>
<polygon fill="none" stroke="black" points="88,-260 24,-260 24,-224 88,-224 88,-260"/>
<text text-anchor="middle" x="56" y="-245" font-family="Courier,monospace" font-size="10.00">5</text>
<text text-anchor="start" x="31.5" y="-233" font-family="Courier,monospace" font-size="10.00">##branch</text>
</g>
<!-- 4&#45;&gt;5 -->
<g id="edge5" class="edge"><title>4&#45;&gt;5</title>
<path fill="none" stroke="black" d="M56,-295.609C56,-287.727 56,-278.762 56,-270.448"/>
<polygon fill="black" stroke="black" points="59.5001,-270.397 56,-260.397 52.5001,-270.398 59.5001,-270.397"/>
</g>
<!-- 6 -->
<g id="node7" class="node"><title>6</title>
<polygon fill="none" stroke="black" points="88,-188 24,-188 24,-152 88,-152 88,-188"/>
<text text-anchor="middle" x="56" y="-173" font-family="Courier,monospace" font-size="10.00">6</text>
<text text-anchor="start" x="31.5" y="-161" font-family="Courier,monospace" font-size="10.00">##branch</text>
</g>
<!-- 5&#45;&gt;6 -->
<g id="edge6" class="edge"><title>5&#45;&gt;6</title>
<path fill="none" stroke="black" d="M56,-223.831C56,-216.131 56,-206.974 56,-198.417"/>
<polygon fill="black" stroke="black" points="59.5001,-198.413 56,-188.413 52.5001,-198.413 59.5001,-198.413"/>
</g>
<!-- 7 -->
<g id="node8" class="node"><title>7</title>
<polygon fill="none" stroke="black" points="88,-116 24,-116 24,-80 88,-80 88,-116"/>
<text text-anchor="middle" x="56" y="-101" font-family="Courier,monospace" font-size="10.00">7</text>
<text text-anchor="start" x="31.5" y="-89" font-family="Courier,monospace" font-size="10.00">##branch</text>
</g>
<!-- 6&#45;&gt;7 -->
<g id="edge7" class="edge"><title>6&#45;&gt;7</title>
<path fill="none" stroke="black" d="M56,-151.831C56,-144.131 56,-134.974 56,-126.417"/>
<polygon fill="black" stroke="black" points="59.5001,-126.413 56,-116.413 52.5001,-126.413 59.5001,-126.413"/>
</g>
<!-- 8 -->
<g id="node9" class="node"><title>8</title>
<polygon fill="none" stroke="black" points="94,-44 18,-44 18,-1.42109e-14 94,-0 94,-44"/>
<text text-anchor="middle" x="56" y="-31" font-family="Courier,monospace" font-size="10.00">8</text>
<text text-anchor="start" x="25.5" y="-19" font-family="Courier,monospace" font-size="10.00">##epilogue</text>
<text text-anchor="start" x="25.5" y="-7" font-family="Courier,monospace" font-size="10.00">##return</text>
</g>
<!-- 7&#45;&gt;8 -->
<g id="edge8" class="edge"><title>7&#45;&gt;8</title>
<path fill="none" stroke="black" d="M56,-79.9891C56,-72.291 56,-63.0629 56,-54.2561"/>
<polygon fill="black" stroke="black" points="59.5001,-54.2282 56,-44.2282 52.5001,-54.2282 59.5001,-54.2282"/>
</g>
</g>
</svg>
