<?xml version="1.0" encoding="UTF-8" standalone="no"?>
<!DOCTYPE svg PUBLIC "-//W3C//DTD SVG 1.1//EN"
 "http://www.w3.org/Graphics/SVG/1.1/DTD/svg11.dtd">
<!-- Generated by graphviz version 2.26.3 (20100126.1600)
 -->
<!-- Title: _anonymous_11 Pages: 1 -->
<svg width="84pt" height="196pt"
 viewBox="0.00 0.00 84.00 196.00" xmlns="http://www.w3.org/2000/svg" xmlns:xlink="http://www.w3.org/1999/xlink">
<g id="graph1" class="graph" transform="scale(1 1) rotate(0) translate(4 192)">
<title>_anonymous_11</title>
<polygon fill="white" stroke="white" points="-4,5 -4,-192 81,-192 81,5 -4,5"/>
<!-- 0 -->
<g id="node1" class="node"><title>0</title>
<polygon fill="grey" stroke="grey" points="76,-188 2.82205e-14,-188 7.17829e-15,-144 76,-144 76,-188"/>
<text text-anchor="middle" x="38" y="-175" font-family="Courier,monospace" font-size="10.00">0</text>
<text text-anchor="start" x="7.5" y="-163" font-family="Courier,monospace" font-size="10.00">##prologue</text>
<text text-anchor="start" x="7.5" y="-151" font-family="Courier,monospace" font-size="10.00">##branch</text>
</g>
<!-- 1 -->
<g id="node2" class="node"><title>1</title>
<polygon fill="none" stroke="black" points="70,-108 6,-108 6,-72 70,-72 70,-108"/>
<text text-anchor="middle" x="38" y="-93" font-family="Courier,monospace" font-size="10.00">1</text>
<text text-anchor="start" x="13.5" y="-81" font-family="Courier,monospace" font-size="10.00">##branch</text>
</g>
<!-- 0&#45;&gt;1 -->
<g id="edge1" class="edge"><title>0&#45;&gt;1</title>
<path fill="none" stroke="black" d="M38,-147.989C38,-139.157 38,-128.31 38,-118.396"/>
<polygon fill="black" stroke="black" points="41.5001,-118.145 38,-108.145 34.5001,-118.145 41.5001,-118.145"/>
</g>
<!-- 2 -->
<g id="node3" class="node"><title>2</title>
<polygon fill="grey" stroke="grey" points="70,-36 6,-36 6,-1.06581e-14 70,-0 70,-36"/>
<text text-anchor="middle" x="38" y="-21" font-family="Courier,monospace" font-size="10.00">2</text>
<text text-anchor="start" x="13.5" y="-9" font-family="Courier,monospace" font-size="10.00">##branch</text>
</g>
<!-- 1&#45;&gt;2 -->
<g id="edge2" class="edge"><title>1&#45;&gt;2</title>
<path fill="none" stroke="black" d="M32.0476,-71.8314C31.2972,-64.131 31.0763,-54.9743 31.3849,-46.4166"/>
<polygon fill="black" stroke="black" points="34.8792,-46.6161 32.024,-36.4133 27.8935,-46.1697 34.8792,-46.6161"/>
</g>
<!-- 2&#45;&gt;1 -->
<g id="edge3" class="edge"><title>2&#45;&gt;1</title>
<path fill="none" stroke="black" d="M43.976,-36.4133C44.7071,-44.0593 44.9203,-53.1084 44.6155,-61.5726"/>
<polygon fill="black" stroke="black" points="41.1048,-61.6264 43.9524,-71.8314 48.0902,-62.078 41.1048,-61.6264"/>
</g>
</g>
</svg>
