<?xml version="1.0" encoding="UTF-8" standalone="no"?>
<!DOCTYPE svg PUBLIC "-//W3C//DTD SVG 1.1//EN"
 "http://www.w3.org/Graphics/SVG/1.1/DTD/svg11.dtd">
<!-- Generated by graphviz version 2.26.3 (20100126.1600)
 -->
<!-- Title: _anonymous_3 Pages: 1 -->
<svg width="108pt" height="340pt"
 viewBox="0.00 0.00 108.00 340.00" xmlns="http://www.w3.org/2000/svg" xmlns:xlink="http://www.w3.org/1999/xlink">
<g id="graph1" class="graph" transform="scale(1 1) rotate(0) translate(4 336)">
<title>_anonymous_3</title>
<polygon fill="white" stroke="white" points="-4,5 -4,-336 105,-336 105,5 -4,5"/>
<!-- 0 -->
<g id="node1" class="node"><title>0</title>
<polygon fill="grey" stroke="grey" points="100,-332 24,-332 24,-288 100,-288 100,-332"/>
<text text-anchor="middle" x="62" y="-319" font-family="Courier,monospace" font-size="10.00">0</text>
<text text-anchor="start" x="31.5" y="-307" font-family="Courier,monospace" font-size="10.00">##prologue</text>
<text text-anchor="start" x="31.5" y="-295" font-family="Courier,monospace" font-size="10.00">##branch</text>
</g>
<!-- 1 -->
<g id="node2" class="node"><title>1</title>
<polygon fill="none" stroke="black" points="94,-252 30,-252 30,-216 94,-216 94,-252"/>
<text text-anchor="middle" x="62" y="-237" font-family="Courier,monospace" font-size="10.00">1</text>
<text text-anchor="start" x="37.5" y="-225" font-family="Courier,monospace" font-size="10.00">##branch</text>
</g>
<!-- 0&#45;&gt;1 -->
<g id="edge1" class="edge"><title>0&#45;&gt;1</title>
<path fill="none" stroke="black" d="M62,-287.609C62,-279.727 62,-270.762 62,-262.448"/>
<polygon fill="black" stroke="black" points="65.5001,-262.397 62,-252.397 58.5001,-262.398 65.5001,-262.397"/>
</g>
<!-- 2 -->
<g id="node3" class="node"><title>2</title>
<polygon fill="none" stroke="black" points="64,-180 1.92121e-14,-180 5.21978e-15,-144 64,-144 64,-180"/>
<text text-anchor="middle" x="32" y="-165" font-family="Courier,monospace" font-size="10.00">2</text>
<text text-anchor="start" x="7.5" y="-153" font-family="Courier,monospace" font-size="10.00">##branch</text>
</g>
<!-- 1&#45;&gt;2 -->
<g id="edge2" class="edge"><title>1&#45;&gt;2</title>
<path fill="none" stroke="black" d="M54.4297,-215.831C51.1507,-207.962 47.238,-198.571 43.6055,-189.853"/>
<polygon fill="black" stroke="black" points="46.7492,-188.298 39.6722,-180.413 40.2876,-190.99 46.7492,-188.298"/>
</g>
<!-- 3 -->
<g id="node4" class="node"><title>3</title>
<polygon fill="none" stroke="black" points="64,-108 1.92121e-14,-108 5.21978e-15,-72 64,-72 64,-108"/>
<text text-anchor="middle" x="32" y="-93" font-family="Courier,monospace" font-size="10.00">3</text>
<text text-anchor="start" x="7.5" y="-81" font-family="Courier,monospace" font-size="10.00">##branch</text>
</g>
<!-- 2&#45;&gt;3 -->
<g id="edge3" class="edge"><title>2&#45;&gt;3</title>
<path fill="none" stroke="black" d="M32,-143.831C32,-136.131 32,-126.974 32,-118.417"/>
<polygon fill="black" stroke="black" points="35.5001,-118.413 32,-108.413 28.5001,-118.413 35.5001,-118.413"/>
</g>
<!-- 4 -->
<g id="node5" class="node"><title>4</title>
<polygon fill="grey" stroke="grey" points="94,-36 30,-36 30,-1.06581e-14 94,-0 94,-36"/>
<text text-anchor="middle" x="62" y="-21" font-family="Courier,monospace" font-size="10.00">4</text>
<text text-anchor="start" x="37.5" y="-9" font-family="Courier,monospace" font-size="10.00">##branch</text>
</g>
<!-- 3&#45;&gt;4 -->
<g id="edge4" class="edge"><title>3&#45;&gt;4</title>
<path fill="none" stroke="black" d="M39.5703,-71.8314C42.8493,-63.9617 46.762,-54.5712 50.3945,-45.8533"/>
<polygon fill="black" stroke="black" points="53.7124,-46.9902 54.3278,-36.4133 47.2508,-44.2979 53.7124,-46.9902"/>
</g>
<!-- 4&#45;&gt;1 -->
<g id="edge5" class="edge"><title>4&#45;&gt;1</title>
<path fill="none" stroke="black" d="M66.6934,-36.3537C69.1071,-46.7369 71.7908,-60.0057 73,-72 77.8148,-119.758 77.8148,-132.242 73,-180 72.1498,-188.433 70.5706,-197.497 68.8689,-205.745"/>
<polygon fill="black" stroke="black" points="65.4209,-205.128 66.6934,-215.646 72.2578,-206.63 65.4209,-205.128"/>
</g>
</g>
</svg>
