<?xml version="1.0" encoding="UTF-8" standalone="no"?>
<!DOCTYPE svg PUBLIC "-//W3C//DTD SVG 1.1//EN"
 "http://www.w3.org/Graphics/SVG/1.1/DTD/svg11.dtd">
<!-- Generated by graphviz version 2.26.3 (20100126.1600)
 -->
<!-- Title: _anonymous_15 Pages: 1 -->
<svg width="198pt" height="664pt"
 viewBox="0.00 0.00 198.00 664.00" xmlns="http://www.w3.org/2000/svg" xmlns:xlink="http://www.w3.org/1999/xlink">
<g id="graph1" class="graph" transform="scale(1 1) rotate(0) translate(4 660)">
<title>_anonymous_15</title>
<polygon fill="white" stroke="white" points="-4,5 -4,-660 195,-660 195,5 -4,5"/>
<!-- 0 -->
<g id="node1" class="node"><title>0</title>
<polygon fill="none" stroke="black" points="133,-656 57,-656 57,-612 133,-612 133,-656"/>
<text text-anchor="middle" x="95" y="-643" font-family="Courier,monospace" font-size="10.00">0</text>
<text text-anchor="start" x="64.5" y="-631" font-family="Courier,monospace" font-size="10.00">##prologue</text>
<text text-anchor="start" x="64.5" y="-619" font-family="Courier,monospace" font-size="10.00">##branch</text>
</g>
<!-- 1 -->
<g id="node2" class="node"><title>1</title>
<polygon fill="none" stroke="black" points="139,-576 51,-576 51,-532 139,-532 139,-576"/>
<text text-anchor="middle" x="95" y="-563" font-family="Courier,monospace" font-size="10.00">1</text>
<text text-anchor="start" x="58.5" y="-551" font-family="Courier,monospace" font-size="10.00">##peek 1 D 0</text>
<text text-anchor="start" x="58.5" y="-539" font-family="Courier,monospace" font-size="10.00">##branch</text>
</g>
<!-- 0&#45;&gt;1 -->
<g id="edge1" class="edge"><title>0&#45;&gt;1</title>
<path fill="none" stroke="black" d="M95,-611.716C95,-603.827 95,-594.787 95,-586.238"/>
<polygon fill="black" stroke="black" points="98.5001,-586.165 95,-576.165 91.5001,-586.165 98.5001,-586.165"/>
</g>
<!-- 2 -->
<g id="node3" class="node"><title>2</title>
<polygon fill="none" stroke="black" points="190,-496 5.17711e-14,-496 9.36057e-15,-440 190,-440 190,-496"/>
<text text-anchor="middle" x="95" y="-483" font-family="Courier,monospace" font-size="10.00">2</text>
<text text-anchor="start" x="7.5" y="-471" font-family="Courier,monospace" font-size="10.00">##copy 2 1 any&#45;rep</text>
<text text-anchor="start" x="7.5" y="-459" font-family="Courier,monospace" font-size="10.00">##inc&#45;d &#45;1</text>
<text text-anchor="start" x="7.5" y="-447" font-family="Courier,monospace" font-size="10.00">##compare&#45;imm&#45;branch 2 f cc/=</text>
</g>
<!-- 1&#45;&gt;2 -->
<g id="edge2" class="edge"><title>1&#45;&gt;2</title>
<path fill="none" stroke="black" d="M95,-531.853C95,-524.055 95,-515.05 95,-506.306"/>
<polygon fill="black" stroke="black" points="98.5001,-506.251 95,-496.251 91.5001,-506.251 98.5001,-506.251"/>
</g>
<!-- 3 -->
<g id="node4" class="node"><title>3</title>
<polygon fill="none" stroke="black" points="86,-404 22,-404 22,-368 86,-368 86,-404"/>
<text text-anchor="middle" x="54" y="-389" font-family="Courier,monospace" font-size="10.00">3</text>
<text text-anchor="start" x="29.5" y="-377" font-family="Courier,monospace" font-size="10.00">##branch</text>
</g>
<!-- 2&#45;&gt;3 -->
<g id="edge3" class="edge"><title>2&#45;&gt;3</title>
<path fill="none" stroke="black" d="M80.8901,-439.78C76.649,-431.298 72.0024,-422.005 67.7827,-413.565"/>
<polygon fill="black" stroke="black" points="70.847,-411.868 63.2443,-404.489 64.586,-414.998 70.847,-411.868"/>
</g>
<!-- 6 -->
<g id="node5" class="node"><title>6</title>
<polygon fill="none" stroke="black" points="168,-404 104,-404 104,-368 168,-368 168,-404"/>
<text text-anchor="middle" x="136" y="-389" font-family="Courier,monospace" font-size="10.00">6</text>
<text text-anchor="start" x="111.5" y="-377" font-family="Courier,monospace" font-size="10.00">##branch</text>
</g>
<!-- 2&#45;&gt;6 -->
<g id="edge4" class="edge"><title>2&#45;&gt;6</title>
<path fill="none" stroke="black" d="M109.11,-439.78C113.351,-431.298 117.998,-422.005 122.217,-413.565"/>
<polygon fill="black" stroke="black" points="125.414,-414.998 126.756,-404.489 119.153,-411.868 125.414,-414.998"/>
</g>
<!-- 4 -->
<g id="node6" class="node"><title>4</title>
<polygon fill="none" stroke="black" points="86,-332 22,-332 22,-296 86,-296 86,-332"/>
<text text-anchor="middle" x="54" y="-317" font-family="Courier,monospace" font-size="10.00">4</text>
<text text-anchor="start" x="29.5" y="-305" font-family="Courier,monospace" font-size="10.00">##branch</text>
</g>
<!-- 3&#45;&gt;4 -->
<g id="edge5" class="edge"><title>3&#45;&gt;4</title>
<path fill="none" stroke="black" d="M54,-367.831C54,-360.131 54,-350.974 54,-342.417"/>
<polygon fill="black" stroke="black" points="57.5001,-342.413 54,-332.413 50.5001,-342.413 57.5001,-342.413"/>
</g>
<!-- 7 -->
<g id="node9" class="node"><title>7</title>
<polygon fill="none" stroke="black" points="168,-332 104,-332 104,-296 168,-296 168,-332"/>
<text text-anchor="middle" x="136" y="-317" font-family="Courier,monospace" font-size="10.00">7</text>
<text text-anchor="start" x="111.5" y="-305" font-family="Courier,monospace" font-size="10.00">##branch</text>
</g>
<!-- 6&#45;&gt;7 -->
<g id="edge8" class="edge"><title>6&#45;&gt;7</title>
<path fill="none" stroke="black" d="M136,-367.831C136,-360.131 136,-350.974 136,-342.417"/>
<polygon fill="black" stroke="black" points="139.5,-342.413 136,-332.413 132.5,-342.413 139.5,-342.413"/>
</g>
<!-- 5 -->
<g id="node7" class="node"><title>5</title>
<polygon fill="none" stroke="black" points="86,-260 22,-260 22,-224 86,-224 86,-260"/>
<text text-anchor="middle" x="54" y="-245" font-family="Courier,monospace" font-size="10.00">5</text>
<text text-anchor="start" x="29.5" y="-233" font-family="Courier,monospace" font-size="10.00">##branch</text>
</g>
<!-- 4&#45;&gt;5 -->
<g id="edge6" class="edge"><title>4&#45;&gt;5</title>
<path fill="none" stroke="black" d="M54,-295.831C54,-288.131 54,-278.974 54,-270.417"/>
<polygon fill="black" stroke="black" points="57.5001,-270.413 54,-260.413 50.5001,-270.413 57.5001,-270.413"/>
</g>
<!-- 9 -->
<g id="node8" class="node"><title>9</title>
<polygon fill="none" stroke="black" points="127,-188 63,-188 63,-152 127,-152 127,-188"/>
<text text-anchor="middle" x="95" y="-173" font-family="Courier,monospace" font-size="10.00">9</text>
<text text-anchor="start" x="70.5" y="-161" font-family="Courier,monospace" font-size="10.00">##branch</text>
</g>
<!-- 5&#45;&gt;9 -->
<g id="edge7" class="edge"><title>5&#45;&gt;9</title>
<path fill="none" stroke="black" d="M64.346,-223.831C68.9237,-215.792 74.4052,-206.167 79.4588,-197.292"/>
<polygon fill="black" stroke="black" points="82.6077,-198.835 84.5147,-188.413 76.5248,-195.371 82.6077,-198.835"/>
</g>
<!-- 10 -->
<g id="node11" class="node"><title>10</title>
<polygon fill="none" stroke="black" points="127,-116 63,-116 63,-80 127,-80 127,-116"/>
<text text-anchor="middle" x="95" y="-101" font-family="Courier,monospace" font-size="10.00">10</text>
<text text-anchor="start" x="70.5" y="-89" font-family="Courier,monospace" font-size="10.00">##branch</text>
</g>
<!-- 9&#45;&gt;10 -->
<g id="edge11" class="edge"><title>9&#45;&gt;10</title>
<path fill="none" stroke="black" d="M95,-151.831C95,-144.131 95,-134.974 95,-126.417"/>
<polygon fill="black" stroke="black" points="98.5001,-126.413 95,-116.413 91.5001,-126.413 98.5001,-126.413"/>
</g>
<!-- 8 -->
<g id="node10" class="node"><title>8</title>
<polygon fill="none" stroke="black" points="168,-260 104,-260 104,-224 168,-224 168,-260"/>
<text text-anchor="middle" x="136" y="-245" font-family="Courier,monospace" font-size="10.00">8</text>
<text text-anchor="start" x="111.5" y="-233" font-family="Courier,monospace" font-size="10.00">##branch</text>
</g>
<!-- 7&#45;&gt;8 -->
<g id="edge9" class="edge"><title>7&#45;&gt;8</title>
<path fill="none" stroke="black" d="M136,-295.831C136,-288.131 136,-278.974 136,-270.417"/>
<polygon fill="black" stroke="black" points="139.5,-270.413 136,-260.413 132.5,-270.413 139.5,-270.413"/>
</g>
<!-- 8&#45;&gt;9 -->
<g id="edge10" class="edge"><title>8&#45;&gt;9</title>
<path fill="none" stroke="black" d="M125.654,-223.831C121.076,-215.792 115.595,-206.167 110.541,-197.292"/>
<polygon fill="black" stroke="black" points="113.475,-195.371 105.485,-188.413 107.392,-198.835 113.475,-195.371"/>
</g>
<!-- 11 -->
<g id="node12" class="node"><title>11</title>
<polygon fill="none" stroke="black" points="133,-44 57,-44 57,-1.42109e-14 133,-0 133,-44"/>
<text text-anchor="middle" x="95" y="-31" font-family="Courier,monospace" font-size="10.00">11</text>
<text text-anchor="start" x="64.5" y="-19" font-family="Courier,monospace" font-size="10.00">##epilogue</text>
<text text-anchor="start" x="64.5" y="-7" font-family="Courier,monospace" font-size="10.00">##return</text>
</g>
<!-- 10&#45;&gt;11 -->
<g id="edge12" class="edge"><title>10&#45;&gt;11</title>
<path fill="none" stroke="black" d="M95,-79.9891C95,-72.291 95,-63.0629 95,-54.2561"/>
<polygon fill="black" stroke="black" points="98.5001,-54.2282 95,-44.2282 91.5001,-54.2282 98.5001,-54.2282"/>
</g>
</g>
</svg>
