<?xml version="1.0" encoding="UTF-8" standalone="no"?>
<!DOCTYPE svg PUBLIC "-//W3C//DTD SVG 1.1//EN"
 "http://www.w3.org/Graphics/SVG/1.1/DTD/svg11.dtd">
<!-- Generated by graphviz version 2.26.3 (20100126.1600)
 -->
<!-- Title: _anonymous_25 Pages: 1 -->
<svg width="84pt" height="212pt"
 viewBox="0.00 0.00 84.00 212.00" xmlns="http://www.w3.org/2000/svg" xmlns:xlink="http://www.w3.org/1999/xlink">
<g id="graph1" class="graph" transform="scale(1 1) rotate(0) translate(4 208)">
<title>_anonymous_25</title>
<polygon fill="white" stroke="white" points="-4,5 -4,-208 81,-208 81,5 -4,5"/>
<!-- 0 -->
<g id="node1" class="node"><title>0</title>
<polygon fill="none" stroke="black" points="76,-204 2.82205e-14,-204 7.17829e-15,-160 76,-160 76,-204"/>
<text text-anchor="middle" x="38" y="-191" font-family="Courier,monospace" font-size="10.00">0</text>
<text text-anchor="start" x="7.5" y="-179" font-family="Courier,monospace" font-size="10.00">##prologue</text>
<text text-anchor="start" x="7.5" y="-167" font-family="Courier,monospace" font-size="10.00">##branch</text>
</g>
<!-- 1 -->
<g id="node2" class="node"><title>1</title>
<polygon fill="none" stroke="black" points="76,-124 2.82205e-14,-124 7.17829e-15,-80 76,-80 76,-124"/>
<text text-anchor="middle" x="38" y="-111" font-family="Courier,monospace" font-size="10.00">1</text>
<text text-anchor="start" x="7.5" y="-99" font-family="Courier,monospace" font-size="10.00">##inc&#45;d &#45;1</text>
<text text-anchor="start" x="7.5" y="-87" font-family="Courier,monospace" font-size="10.00">##branch</text>
</g>
<!-- 0&#45;&gt;1 -->
<g id="edge1" class="edge"><title>0&#45;&gt;1</title>
<path fill="none" stroke="black" d="M38,-159.716C38,-151.827 38,-142.787 38,-134.238"/>
<polygon fill="black" stroke="black" points="41.5001,-134.165 38,-124.165 34.5001,-134.165 41.5001,-134.165"/>
</g>
<!-- 2 -->
<g id="node3" class="node"><title>2</title>
<polygon fill="none" stroke="black" points="76,-44 2.82205e-14,-44 7.17829e-15,-1.42109e-14 76,-0 76,-44"/>
<text text-anchor="middle" x="38" y="-31" font-family="Courier,monospace" font-size="10.00">2</text>
<text text-anchor="start" x="7.5" y="-19" font-family="Courier,monospace" font-size="10.00">##epilogue</text>
<text text-anchor="start" x="7.5" y="-7" font-family="Courier,monospace" font-size="10.00">##return</text>
</g>
<!-- 1&#45;&gt;2 -->
<g id="edge2" class="edge"><title>1&#45;&gt;2</title>
<path fill="none" stroke="black" d="M38,-79.7155C38,-71.827 38,-62.7865 38,-54.2379"/>
<polygon fill="black" stroke="black" points="41.5001,-54.1649 38,-44.165 34.5001,-54.165 41.5001,-54.1649"/>
</g>
</g>
</svg>
