<?xml version="1.0" encoding="UTF-8" standalone="no"?>
<!DOCTYPE svg PUBLIC "-//W3C//DTD SVG 1.1//EN"
 "http://www.w3.org/Graphics/SVG/1.1/DTD/svg11.dtd">
<!-- Generated by graphviz version 2.26.3 (20100126.1600)
 -->
<!-- Title: _anonymous_16 Pages: 1 -->
<svg width="132pt" height="304pt"
 viewBox="0.00 0.00 132.00 304.00" xmlns="http://www.w3.org/2000/svg" xmlns:xlink="http://www.w3.org/1999/xlink">
<g id="graph1" class="graph" transform="scale(1 1) rotate(0) translate(4 300)">
<title>_anonymous_16</title>
<polygon fill="white" stroke="white" points="-4,5 -4,-300 129,-300 129,5 -4,5"/>
<!-- 0 -->
<g id="node1" class="node"><title>0</title>
<polygon fill="grey" stroke="grey" points="100,-296 24,-296 24,-252 100,-252 100,-296"/>
<text text-anchor="middle" x="62" y="-283" font-family="Courier,monospace" font-size="10.00">0</text>
<text text-anchor="start" x="31.5" y="-271" font-family="Courier,monospace" font-size="10.00">##prologue</text>
<text text-anchor="start" x="31.5" y="-259" font-family="Courier,monospace" font-size="10.00">##branch</text>
</g>
<!-- 1 -->
<g id="node2" class="node"><title>1</title>
<polygon fill="none" stroke="black" points="106,-216 18,-216 18,-172 106,-172 106,-216"/>
<text text-anchor="middle" x="62" y="-203" font-family="Courier,monospace" font-size="10.00">1</text>
<text text-anchor="start" x="25.5" y="-191" font-family="Courier,monospace" font-size="10.00">##peek 1 D 0</text>
<text text-anchor="start" x="25.5" y="-179" font-family="Courier,monospace" font-size="10.00">##branch</text>
</g>
<!-- 0&#45;&gt;1 -->
<g id="edge1" class="edge"><title>0&#45;&gt;1</title>
<path fill="none" stroke="black" d="M62,-251.716C62,-243.827 62,-234.787 62,-226.238"/>
<polygon fill="black" stroke="black" points="65.5001,-226.165 62,-216.165 58.5001,-226.165 65.5001,-226.165"/>
</g>
<!-- 2 -->
<g id="node3" class="node"><title>2</title>
<polygon fill="none" stroke="black" points="124,-136 2.86368e-14,-136 7.49401e-15,-80 124,-80 124,-136"/>
<text text-anchor="middle" x="62" y="-123" font-family="Courier,monospace" font-size="10.00">2</text>
<text text-anchor="start" x="7.5" y="-111" font-family="Courier,monospace" font-size="10.00">##copy 2 1 any&#45;rep</text>
<text text-anchor="start" x="7.5" y="-99" font-family="Courier,monospace" font-size="10.00">##inc&#45;d &#45;1</text>
<text text-anchor="start" x="7.5" y="-87" font-family="Courier,monospace" font-size="10.00">##branch</text>
</g>
<!-- 1&#45;&gt;2 -->
<g id="edge2" class="edge"><title>1&#45;&gt;2</title>
<path fill="none" stroke="black" d="M62,-171.853C62,-164.055 62,-155.05 62,-146.306"/>
<polygon fill="black" stroke="black" points="65.5001,-146.251 62,-136.251 58.5001,-146.251 65.5001,-146.251"/>
</g>
<!-- 3 -->
<g id="node4" class="node"><title>3</title>
<polygon fill="grey" stroke="grey" points="100,-44 24,-44 24,-1.42109e-14 100,-0 100,-44"/>
<text text-anchor="middle" x="62" y="-31" font-family="Courier,monospace" font-size="10.00">3</text>
<text text-anchor="start" x="31.5" y="-19" font-family="Courier,monospace" font-size="10.00">##epilogue</text>
<text text-anchor="start" x="31.5" y="-7" font-family="Courier,monospace" font-size="10.00">##return</text>
</g>
<!-- 2&#45;&gt;3 -->
<g id="edge3" class="edge"><title>2&#45;&gt;3</title>
<path fill="none" stroke="black" d="M62,-79.8404C62,-71.7116 62,-62.7764 62,-54.4113"/>
<polygon fill="black" stroke="black" points="65.5001,-54.224 62,-44.224 58.5001,-54.224 65.5001,-54.224"/>
</g>
</g>
</svg>
