<?xml version="1.0" encoding="UTF-8" standalone="no"?>
<!DOCTYPE svg PUBLIC "-//W3C//DTD SVG 1.1//EN"
 "http://www.w3.org/Graphics/SVG/1.1/DTD/svg11.dtd">
<!-- Generated by graphviz version 2.26.3 (20100126.1600)
 -->
<!-- Title: _anonymous_20 Pages: 1 -->
<svg width="132pt" height="236pt"
 viewBox="0.00 0.00 132.00 236.00" xmlns="http://www.w3.org/2000/svg" xmlns:xlink="http://www.w3.org/1999/xlink">
<g id="graph1" class="graph" transform="scale(1 1) rotate(0) translate(4 232)">
<title>_anonymous_20</title>
<polygon fill="white" stroke="white" points="-4,5 -4,-232 129,-232 129,5 -4,5"/>
<!-- 0 -->
<g id="node1" class="node"><title>0</title>
<polygon fill="grey" stroke="grey" points="100,-228 24,-228 24,-184 100,-184 100,-228"/>
<text text-anchor="middle" x="62" y="-215" font-family="Courier,monospace" font-size="10.00">0</text>
<text text-anchor="start" x="31.5" y="-203" font-family="Courier,monospace" font-size="10.00">##prologue</text>
<text text-anchor="start" x="31.5" y="-191" font-family="Courier,monospace" font-size="10.00">##branch</text>
</g>
<!-- 1 -->
<g id="node2" class="node"><title>1</title>
<polygon fill="none" stroke="black" points="124,-148 2.86368e-14,-148 7.49401e-15,-80 124,-80 124,-148"/>
<text text-anchor="middle" x="62" y="-135" font-family="Courier,monospace" font-size="10.00">1</text>
<text text-anchor="start" x="7.5" y="-123" font-family="Courier,monospace" font-size="10.00">##inc&#45;d &#45;1</text>
<text text-anchor="start" x="7.5" y="-111" font-family="Courier,monospace" font-size="10.00">##peek 3 D &#45;1</text>
<text text-anchor="start" x="7.5" y="-99" font-family="Courier,monospace" font-size="10.00">##copy 4 3 any&#45;rep</text>
<text text-anchor="start" x="7.5" y="-87" font-family="Courier,monospace" font-size="10.00">##branch</text>
</g>
<!-- 0&#45;&gt;1 -->
<g id="edge1" class="edge"><title>0&#45;&gt;1</title>
<path fill="none" stroke="black" d="M62,-183.729C62,-176.085 62,-167.236 62,-158.463"/>
<polygon fill="black" stroke="black" points="65.5001,-158.274 62,-148.274 58.5001,-158.274 65.5001,-158.274"/>
</g>
<!-- 2 -->
<g id="node3" class="node"><title>2</title>
<polygon fill="grey" stroke="grey" points="100,-44 24,-44 24,-1.42109e-14 100,-0 100,-44"/>
<text text-anchor="middle" x="62" y="-31" font-family="Courier,monospace" font-size="10.00">2</text>
<text text-anchor="start" x="31.5" y="-19" font-family="Courier,monospace" font-size="10.00">##epilogue</text>
<text text-anchor="start" x="31.5" y="-7" font-family="Courier,monospace" font-size="10.00">##return</text>
</g>
<!-- 1&#45;&gt;2 -->
<g id="edge2" class="edge"><title>1&#45;&gt;2</title>
<path fill="none" stroke="black" d="M62,-79.7426C62,-71.3371 62,-62.3709 62,-54.0725"/>
<polygon fill="black" stroke="black" points="65.5001,-54.0107 62,-44.0107 58.5001,-54.0107 65.5001,-54.0107"/>
</g>
</g>
</svg>
