<?xml version="1.0" encoding="UTF-8" standalone="no"?>
<!DOCTYPE svg PUBLIC "-//W3C//DTD SVG 1.1//EN"
 "http://www.w3.org/Graphics/SVG/1.1/DTD/svg11.dtd">
<!-- Generated by graphviz version 2.26.3 (20100126.1600)
 -->
<!-- Title: _anonymous_22 Pages: 1 -->
<svg width="102pt" height="224pt"
 viewBox="0.00 0.00 102.00 224.00" xmlns="http://www.w3.org/2000/svg" xmlns:xlink="http://www.w3.org/1999/xlink">
<g id="graph1" class="graph" transform="scale(1 1) rotate(0) translate(4 220)">
<title>_anonymous_22</title>
<polygon fill="white" stroke="white" points="-4,5 -4,-220 99,-220 99,5 -4,5"/>
<!-- 0 -->
<g id="node1" class="node"><title>0</title>
<polygon fill="grey" stroke="grey" points="85,-216 9,-216 9,-172 85,-172 85,-216"/>
<text text-anchor="middle" x="47" y="-203" font-family="Courier,monospace" font-size="10.00">0</text>
<text text-anchor="start" x="16.5" y="-191" font-family="Courier,monospace" font-size="10.00">##prologue</text>
<text text-anchor="start" x="16.5" y="-179" font-family="Courier,monospace" font-size="10.00">##branch</text>
</g>
<!-- 1 -->
<g id="node2" class="node"><title>1</title>
<polygon fill="none" stroke="black" points="94,-136 2.96776e-14,-136 8.58341e-15,-80 94,-80 94,-136"/>
<text text-anchor="middle" x="47" y="-123" font-family="Courier,monospace" font-size="10.00">1</text>
<text text-anchor="start" x="7.5" y="-111" font-family="Courier,monospace" font-size="10.00">##inc&#45;d &#45;1</text>
<text text-anchor="start" x="7.5" y="-99" font-family="Courier,monospace" font-size="10.00">##peek 3 D &#45;1</text>
<text text-anchor="start" x="7.5" y="-87" font-family="Courier,monospace" font-size="10.00">##branch</text>
</g>
<!-- 0&#45;&gt;1 -->
<g id="edge1" class="edge"><title>0&#45;&gt;1</title>
<path fill="none" stroke="black" d="M47,-171.853C47,-164.055 47,-155.05 47,-146.306"/>
<polygon fill="black" stroke="black" points="50.5001,-146.251 47,-136.251 43.5001,-146.251 50.5001,-146.251"/>
</g>
<!-- 2 -->
<g id="node3" class="node"><title>2</title>
<polygon fill="grey" stroke="grey" points="85,-44 9,-44 9,-1.42109e-14 85,-0 85,-44"/>
<text text-anchor="middle" x="47" y="-31" font-family="Courier,monospace" font-size="10.00">2</text>
<text text-anchor="start" x="16.5" y="-19" font-family="Courier,monospace" font-size="10.00">##epilogue</text>
<text text-anchor="start" x="16.5" y="-7" font-family="Courier,monospace" font-size="10.00">##return</text>
</g>
<!-- 1&#45;&gt;2 -->
<g id="edge2" class="edge"><title>1&#45;&gt;2</title>
<path fill="none" stroke="black" d="M47,-79.8404C47,-71.7116 47,-62.7764 47,-54.4113"/>
<polygon fill="black" stroke="black" points="50.5001,-54.224 47,-44.224 43.5001,-54.224 50.5001,-54.224"/>
</g>
</g>
</svg>
